<svg version="1" xmlns="http://www.w3.org/2000/svg" width="373.333" height="373.333" viewBox="0 0 280.000000 280.000000"><path d="M147.5 1.7c-.4 1-.9 5.2-1.2 9.3-.5 9 1.2 12.7 7.9 16.1 3.6 1.9 5.2 2.1 11.5 1.5 6.8-.6 7.3-.6 7.3 1.3 0 3.2 1.1 5.1 3 5.1 3.8 0 2.9 2.7-1.3 4-12 3.8-19.1 7.9-18.1 10.5.3.7-.8 3.7-2.5 6.6-4 7.2-8.1 18.7-8.8 25-.8 6.7-10.9 27.2-20.2 40.9-4 5.8-4.4 7.1-4.5 12.6-.1 5.6.2 6.4 4.2 11.7 2.3 3.1 5 6.1 6 6.6 1.6.9 8.4.1 12.3-1.4 1.3-.5 1.7.6 2.2 7.1.9 9.6.9 21.7.1 26.6-.5 2.8-1.2 3.8-2.8 4-1.3.2-2.1 1-2.1 2.3-.1 1.1-.4 2.6-.9 3.3-.4.7-.4 4.8 0 9.2.5 5.7.3 8-.5 8-1.6 0-1.3 5.1.4 6.4 1.1.8 1.5 3.8 1.6 12.6.1 6.3.8 17.9 1.6 25.8l1.4 14.3-2.3 1.9c-2.2 1.9-2.2 2.1-.4 3.4 1 .8 1.5 1.9 1.1 2.5-.4.8 2.1 1.1 8 1.1h8.6l-.6-12.8c-.4-7-1.1-16.9-1.6-22.1-.5-5.2-.8-9.6-.6-9.8.2-.2 1.1 4.1 2 9.4 2.5 15.2 2.8 17.2 3.4 26.5l.5 8.8H238l.4-2.3c2.1-9.6 2.8-21.9 2.2-35.4-.7-17.5-.2-20 4.5-20.5 4.8-.5 5.6-2.6 3.5-9.3-1-3.2-2-6.9-2.2-8.4-.3-1.4-.7-3.3-1-4.1-.3-.8-.8-5.1-1-9.5-.5-9.4-2.3-15-7-21-1.8-2.5-3.1-5.1-2.8-5.9.3-.8-.2-2.6-1.1-4-1-1.5-1.3-3-.9-3.8.5-.7.7-3.6.6-6.3-.2-4.4.1-5.5 3.1-9.1 1.8-2.3 4.1-6.8 5.1-10 1.1-3.3 2.7-8.5 3.8-11.7 1-3.2 2.1-8.6 2.5-12 .3-3.4 1.6-8.3 2.9-10.8 1.3-2.6 3.1-8.5 4.1-13.2 2-9.8 1.4-13.5-3.6-23.6-1.5-3.1-3.1-6.7-3.4-8.1-.8-2.8-5.5-7.9-12.2-13-5.2-4-11-11.3-12-15.2-.4-1.4-1.7-3.1-3.1-3.8-4.8-2.6-9.5-14.6-6.4-16.5C217.4.4 212.4 0 181.6 0c-30.9 0-33.4.1-34.1 1.7zm-41 139.3c-.3.5-1.5 1-2.6 1-2.1 0-2.3.7-.9 3 .7 1.2 1.2 1.2 2.2.2.6-.6 2.3-1.2 3.8-1.2l2.5.1-2.7 1.5c-1.6.8-2.8 2-2.8 2.7 0 .7.3.8.8.2.8-1.1 5.2-1.5 5.2-.5 0 .4.7.7 1.5.7 1.7 0 2-2.3.5-3.2-.5-.3-1-1.8-1-3.3 0-2.2-.2-2.4-1.1-1.2-.8 1.1-1.2 1.2-1.6.2-.6-1.4-2.9-1.6-3.8-.2zm-35.8 2.3c-3.7 2-4 2.1-6.7.5-1.7-1-3-1.2-3.2-.6-.2.5-1.6 1.1-3.1 1.1-3.3.2-3.9 3.7-.7 3.7 1.1 0 2 .7 2 1.5 0 1.1-1.1 1.5-3.9 1.5-3.8 0-4 .2-3.9 3l.1 3 12.6-.4c6.9-.3 13.7-.7 15.1-.9 8.6-1.5 9.7-1.9 9.6-3.5-.1-1.1.8-1.8 2.2-2 1.3-.2 2.1-.9 1.9-1.5-.7-2.3-11.7-6.9-11.7-4.8 0 .4-1.1.8-2.5.8-1.8 0-2.5-.5-2.5-1.8 0-2.3-.5-2.3-5.3.4zm26.4 1c-3.4 1.7-3.8 3.7-.8 3.7 1.4 0 3.2.3 4.1.6 1.2.4 1.6 0 1.6-1.5 0-1.2-.6-2.1-1.6-2.1-.8 0-1.2-.5-.9-1 .8-1.3.5-1.2-2.4.3zm-.7 7.6c.4.6 0 1.1-.8 1.1-.9 0-1.6.4-1.6.9 0 1.7 1.9 2.2 3.9 1.2 1.4-.8 2.1-.8 2.4.2.2.6.8.8 1.3.4 1.3-1.2-1-4.2-3.6-4.5-1.4-.2-2 0-1.6.7z"/></svg>