<?xml version="1.0" encoding="utf-8"?>
<!-- Generator: Adobe Illustrator 19.1.0, SVG Export Plug-In . SVG Version: 6.00 Build 0)  -->
<svg version="1.1" id="Layer_1" xmlns="http://www.w3.org/2000/svg" xmlns:xlink="http://www.w3.org/1999/xlink" x="0px" y="0px"
	 viewBox="0 0 566.9 566.9" style="enable-background:new 0 0 566.9 566.9;" xml:space="preserve">
<style type="text/css">
	.st0{fill:#C9A600;}
	.st1{fill:#E6D089;}
	.st2{fill:#907642;}
</style>
<g>
	<path class="st0" d="M62.9,138.5C62.9,138.5,62.9,138.5,62.9,138.5C62.9,138.5,62.9,138.5,62.9,138.5
		C62.9,138.5,62.9,138.5,62.9,138.5z"/>
	<path class="st0" d="M58.9,196.8c0.1,0,0.1,0,0.1,0l-0.1-0.2c0,0-0.1,0-0.1,0.1c0,0,0,0.1,0,0.1C58.9,196.8,58.9,196.8,58.9,196.8z
		"/>
	<path class="st1" d="M59.8,87.4c0.1-0.1,0.3-0.2,0.5-0.3C60.2,87.2,60,87.3,59.8,87.4z M60.5,87.1L60.5,87.1L60.5,87.1L60.5,87.1z
		 M59.8,87.5C59.8,87.5,59.8,87.5,59.8,87.5C59.8,87.5,59.8,87.5,59.8,87.5z M59.8,87.5C59.8,87.5,59.8,87.5,59.8,87.5
		c-0.1,0.1-0.2,0.2-0.2,0.2c0,0,0,0,0,0S59.7,87.6,59.8,87.5C59.8,87.5,59.8,87.5,59.8,87.5z M60.4,87.1
		C60.4,87.1,60.4,87.1,60.4,87.1C60.4,87.1,60.4,87.1,60.4,87.1C60.4,87.1,60.4,87.1,60.4,87.1z M92.6,110.9l-0.2,0.5
		c0,0,0,0.1-0.1,0.1c-0.3,0.4-0.6,1-1.1,1.1c-0.5,0.1-1.5,1.6-1.9,2c-0.5,0.4-2.3,1.2-1.9,1.1c0.4-0.1,1.2,0.2,1.6,0.3
		c0.4,0.1,1.7-0.4,2.5-0.5c0.8-0.1,1.7,0.3,2.2,0.7c0.5,0.3,0.8,0.1,1.1,0c0.3-0.1,0.4-0.1,0.3-0.2c-0.1-0.1-0.3-1.3-0.3-1.7
		c0-0.4-0.4-2.5-0.4-2.8c0,0,0,0,0,0c-0.2,0-0.3-0.1-0.4-0.1C93.4,111.3,92.9,111,92.6,110.9z M94.4,111.5
		C94.4,111.4,94.4,111.4,94.4,111.5 M70.6,40.6c0,0.2,0.1,0.4,0.2,0.6C70.7,41,70.6,40.8,70.6,40.6z M70.8,41.2
		c0.1,0.2,0.3,0.4,0.4,0.6C71.1,41.6,70.9,41.4,70.8,41.2z M78,34.8c0.1-0.1,0.2-0.1,0.2-0.2C78.2,34.6,78.1,34.7,78,34.8z
		 M77.6,35.1c0.1-0.1,0.3-0.2,0.3-0.3C77.8,34.9,77.7,35,77.6,35.1z M61.5,87C61.5,87,61.5,87,61.5,87C61.5,87,61.5,87,61.5,87
		C61.5,87,61.6,87,61.5,87C61.6,87,61.6,87,61.5,87z M61.8,86.6L61.8,86.6C61.8,86.6,61.8,86.6,61.8,86.6
		C61.8,86.6,61.8,86.6,61.8,86.6z M61.6,87L61.6,87c0-0.1,0.1-0.2,0.2-0.3C61.7,86.7,61.6,86.9,61.6,87z M62.5,86L62.5,86
		c-0.2,0.1-0.5,0.3-0.6,0.6l0,0C62,86.3,62.2,86,62.5,86z M75.1,37c-0.4,0.3-0.7,0.5-0.9,0.7c0,0,0,0,0,0
		C74.4,37.5,74.8,37.3,75.1,37z M75.5,36.7c0.6-0.5,1.3-1,1.8-1.4C76.8,35.7,76.1,36.2,75.5,36.7z M104.2,46.6
		c0.8-0.5,1.3-1.3,1.6-2.1C105.5,45.3,104.9,46.1,104.2,46.6z M61.5,87.1C61.5,87.1,61.5,87.1,61.5,87.1
		C61.5,87.1,61.5,87.1,61.5,87.1C61.5,87.1,61.5,87.1,61.5,87.1z M72.7,95.1C72.7,95.1,72.8,95.1,72.7,95.1c0-0.5-0.4-2.5-0.9-3.8
		c-0.5-1.3-0.7-2.7-1.3-2.7c-0.6,0-0.1-0.1,0.3-1.2c0.3-1.1,1.2-1.2,2.1-2.2c0.4-0.4,0.7-0.9,1-1.4c-0.6,0.4-1.2,0.8-1.2,0.7
		c0-0.1-0.5-0.3-0.9-0.4c0,0,0,0,0,0c-0.2,0.1-0.3,0.2-0.4,0.4c0,0,0,0,0,0h0c0,0-0.3,0.9-0.6,1.3c-0.3,0.4-0.6,2.5-0.6,2.5
		s-0.5,0.1-0.9-0.3c0,0,0,0-0.1-0.1c0,0,0-0.1,0.1-0.2c-0.1,0.2-0.1,0.3-0.1,0.3S69,88.1,69,88c0-0.1-0.5-0.6-1-0.8
		c-0.5-0.2-0.9-0.3-1.1-0.3c-0.2,0-0.2-0.2-0.5-0.4c-0.3-0.2-0.6,0-0.8-0.3c-0.2-0.3-0.6-0.4-1.2-0.5c0,0,0,0,0.1,0
		c0,0.1,0,0.1,0.1,0.2c0.3,0.1,0.7,0.5,0.8,0.7c0.1,0.2,0.6,0.6,0.9,0.7c0.3,0.1,0.5,0.1,0.7,0.3c0.2,0.2,0,0.2-0.4,0.1
		c-0.4-0.2-1.2-0.7-1.6-0.8c-0.4-0.1-0.6-0.5-0.9-0.5c-0.2,0-0.4-0.2-0.6-0.4c-0.2-0.1-0.7-0.2-1-0.2c0,0,0,0-0.1,0c0,0,0,0,0,0.1
		c0,0.2-0.4,0.4-0.3,0.5c0.2,0.2,0.5,0.3,0.6,0.4c0.1,0.1,0.2,0,0.4,0.1c0.2,0.1,0.2,0.6,0.4,0.7c0.2,0.1,0.3,0.3,0.6,0.3
		c0.3,0,0.1,0.2-0.2,0.2c-0.4,0-1.3,0-1.5-0.2c-0.2-0.1-0.6-0.8-1.1-1c0,0,0,0,0,0s-0.4-0.1-0.9,0c0,0-0.1,0-0.1,0c0,0,0,0.1,0,0.1
		c-0.3,0.5,0.6,0.7,0.8,1.2c0.2,0.5,0.8,0.7,1.6,0.7c0.7,0,0.5,0.8,0.4,1.5c0,0.1,0,0.3-0.1,0.4c-0.1,0.8,0.6,0.9,1.1,1.4
		c0.5,0.5,0.2,1,1.3,1.7c1.2,0.7,1,1.3,1.6,1.5c0.6,0.1,0.9-0.4,1.8-0.1c0.9,0.3,0.3,1.1,0.6,1.6c0.1,0.1,0.2,0.2,0.3,0.2
		c0.3,0.1,0.6-0.2,0.8-0.5C71,96.4,72.6,95.3,72.7,95.1z M61.5,87.1L61.5,87.1C61.5,87.1,61.5,87.1,61.5,87.1
		C61.5,87.1,61.5,87.1,61.5,87.1z M63.6,86.1C63.6,86.1,63.6,86.2,63.6,86.1C63.6,86.2,63.6,86.1,63.6,86.1L63.6,86.1z M70.8,40.1
		c-0.1,0.1-0.1,0.1-0.2,0.2C70.7,40.2,70.7,40.2,70.8,40.1C70.8,40.1,70.8,40.1,70.8,40.1z M73.7,38.1
		C73.7,38.1,73.7,38.1,73.7,38.1C73.7,38.1,73.7,38.1,73.7,38.1L73.7,38.1z M73.8,38c0,0,0.1-0.1,0.1-0.1C73.9,37.9,73.8,38,73.8,38
		C73.8,38,73.8,38,73.8,38C73.8,38,73.8,38,73.8,38z M64.8,58.4C64.8,58.4,64.7,58.4,64.8,58.4c-0.1-0.1,0.1-0.9,1.5-1.6
		c0.9-0.4,2.1-0.6,2.7-0.8c0.7-0.2,7-3.6,8.9-4.4c1.9-0.9,10.5-5.5,12.2-6.2c1.7-0.7,6.5-3.1,7.9-3.6c1.4-0.4,3.3-0.2,6.1,0.6
		c1.3,0.3,1.7,0.9,1.9,1.5c0.1-0.4,0.1-0.8,0-1.1c-0.5-2-5.2-4.8-8.8-5.5c-4.5-0.8-6.4,0.1-7.2,0c-0.7-0.1-0.2-1.1-0.6-2.2
		c-0.4-1.1-2.6-1.2-3.5-1.3c0,0,0.1,0,0.1,0c-1,0.2-1.2,0.4-2.5,0.7c-1.4,0.3-9.1,4.1-8.6,4.9c0.9,1.5,9.1-1.9,11.5-2.1
		c2.4-0.2,4.2,0.1,3.1,0.1c-0.8,0-9.4,1.3-13.7,4c-1.9,1.2-3.6,2.4-3.6,2.4s-2.3,1.6-4.3,4.5c-1.6,2.4-0.6,3.3-1.9,6.3
		c-0.8,1.8-2.4,2.6-2.3,4C63.6,59,64.2,58.7,64.8,58.4z M78.2,44.2l0.5,0.1l0,0l0.1-0.1l0.6,0.1l0-0.1l0.1-0.1l-0.2-0.1l0-0.1l0,0
		l-0.4-0.1l-0.1-0.2l0.2-0.1l0.3,0.1l0,0l0.1,0l0.2,0.1l0-0.1l0.1,0L79,43.4l0-0.1l0,0L78.7,43l-0.1-0.2l0.3,0l0.4,0.3c0,0,0,0,0,0
		l0.1,0l0.5,0.4l0-0.1l0.1,0l-0.2-0.2l0-0.1l0.1,0l-0.2-0.3l0-0.2l0.2,0l0.3,0.3l0-0.1l0.1,0l0.1,0.2l0-0.1l0.1,0L80,42.4l0-0.1
		l0.1,0l-0.2-0.4l0.1-0.2l0.2,0.1l0.2,0.5l0-0.1l0.1,0.1l0.2,0.6c0,0,0,0,0-0.1c0,0,0,0,0,0c0,0,0,0,0,0l0.1,0l-0.1-0.2l0-0.1l0.1,0
		l-0.1-0.4l0.1-0.2L81,42l0.1,0.4l0.1-0.1l0.1,0.1l0,0.2l0.1-0.1l0.1,0l0-0.7l0.1-0.1l0.1,0l0-0.5l0.2-0.2l0.2,0.2l0,0.4l0.1,0
		l0.1,0.1l-0.1,0.7l0,0l0.1,0.1l0.1-0.3l0.1,0c0,0,0,0,0,0l0.1-0.4l0.1-0.1l0.1,0.2l-0.1,0.4l0.1,0l0,0.1l-0.1,0.2l0.1,0l0,0.1
		l0.3-0.6l0.1,0l0,0l0.2-0.4l0.2-0.1l0.1,0.2l-0.3,0.4l0.1,0l0,0.1L82.8,43l0.1,0l0,0.1l0.1-0.2l0.1,0l0,0.1l0.2-0.3l0.2,0l0,0.2
		l-0.3,0.2l0.1,0l0,0.1l-0.1,0.1l0.1,0l0,0.1l0.5-0.4h0.1l0,0.1l0.4-0.3l0.2,0l0,0.2c0,0,0.1,0,0.1,0c0,0,0.1,0,0.1,0.1
		c0,0.1,0.3,0.5,0.3,0.6v0c0,0,0,0,0,0c0,0,0,0,0,0c0,0,0,0,0,0.1l0,0c0,0,0,0,0,0l0,0c0,0,0,0,0,0l0,0l0,0c0,0,0,0,0,0l0,0
		c0,0,0,0,0,0l0,0c0,0,0,0,0,0.1c0,0,0,0,0,0c0,0,0,0,0,0l0,0c0,0,0,0,0,0c0,0,0,0,0,0c0,0,0,0,0,0l0,0c0,0,0,0,0,0l0,0c0,0,0,0,0,0
		c0,0-0.1,0.1-0.1,0.1c-0.1,0.1-0.2,0.1-0.2,0.2c0,0-0.1,0-0.1,0.1c0,0,0,0-0.1,0c-0.1,0.1-0.3,0.1-0.4,0.2c0,0-0.1,0-0.1,0l0,0
		c0.1,0.1,0.1,0.2,0.2,0.3l0,0h0c0,0,0,0,0,0c0,0,0,0.1,0,0.1c0,0.1-0.1,0.1-0.1,0.1c-0.4,0.4-0.8,0.6-1.3,0.9
		c-0.1,0-0.1,0.1-0.2,0.1l-0.1,0.1c-0.3,0.2-0.7,0.3-1.1,0.5c-0.2,0.1-0.3,0.1-0.5,0.2c-0.1,0-0.1,0-0.2,0c0,0,0,0,0,0
		c0,0-0.1,0-0.1,0c0,0,0,0,0,0h0c0,0,0,0,0,0h0c0,0-0.1,0-0.1-0.1c0,0,0,0,0-0.1c0,0,0-0.1,0-0.1c0-0.1-0.1-0.2-0.1-0.2
		c-0.2,0.1-0.3,0.2-0.5,0.3c-0.1,0-0.1,0-0.2,0.1c0,0-0.1,0-0.1,0.1c-0.1,0-0.1,0-0.2,0.1c0,0,0,0,0,0c0,0-0.1,0-0.1,0c0,0,0,0,0,0
		c0,0,0,0,0,0c0,0-0.1,0-0.1,0c0,0,0,0,0,0c0,0,0,0,0,0h0c0,0,0,0,0,0c0,0,0,0,0,0h0c0,0,0,0,0,0c0,0,0,0,0,0c0,0,0,0,0,0
		c0,0,0,0,0,0c0,0,0,0,0,0c0,0,0,0,0,0c0,0,0,0,0,0c0,0,0,0,0,0c0,0,0,0,0,0c0,0,0,0,0,0c0-0.1-0.1-0.2-0.1-0.3
		c0-0.1-0.1-0.1-0.1-0.2c0-0.1,0-0.1-0.1-0.1c0-0.1,0-0.1,0-0.2c0,0,0,0,0,0c0,0,0,0,0,0c0,0,0,0,0.1-0.1l-0.2-0.1l0.1-0.2l0.4-0.1
		l0,0l0.1-0.1l0.6-0.2l-0.1,0l0-0.1l-0.2,0L79,45.3l0-0.1l-0.4,0.1l-0.1-0.1l0.1-0.2l0.4,0l0,0l0.1-0.1l0.2,0l0,0l0.1-0.1l-0.7,0
		l-0.1-0.1l0.1-0.1l-0.5,0L78,44.4L78.2,44.2z M63.7,86.2C63.7,86.2,63.7,86.2,63.7,86.2C63.7,86.2,63.7,86.2,63.7,86.2L63.7,86.2z
		 M63.7,86.2C63.7,86.2,63.7,86.2,63.7,86.2C63.7,86.2,63.7,86.2,63.7,86.2C63.7,86.2,63.7,86.2,63.7,86.2z M63.7,86.2
		C63.7,86.2,63.7,86.2,63.7,86.2C63.7,86.2,63.7,86.2,63.7,86.2L63.7,86.2z M63.7,86.2C63.7,86.2,63.7,86.2,63.7,86.2
		C63.7,86.2,63.7,86.2,63.7,86.2C63.7,86.2,63.7,86.2,63.7,86.2z M74,37.9L74,37.9c0,0,0.1-0.1,0.1-0.1C74.1,37.8,74,37.8,74,37.9z
		 M76.9,81.4c-0.8,0.5-1.2,2-2,2.1c0.3,1,0.5,1.3,0.9,0.5c0.4-0.8,0.7-1.9,1.6-2.2c0.9-0.3,3-1.6,3.3-2.2c0.2-0.4-0.2-0.7-0.4-1
		c-0.1,0.2-0.4,0.4-0.8,0.5c-0.7,0.2-0.8,0.4-1.1,0.8c-0.1,0.2-0.4,0.3-0.8,0.5l0,0C77.5,80.8,77.3,81.2,76.9,81.4z M80.2,78.4
		C80.2,78.4,80.2,78.4,80.2,78.4C80.2,78.4,80.2,78.4,80.2,78.4L80.2,78.4z M93.1,72.5c0.7-0.3,2.1-0.6,2.8-1.6c0.7-1,1.3-2,2.4-3.2
		c1.2-1.2,1.4-1.2,2.3-1.3c0.7-0.1,1.3-0.5,1.5-0.9c-0.1-0.1-0.3-0.4-0.7-1c-0.8-1.1-1.3-0.3-1.3-0.3s-0.7-1.2-1.3-2.3
		c-0.6-1.1-1-1.9-0.8-2.3c0.2-0.4,0.3-0.8-0.1-1.3c-0.3-0.5-0.3,0-0.1-0.8c0.2-0.8,0.2-1.6-0.6-2.6c-0.3-0.4-0.5-0.7-0.6-0.9
		c0,0,0,0,0,0c-0.6,0-1.2-0.1-1.3-0.9c0-0.8-0.8-2.3-1.2-2.7c-0.4-0.3-0.9,0.3-0.4,0.5c0.5,0.2,0.7,1.5,0.9,3.1
		c0.3,1.6-1.4,1.9-1.7,1.5c-0.3-0.4-0.3-1.4-0.5-1.7c-0.2-0.3,0-0.5,0.2-0.5c0.1,0-1-0.3-1.5-0.3c-0.5,0-1.3,0.2-1.4,0.4
		c-0.2,0.3-0.3,5-0.3,6.3c0,1.3-0.3,6.1-0.5,6.8c-0.2,0.7,0,0.4,0.5,0.4c0.5-0.1,5.8-1.6,6.9-2.2c1.1-0.6,1.4,0,0.9,0.1
		c-0.6,0.2-6.3,2.7-6.9,3c-0.7,0.3-2.1,0.8-3.5,1.5c-1.1,0.5-0.5,2.7-0.2,4.3c0.4-0.3,0.9-0.7,1.2-0.8c0.2-0.1,0.5-0.3,0.9-0.6
		c0,0,0,0,0,0h0c0,0,0,0-0.1,0c0,0,0,0,0,0c0,0,0-0.1,0-0.1c0-0.1,0-0.1-0.1-0.2c-0.1,0.1-0.2,0.1-0.3,0.2c0,0-0.1,0-0.1,0
		c0,0-0.1,0-0.1,0c0,0-0.1,0-0.1,0c0,0,0,0,0,0c0,0,0,0-0.1,0c0,0,0,0,0,0c0,0,0,0,0,0c0,0,0,0-0.1,0c0,0,0,0,0,0c0,0,0,0,0,0l0,0
		c0,0,0,0,0,0c0,0,0,0,0,0h0c0,0,0,0,0,0c0,0,0,0,0,0c0,0,0,0,0,0c0,0,0,0,0,0c0,0,0,0,0,0c0,0,0,0,0,0c0,0,0,0,0,0c0,0,0,0,0,0
		c0,0,0,0,0,0c0,0,0,0,0,0c0-0.1,0-0.1-0.1-0.2c0,0,0-0.1,0-0.1c0,0,0,0,0-0.1c0-0.1,0-0.1,0-0.1c0,0,0,0,0,0c0,0,0,0,0,0
		c0,0,0,0,0,0l-0.1,0l0.1-0.1l0.3-0.1l0,0l0-0.1l0.4-0.1l0,0l0,0l-0.1,0l0,0l0,0l-0.3,0l-0.1-0.1l0.1-0.1l0.2,0l0,0l0.1,0l0.1,0l0,0
		l0,0l-0.4,0l0,0l0,0l-0.3,0l-0.1-0.1l0.1-0.1l0.3,0l0,0l0.1,0l0.4,0.1l0,0l0,0l-0.1,0l0,0l0,0l-0.2-0.1l-0.1-0.1l0.1,0l0.2,0.1l0,0
		l0.1,0l0.1,0.1l0,0l0.1,0l-0.4-0.2l0-0.1l0,0L87.6,70l0-0.1l0.2,0L88,70c0,0,0,0,0,0H88l0.3,0.3l0-0.1l0.1,0L88.3,70l0-0.1l0,0
		l-0.2-0.2l0-0.1l0.1,0l0.2,0.2l0,0l0.1,0l0.1,0.1l0,0l0.1,0l-0.2-0.3l0-0.1l0,0l-0.1-0.3l0-0.1l0.1,0.1l0.1,0.3l0,0l0.1,0l0.2,0.4
		c0,0,0,0,0,0c0,0,0,0,0,0c0,0,0,0,0,0l0,0l0-0.1l0,0l0,0l-0.1-0.2l0-0.1l0.1,0.1l0.1,0.3l0,0l0,0l0,0.1l0,0l0,0l0-0.4l0,0l0,0V69
		l0.1-0.1l0.1,0.1l0,0.3l0,0l0,0.1l0,0.4l0,0l0,0l0-0.2l0,0c0,0,0,0,0,0l0.1-0.2l0.1-0.1l0.1,0.1l-0.1,0.2l0,0l0,0.1l0,0.1l0,0
		l0,0.1l0.2-0.4l0.1,0l0,0l0.1-0.3l0.1-0.1l0,0.1l-0.2,0.3h0l0,0.1l-0.2,0.3l0,0l0,0l0.1-0.1l0.1,0l0,0l0.2-0.2l0.1,0l0,0.1L90.5,70
		l0,0l0,0.1l-0.1,0.1l0,0l0,0l0.3-0.3l0,0l0,0l0.2-0.2l0.1,0l0,0.1c0,0,0.1,0,0.1,0c0,0,0.1,0,0.1,0.1c0,0,0.2,0.3,0.2,0.4v0
		c0,0,0,0,0,0c0,0,0,0,0,0c0,0,0,0,0,0l0,0c0,0,0,0,0,0l0,0c0,0,0,0,0,0h0l0,0c0,0,0,0,0,0l0,0c0,0,0,0,0,0h0c0,0,0,0,0,0
		c0,0,0,0,0,0c0,0,0,0,0,0v0c0,0,0,0,0,0c0,0,0,0,0,0c0,0,0,0,0,0v0c0,0,0,0,0,0l0,0c0,0,0,0,0,0c0,0-0.1,0-0.1,0.1
		c0,0-0.1,0.1-0.1,0.1c0,0,0,0-0.1,0c0,0,0,0,0,0c-0.1,0-0.2,0.1-0.3,0.1c0,0,0,0-0.1,0l0,0c0,0.1,0.1,0.1,0.1,0.2
		c0.8-0.2,2.2-0.4,2.2-0.4s-1.9,1.2-3,1.9c-0.8,0.5-2.6,1.9-3.5,2.6c-0.1,0.1-0.3,0.3-0.5,0.4c-0.1,0.1-0.1,0.1-0.1,0.1v0
		c-0.6,0.4-1.4,0.7-1.8,0.7c-0.6,0-0.6,0.1-0.8,0.3c-0.2,0.2-0.9,0.5-1.9,0.9c-0.6,0.2-0.9,0.6-1.1,0.9c0,0,0.1,0,0.1,0
		c0.6-0.1,2,0.1,2.7-0.2c0.7-0.3,1.3-0.6,1.3-0.6s-0.5,0.5-0.8,1.7c-0.3,1.2-0.3,2,0.3,1.1c0.5-0.9,2.5-3.9,2.3-2.9
		c0,0-1.3,2.9-1.3,4.2c0,1.3-0.2,2.2-0.2,2.2s-1.4-0.4-1.5,0C83,84.3,83,84.7,83,84.7s-1.7-0.4-1.9,0.1c-0.3,0.5-0.5,1.8-0.6,2.4
		c-0.1,0.6-0.3,2.5-0.3,2.5h0.8c0,0-0.2-3,0.5-3.5c0.7-0.5,1.5-0.9,1.5-0.9s0.3,1.3,0,2.4c-0.3,1.2-0.3,1.4,0.3,1.9
		c0.4,0.3,0.9,0.6,1.3,0.8c0.2,0.1,0.4,0.2,0.6,0.3c0.2,0,0.3,0.1,0.2,0.1c0.3,0.2,1.5-0.3,2.1-0.9c0.3-0.3,0.7-0.1,1.1,0.1
		c0.4-0.3,1.2-0.7,1.4-1.1c0.4-1.1,1.4-2.6,1.6-4c0.2-1.3,1.5-1.6,2.3-3.3c0.8-1.7,0.8-5.7,0.9-7.2c0.2-1.4-0.3-1-1.4-1.1
		C92.3,73.2,92.4,72.8,93.1,72.5z M86,89.2c-0.6,0-1-0.4-1-1c0-0.5,0.5-1,1-1c0.6,0,1,0.4,1,1C87.1,88.7,86.6,89.2,86,89.2z
		 M91.4,77.2c-0.8,0.1-1,0-2,0.2c-0.7,0.1-1.2,0.3-1.4,0.4c-0.4,1.3-1.2,5.1-0.9,5.5c0.3,0.4,3.6,0.1,2.7,1.3c0,0-2.6,0.2-3.1-0.1
		c-0.5-0.3-0.3-3.7,0.5-5.9c0.8-2.2,1.7-2.6,2.4-3.5c0.5-0.7-0.3,0.4-0.9,1.5c0.3-0.1,0.7-0.2,1.1-0.4c0.7-0.3,1.2-0.9,1.4-0.3
		C91.4,76.4,92.2,77.1,91.4,77.2z M103.9,111.4c-0.1,0.4-0.2,1.2-0.2,1.6c-0.6-0.7-3.3-3.6-4.8-4c-1.6-0.4-3.8-0.5-4.2-0.5
		c-0.4,0.6-0.7,1.3-0.3,1.4c0.5,0.2,0.8,0.6,0.8,0.9c0,0,0,0.1,0,0.1c0,0.1,0,0.2,0,0.3h0c0.1,0,0.1,0.1,0,0.3c0,0.1,0,0.2,0.1,0.3
		c0.7,0.3,1.7,0.8,2,1.1c0.5,0.3,1.7,1.7,2.7,2.2c1,0.5,2,1.7,2.4,2.5c0.2,0.5,0.5,0.8,0.7,1.1c0,0,0,0,0,0
		C103.1,117,103.5,113.7,103.9,111.4z M89.3,90.5C89.3,90.5,89.3,90.5,89.3,90.5C89.3,90.5,89.3,90.5,89.3,90.5
		C89.3,90.5,89.3,90.5,89.3,90.5z M102.6,64.9C102.6,64.9,102.5,64.9,102.6,64.9L102.6,64.9C102.5,64.9,102.6,64.9,102.6,64.9z
		 M110.8,67.6c0,0,0.6-0.6,0.8-1.1c0.2-0.5-2.4-1.1-4-1.5c-1.6-0.4-3.9-0.8-4.3-0.8c-0.4,0-0.1,0.4-0.4,0.5c0.3,0.4,1,1.2,0.9,1.4
		c-0.2,0.3-1.6,1-2.4,0.9c-0.8-0.1-2.4,0.8-3.2,1.8c-0.8,1,0.7,1.9,0.2,3.3c-0.5,1.4,0.9,1.3,3,1.6c2.1,0.3-0.5,2.7-2.4,3.3
		c-1.9,0.6-3.9,4.4-4.3,5.4c-0.4,1-1.8,3.8-1.6,4.2c0.2,0.4,1,0.8,0.1,1.1c-0.9,0.3-1.1,1.2-0.7,1.1c0.4-0.1,2,0.5,3.2,1.1
		c1.2,0.6,1.3,1.1,0.3,1.1c-1,0-3.5-2.1-4.9-1.3c-0.8,0.5-1.4,0.7-1.8,0.7c0,0,0,0,0,0s-0.9,0.4-1.6,0.7c-0.7,0.3-1.6,0.9-1.6,0.9
		s0-0.4-0.2-0.8c-0.2-0.4-1.7-0.1-1.7-0.1l0-0.1c-0.5,0.1-1,0.2-1,0.2s-0.6-0.5-1.1-0.3c-0.5,0.2-1.2,0.9-1.2,0.9s-0.5,0-1.1,0
		c-0.6,0-1.1,0.1-1.2,0.6c-0.1,0.5,0.4,0.7,1,0.5c0.6-0.2,1.4,0.4,1.7,0c0.3-0.4,0.7-1.2,0.7-1.2v1.9c0,0-2.2,1.2-2.9,1.2
		s-1.6-0.3-2.3,0.2c-0.7,0.4-1.7,0.6-2.3,0.6c-0.4,0-1,0-1.4-0.1c0,0.1,0,0.1-0.2,0.1c-0.5,0-1.3,1-1.8,1.3
		c-0.4,0.3-0.5,2.5-0.4,2.9c0.1,0.4,0.5-0.9,1-1.3c0.4-0.4,0.1,0.8,0.6,0.6c0.5-0.2,1-1.1,1.4-1.6c0.3-0.5,0.6-1,1.8-0.9
		c0.6,0,0,2.5,0.3,2.4c1.1-0.3,1.1-2.4,2-2.6c0.6-0.1,0.8,1.7,1,1.7c0.3,0,0.5-2,0.6-2.7c0.1-0.7,2.3,0.2,3.1,0.2
		c0.8,0,1.1,0.4,1.5,0c0,0,0.1-0.1,0.1-0.1c-0.2-0.2-0.4-0.4-0.4-0.7c-0.1-0.3-0.1-0.4-0.3-0.6c-0.2-0.2,0.1-0.4,0.4-0.6
		c0.3-0.2,1.4,0.1,1.5,0.5c0.1,0.3,0.2,0.5,0.7,0.6c0.4,0.1,1.7,1.9,1.7,1.9c-0.4,0.4-1.3-0.3-1.8-0.7c-0.3-0.4-0.9-0.2-1.3-0.2
		c0.5,0.3,1.2,1,2.4,1.5c1.7,0.8,2,0.8,2.2,1.5c0.1,0.2-0.1,0.5-0.2,0.8c-0.2,0.4-0.3,0.8,1.1,0.9c0.2,0,0.4,0,0.5-0.2
		c0.2-0.3,0.2-0.8,0.7-1.2c0.4-0.2-0.4-1.6-0.1-2.6c0.3-1,0.6-0.8,0.5-1.2c-0.2-0.4-0.4-1-0.2-1.5c0.3-0.5,0-0.8-0.3-0.9
		c-0.4-0.2-0.3-1-0.2-1.5c0.1-0.5,0.8,0,0.9,0.5c0.1,0.5,1,1.4,1.5,2c0.5,0.6,1.2,0.7,1.7,0.7s1.3-0.4,0.8,0.5
		c-0.5,0.8,1.4,1.7,1.9,2.6c0.5,0.9-1.2,0.7-2.6,0.8c-1.3,0.1-0.3,0.8,0.7,1.1c1,0.4,2.9-0.3,3,0.4c0.1,0.4,0.2,0.7,0.4,0.8
		c1.1,1,4.1-2.7,6.3-4.3c0.6-0.4,2.3-2.4,2.7-2.7c0.4-0.3,1-1.7,1.2-2.5c0.2-0.8,1.6-2.3,1.6-2.3c0.1-0.2,1-0.7,1.1-0.6
		c0.1,0.1-0.9,1-1,1.5c-0.1,0.3,0.1,0.3,0.5,0.3c0.3,0-0.1,0.6-0.2,0.7c-0.2,0.1-0.9,0.6-1.1,0.8c-0.2,0.2-0.8,1.8-0.9,2.1
		c-0.2,0.9-1,1.4-1.4,1.8c-0.4,0.4-1.4,1.1-1.6,1.3c-1.8,1.3-5.7,5.6-6.4,6.5c0,0-0.1,0.1-0.1,0.1c0,0,0,0,0,0c0,0,0,0,0,0.1
		c0,0,0,0,0,0.1c0,0,0,0,0,0c0,0,0,0.1-0.1,0.1c0,0,0,0,0,0c-0.1,0.1-0.2,0.2-0.3,0.3c-0.5,0.5-2.6,2.6-2.6,2.6l0.2,0.1
		c0.6,0,1.3,0.1,1.8,0.4c1,0.5,2.9,1.5,3.5,2.5c0.5,0.7,1.3,1.3,1.7,1.6c0.2-1.3,0.4-2.3,0.4-2.6c0.3-1.1,0.9-1.5,1.7-2.7
		c0.8-1.2,1.3-2.7,7.1-14.2C118.9,80.2,110.8,67.6,110.8,67.6z M107.6,137.2c-0.6-3.1,0.2-4.3,0-6.4c-0.2-2.1-2.9-4.6-3.9-6.7
		c-0.9-2-0.6-3.1-0.8-4.5c0,0.2,0,0.3,0,0.5c-0.1-0.2-0.4-0.6-0.8-1.4c-0.7-1.2-1.1-0.7-2.5-1.6c-1.4-0.9-1.6-2-2.2-2.9
		c-0.5-0.8-1.8-0.5-2.3-0.4c0.3,1.2,0.6,2.5,0.6,2.8c-0.1,0.3,0.2,1-1.7,0.6c-0.3-0.1-1.4-0.3-2.3-0.6c-0.9-0.3-1.2,0.2-1.8,0.5
		c-0.6,0.3-1-0.2-1.5-0.4c-0.5-0.2-1.1,0.2-2.3,0.6c-3.5,1-1.1,2.9-2,3.5c-0.3,0.2-1.3-0.4-1.9-0.4c-0.6,0-0.5-0.3-1,0.1
		c-0.6,0.3,0.2,0.9,0.6,1.1c0.4,0.2,0.8,1.2,0.9,1.8c0.1,0.6,0.4,1.2,0.7,2.1c0.4,0.9,0,0.8-0.5,0.6c-0.5-0.2-1.3-0.8-1.5-1.6
		c-0.2-0.8-1-0.7-1.6-1c-0.5-0.3-0.5,1.2-0.5,2c0,0.8,0.4,1.2,1.1,1.5c0.7,0.2,1,0.2,1.8,0.6c0.8,0.5,0,1.2-0.6,2
		c-0.6,0.8,0.1,1.6,0.7,2.1c0.6,0.4,0.5,1.5,0.5,2c0,0.4,0.6,0.1,1.7-0.4c1-0.4,4-0.2,4.5,0c0.5,0.1,1.5,0.4,2.5,0.1s0.9-0.4,1.6,0
		c0.7,0.3,1.5,0.1,2.2-0.1c0.6-0.2,1.2-0.2,1.5-0.3c0.3-0.2-0.5-4-0.6-4.9c-0.1-0.9-0.4-2.2-0.5-3.3c-0.1-1.1-1.7-5.4-1.9-5.8
		c-0.2-0.4,0.7-0.1,1.1,0.5c0.4,0.6,2,5,2.1,6.3c0.1,1.3,1.1,6.9,1.3,7.6c0.3,0.8-0.1,1.4-0.4,2.1c-0.4,0.6-1.1,0.5-2.3,0.3
		c-1.2-0.2-3.2-0.1-4.1,0c-0.9,0-2.3-0.7-3.1-1.2c-0.8-0.5-1.2-0.2-3.6,0.1c-2.4,0.2-2,1.6-2,1.9c0,0.3,0.6,1.9,2,2.2
		c0.8,0.2,1.7,0.7,2.6,0.4c0.9-0.3,4.4-0.1,6.5-0.1c2.1-0.1,3.8,1.4,5.1,1.9c1.3,0.5,3.4,0.3,4.6,0.6c1.1,0.2,4.3,2.5,4.3,2.5
		c1.2,1,0.9,3.5,0.9,4.3c0,0.7,0.2,1.4,0.4,2.2c0.1,0.2-0.1,0.5-0.3,0.7c-0.5,0.3-1.2,0.6-1.9,0.9c-0.3,0.1-0.9,0.3-1.5,0.5
		c-0.4,0.1-0.6,0.2-0.7,0.2c-0.1,0-0.1,0-0.1,0c-0.1-0.1,1-4.1,1.2-5.1c0.2-1,0.2-1-0.2-1.2c-0.4-0.2-1-0.2-1.6-0.4
		c-0.6-0.2-0.4-0.7-0.7-1.6c-0.3-0.9-1.1-1.7-2.1-2.3c-1-0.6-2.8-0.5-3.5-0.7c-0.6-0.2-0.9-0.1-1.6-0.7c-0.7-0.6-1.3-0.5-2.6-0.5
		c-1.2,0-2.8,0.5-3.8,0.7c-1,0.2-1.3,0.1-2.1-0.2c-0.8-0.3-1.8-0.3-2.1-0.1c-0.3,0.2-1.1,0-1.3-0.1c-0.2-0.1,0,1.6,0.3,2.6
		c0.3,1-0.6,1.6-1.1,2.3c-0.5,0.6,0.4,1.4,1.1,2.6c0.7,1.3,1,2.5,1.4,4c0.4,1.4,0.2,2.8,0.6,3.5c1.1,1.9,3.5,2.6,3.4,4.2
		c0,0.3-1.7,0.3-2.6-0.5c-0.9-0.8-1.8-1.4-2.3-0.6c-0.6,0.8,1.1,2.4,1.9,2.7c0.8,0.3,2.3,1.7,2.9,2.5c0.7,0.9,2,1.6,2.9,1.6
		c0.9,0,1.3,0.5,1.8,1c0.5,0.5,0.7,0.4,1.4,0.2c0.7-0.2,2.5,0.6,3.2,1.4c0.7,0.8,1.5,2.3,1.2,2.6c-0.4,0.5-1.2-1.2-3.2-0.5
		c-0.9,0.3-2-0.5-2.5-1.1c-0.6-0.6-0.6-0.4-1.8-0.9c-1.2-0.5-1.9-0.8-2.5-1.8c-0.6-0.9-2.7-2-3.2-1.6c-0.5,0.4,0.3,1.1,0.9,1.7
		c0.6,0.7,0.7,2.3,0.8,3.3c0.2,1,1.7,2.5,2,3.1c0.4,0.6,2.5,2.5,3.5,2.6c1.1,0.1,1.2,2.4,1.5,2.7c0.3,0.3,0.4,0.4,1.7,0.8
		c1.3,0.4,0.7,1.6,0.4,1.7c-0.4,0.1-1.5,0.1-1.9-0.3c-0.4-0.4-1.3-0.4-1.8-0.3c-0.5,0.1,0.2,0.8,0.1,1.1c-0.1,0.3-0.7,0-1.9-1.1
		c-1.2-1.1-1.7-0.1-2.1,0.4c-0.3,0.6,0.9,2.9,2.2,4.5c1.3,1.6,1.2,3.2,1.2,3.5c0,0.3,0.4,0.7,0.7,0.8c0.4,0,1.3,0.1,1.8-0.1
		c0.5-0.1,1.2,0.1,1.8,0c0.6-0.1,1.7-0.8,2-0.7c0.3,0.1,0.9,0,1.6,0c0.7,0,0.9,0.7,0.6,0.4c-0.3-0.3-0.6,0.3-1.6,0.3
		c-1,0.1-0.9,1-1.8,0.8c-0.9-0.3-1.6,0.8-2.3,0.8c-0.7,0-2-0.1-2,0c-0.1,0.1-1.1,0.3-1.3,0.5c-0.2,0.2,0.4,0.5,0.8,0.3
		c0.4-0.2,1.7,0.2,2,0.2c0.3,0,2.2,0.1,3,0.5c0.8,0.5,0.3,0.5,0.3,0.5s-0.7,0.3-1.5-0.3c-0.1-0.1-0.2-0.1-0.4-0.1
		c-0.2,0-0.4,0-0.5,0c-0.7,0.1-1.4,0.4-1.8,0.3c-0.3-0.1-0.9,0.1-1.4,0.3c-0.4,0.2-0.8,0.4-0.9,0.5c0,0,0,0-0.1,0.1
		c0,0-0.1,0.1-0.1,0.1c0,0.3,0.4,0.5,0.9,0.3c0.5-0.2,1.2,0,1.5,0c0.3,0.1,1.2-0.2,1.5-0.4c0.3-0.1,1.5,0.7,1.8,0.7
		c0.3,0,1.3,0.6,0.9,0.6c-0.2,0-0.4,0-0.7,0c-0.6-0.1-1.4-0.2-1.7-0.4c-0.5-0.3-0.7,0.2-1.4,0.3c-0.7,0.1-1.6,0.1-2.4,0.2
		c-0.8,0.1-0.7,0.5-0.7,0.8c0,0,0,0.1,0,0.1c0.1,0.2,0.5,0.3,1.2,0.2c0.8-0.1,2.4,0.4,3.6,0.7c1.2,0.2,1.7,0,2.2-0.1
		c0.5-0.1,1.4,0.9,2.1,1c0.6,0.1,0.5,0.2,0.1,0.2c-0.4,0-0.9,0-1.4-0.1c-0.5-0.1-1-0.2-1.4-0.1c-0.5,0.1-2.2,0.1-2.7-0.1
		c-0.5-0.2-1.6-0.2-2.1-0.5c-0.5-0.3-1.7,0-1.8,0.8c-0.1,0.6,0.5,0.4,1.1,0.2c0.6-0.2,3,1.1,3.5,1.4c0.5,0.3,1,0.2,2.7,0.3
		c1.4,0.1,2.4,0.8,2,0.9c0,0-0.1,0-0.2,0c-0.8,0-2.3-0.2-3.4,0c-1.1,0.2-3-0.5-4.2-1.1c-1.2-0.6-1.3,0.2-1.6,0.6c0,0,0,0.1-0.1,0.1
		c-0.1,0.3,0.1,0.8,0.1,1.1c0,0.1,0.1,0.2,0.3,0.2c0.3,0,0.8,0,1.2,0c0.5-0.1,3,0.2,3.3,0.3c0.3,0,1.8,0.6,1.7,0.8
		c-0.2,0.3-1.5,0.1-2.4-0.1c-0.8-0.1-3.3-0.1-3.8,0.1c-0.4,0.2-0.7,1.2-0.4,1.5c0.2,0.3,1.1,0,1.7-0.2c0.6-0.3,0.9,0.2,1.6,0.3
		c0.7,0.2,1-0.1,1.6-0.3c0.6-0.2,1.7,0.1,2.2,0.3c0.2,0.1,0.4,0.3,0.5,0.4c0.1,0.2,0,0.3-0.2,0.2c-0.4-0.2-0.7-0.1-1.4-0.3
		c-0.7-0.1-1.8,0.3-2.5,0.5c-0.8,0.2-2.1-0.1-2.7,0c-0.1,0-0.2,0.1-0.3,0.1c-0.5,0.2-0.9,0.5-0.9,0.8c0,0.1,0,0.2,0.1,0.3
		c0.4,0.4,2.2,0.2,2.8,0.1c0.7-0.2,2.7,0.8,2,1.1c-0.7,0.3-3.1-0.3-4.1,0.2c-0.3,0.1-0.3,0.3-0.2,0.5c0.1,0.3,0.6,0.7,0.8,0.6
		c0.3-0.1,1.4,0,1.9,0.3c0.5,0.3,1.7,0.3,2.2,0.2c0.5-0.1,1.5,0.4,1.7,0.5c0.2,0.1,1.2,0.9,1.6,1.2c0.4,0.2,0.3,0.5,0.3,0.5
		s-1.4-0.3-2-0.8c-0.5-0.4-1.7-0.7-2.2-0.6c-0.5,0-1.4,0-1.9-0.2c-0.4-0.2-1-0.1-1.5,0c-0.1,0-0.1,0-0.2,0c-0.5,0.2,0.3,1-0.2,1.2
		c-0.1,0.1-0.1,0.1-0.1,0.1c-0.1,0.2,0.5,0.3,0.8,0.3c0.4-0.1,2.3,0.3,3,0.3c0.7,0.1,2.3,1.1,2.7,1.4c0.4,0.3,0.2,0.5-0.1,0.4
		c0,0-0.1,0-0.1-0.1c-0.3-0.2-1.4-0.5-2-0.8c-0.5-0.2-2.7-0.5-3.5-0.6c-0.1,0-0.1,0-0.2,0c-0.7,0-1,0.4-1.3,0.7c0,0,0,0,0,0
		c-0.2,0.3,0.3,0.4,0.9,0.3c0.6-0.1,1.5,0.3,2.1,0.5c0.6,0.2,1.6,0.2,2,0.2c0.4,0.1,0.9,0.8,1.2,0.7c0.3,0,0.1,0.3,0,0.3
		c-0.2,0-0.6,0-1.1-0.2c-0.4-0.2-0.6-0.1-1-0.2c-0.4-0.1-0.9,0-1.3,0c-0.4,0.1-0.6-0.3-1.4-0.6c-0.9-0.3-2.4,0.8-2.7,1.2
		c0,0,0,0,0,0.1c-0.2,0.3,0.4,0.2,0.7,0.3c0.3,0.1,0.7,0,1,0.2c0.3,0.2,1,0.1,1.6,0.2c0.6,0,2.6,1.3,2.4,1.5c0,0,0,0,0,0
		c-0.1,0.1-0.2,0-1.4-0.5c-1.4-0.6-2.3-0.4-2.8-0.4c-0.5,0.1-1.4,0.9-1.9,1.3c-0.2,0.2-0.3,0.2-0.3,0.3c0,0,0.1,0.1,0.2,0.2
		c0.2,0.2,0.7,0,1.5-0.1c0.8-0.1,2.1,0.5,2.5,0.6c0.5,0.2,1.7,1.3,1.5,1.5c-0.2,0.2-1.3-0.6-2-0.8c-0.7-0.3-1.7-0.2-2.8-0.3
		c-1.2-0.1-2.2,1.5-2.3,1.7c-0.1,0.2,0.3,0.2,0.5,0.1c0.2-0.1,0.4,0.1,0.6-0.1c0.2-0.2,0.5,0.2,0.9,0.4c0.4,0.2,0.6,0.1,0.9,0.1
		c0.3,0,0.8,0.1,1.1,0.1c0.3,0.1,1.3,1.1,2.1,1.2c0.7,0.1,1.7,0.9,2,1.1c0.3,0.3,0.8,0.5,1.2,0.6c0.4,0.1,0.6,0.6,1,0.8
		c0.3,0.2,0.4,0.5,0.8,0.7c0.1,0,0.2,0.1,0.2,0.2c0.1-0.1,0.1-0.1,0.1-0.2c0,0,0,0,0,0c0,0,0,0,0,0c0,0,0,0,0,0c0,0,0-0.1,0-0.1
		c0,0,0-0.1-0.1-0.1c-0.1-0.3-0.1-0.8-0.2-1.3c-0.1-0.5,0.2-1.2,0.4-1.5c0.2-0.3,0.2-0.7,0.1-1.1c-0.1-0.4,0.3-0.8,0.4-1.1
		c0.1-0.3,0.3-0.6,0.3-1.1c0-0.5,0.5-0.8,0.9-1.3c0.4-0.6,0.3-0.6,0.2-1.1c0-0.5,0.3-0.7,0.5-1.5c0.3-0.8,0.5-1.6,0.3-1.8
		c-0.2-0.2,0.6-0.6,0.8-0.9c0.2-0.3,0.3-0.5,0.2-0.8c0-0.2,0-0.5,0.2-1c0.2-0.5,0.5-1.3,0.4-1.9c-0.1-0.6,0.3-1.1,0.5-1.9
		c0.2-0.8-0.1-2-0.1-2.6c0-0.6,0.4-1.3,0.5-1.7c0.1-0.4-0.3-1.6-0.4-2.1c-0.1-0.4,0.3-1.1,0.4-1.3c0.1-0.3-0.3-1-0.5-1.3
		c-0.2-0.3,0-1.5,0.1-1.9c0-0.4-0.3-1.1-0.5-1.4c-0.3-0.3-0.2-1.4-0.2-1.8c0-0.4-0.3-0.5-0.4-1.1l-0.6-2.1c-0.4-0.9-1.1-1-1.1-1
		s-0.4-5.3-0.6-9.3c-0.2-4,1.1-6.8,2.6-14c1.5-7.2,0.3-12.8,0.3-12.8s4.3,0.5,5-2.4c0.3-1.2-0.4-5.7-0.8-6.4
		C108.6,143.1,108.2,140.4,107.6,137.2z M98.6,225.5c-0.5-0.1-0.9-0.5-1.3-0.8c-0.4-0.2-0.6-0.1-0.9-0.1c-0.3,0-0.4-0.3-0.6-0.7
		c-0.2-0.3-0.8-0.4-1.5-0.7c-0.7-0.2-1.9-0.8-2.9-1c-1-0.1-1.7,0.1-1.9,0.1c-0.3,0-0.6-0.2-1-0.2c-0.4,0-0.8,0.4-1,0.7
		c-0.2,0.3,0.5,0,0.7-0.1c0.2-0.1,0.4,0.1,0.7,0.3c0.3,0.1,0.9,0.2,0.9,0.2l-0.5,0.6c0,0-0.4-0.1-0.7-0.1c-0.3,0-0.4-0.2-0.8-0.5
		c-0.3-0.3-0.9,0.2-1.3,0.9c-0.2,0.3-0.3,0.5-0.4,0.6c0.1,0,0.3,0,0.5,0c0.7,0,2.1-0.2,2,0c-0.1,0.2-0.3,0.6-0.4,0.6
		c-0.1,0-0.3,0-0.5,0.1c-0.3,0.1-0.6,0.2-0.7,0c-0.1-0.2,0-0.4-0.4-0.4c-0.4,0-0.6,0.2-0.9,0.3c0,0.1-0.1,0.2-0.1,0.4
		c0,0.1-0.1,0.2-0.2,0.4c0.6,0.1,1.3,0.2,1.3,0.2s0.7,0.1,0.4,0.3c-0.3,0.3-0.9,0.4-0.7,0.5c0.2,0.1-0.1,0.1-0.4-0.1
		c-0.3-0.2-0.7-0.4-0.6-0.5c0.1-0.1-0.2-0.1-0.4-0.1c-0.2,0.1-0.3,0.2-0.5,0.3c0,0,0,0-0.1,0c-0.2,0.5,1.6,0.8,1.7,1.1
		c0.1,0.3,0.2,0.7,0.5,0.8c0.3,0.1,1.1,1.1,1.2,1.4c0.1,0.3,2.4,0.9,3.5,1.2c1.1,0.3,0.9,0.8,2.1,1.4c1.2,0.7,0.9,2.7,0.9,2.9
		c-0.1,0.3-0.2-0.1-0.3-1c0-0.8-1.3-1.3-2.1-2.1c-0.8-0.8-3.4-1-4.6-1.5c-1.2-0.5-0.8-1-1.5-1.1c-0.8-0.1-0.7-0.4-0.6-0.8
		c0.1-0.4-0.1-0.4-0.6-0.5c-0.6-0.1-0.7,0.2-0.9,0c-0.2-0.1-0.2-0.4-0.3-0.6c-0.2,0.2-0.6,0.5-0.8,0.7c-0.3,0.2-0.3,0.7-0.3,0.9
		c0,0.2-4,1.6-4.8,1.6c-0.8,0.1-1.9,1-1.9,1s-0.5,0.8-0.5,1.4c0,0.8,1.2,0.6,1.6,0.5c0.3-0.2,0.5-0.1,0.8,0c0.2,0,0.8-0.2,2.2-0.4
		c1.3-0.2,3,0.3,4.1,0.5c1.1,0.2,4.8,1.4,4.8,1.4s-2.3-0.3-2.9-0.4c-0.7,0-3.4-0.7-4.7-0.8c-1.3-0.1-2,0.5-3.7,0.7
		c-1.7,0.3-1.3,0.5-0.5,0.7c0.8,0.2,2-0.3,4-0.4c1.6-0.1,4.2,0.7,4.9,1.1L97,237l4.1,0.2c0-0.3,0-0.7-0.1-1.1c0,0,0,0,0,0
		c0-0.2,0-0.3,0-0.5c0,0,0-0.1,0-0.1c0-0.2,0-0.3,0-0.5c0,0,0-0.1,0-0.1c0-0.2,0-0.3,0-0.4c0,0,0-0.1,0-0.1c0-0.1,0-0.3-0.1-0.4
		c0,0,0-0.1,0-0.1c0-0.1,0-0.3-0.1-0.4c0,0,0,0,0,0c0-0.1,0-0.3-0.1-0.4c-0.5-2.4-1.4-3.4-1.4-3.4s0,0,0,0c0,0,0,0,0-0.1
		c0,0,0,0,0,0c0,0,0,0,0,0c0,0,0,0,0,0c0,0,0,0,0-0.1c0,0,0,0,0,0c0-0.1,0-0.2,0-0.3c0,0,0,0,0,0c0.1-0.8,0.4-2.3,0.5-2.9
		c-0.1-0.1-0.3-0.3-0.4-0.4C99.3,225.7,99,225.6,98.6,225.5z M86.5,58.5c0.8-0.3,1.6,1.8,1.6,1.8s0.1-1.3,0.2-2
		c0.1-0.8,0.1-4.4,0.1-4.4s-2,0.5-3.2,1.4c-1.3,0.9-2.5,2.5-2.5,2.5s0.8,0.4,1.3,0.6C84.5,58.7,85.7,58.9,86.5,58.5z"/>
	<path class="st2" d="M70.6,40.6c0.1,0.4,0.4,0.8,0.6,1.2c0,0,0,0,0,0c0,0,0.1,0.1,0.1,0.1c0,0,0,0,0,0c0,0,0.1,0.1,0.1,0.1
		c0,0,0,0,0,0c0,0,0,0,0,0.1c0,0,0,0,0,0.1c0,0,0,0,0,0.1c0,0,0,0,0,0c0,0,0,0,0,0c0,0,0,0,0,0c0,0,0,0,0,0c0,0,0,0,0,0.1
		c0,0,0,0,0,0c0.2,0.4,0.4,1,0.4,1.3c0,0,1.7-1.1,3.6-2.4c4.3-2.7,12.9-4,13.7-4c1,0-0.7-0.4-3.1-0.1c-2.4,0.2-10.6,3.6-11.5,2.1
		c-0.5-0.8,7.2-4.6,8.6-4.9c1.3-0.3,1.5-0.5,2.5-0.7c0,0-0.1,0-0.1,0c-1-0.1-3.2-0.7-4.8-0.4c-1.6,0.3-2.8,1.4-2.8,1.4s0,0,0,0
		c0,0-0.1,0.1-0.2,0.2c0,0-0.1,0-0.1,0.1c-0.1,0.1-0.2,0.2-0.3,0.3c0,0,0,0-0.1,0.1c-0.9,0.7-2.5,1.9-3.3,2.6c0,0,0,0,0,0
		c0,0,0,0,0,0c0,0,0,0,0,0c0,0-0.1,0.1-0.1,0.1l0,0c0,0,0,0,0,0c0,0,0,0,0,0c0,0-0.1,0.1-0.1,0.1c0,0,0,0,0,0c0,0,0,0-0.1,0.1
		c0,0,0,0,0,0c0,0,0,0,0,0h0c0,0,0,0-0.1,0.1c-0.4,0.3-2.1,1.5-2.8,1.9c0,0-0.1,0-0.1,0.1c0,0-0.1,0.1-0.1,0.1l0,0c0,0,0,0.1,0,0.1
		l0,0c0,0,0,0.1,0,0.1l0,0C70.6,40.5,70.6,40.6,70.6,40.6L70.6,40.6z M62.6,88.1c0.3,0.2,1.2,0.2,1.5,0.2c0.4,0,0.6-0.2,0.2-0.2
		c-0.3,0-0.4-0.2-0.6-0.3c-0.2-0.1-0.2-0.6-0.4-0.7C63,87,63,87.2,62.9,87c-0.1-0.1-0.4-0.3-0.6-0.4c-0.2-0.2,0.3-0.3,0.3-0.5
		c0,0,0-0.1,0-0.1l0,0l0,0c-0.2,0.1-0.5,0.3-0.6,0.6l0,0c0,0,0,0,0,0c0,0,0,0,0,0c0,0,0,0.1-0.1,0.1l0,0c0,0,0,0,0,0h0
		c-0.1,0.1-0.1,0.2-0.2,0.3l0,0l0,0c0,0,0,0,0,0c0,0,0,0,0,0c0,0,0,0,0,0c0,0,0,0,0,0c0,0,0,0,0,0c0,0,0,0,0,0c0,0,0,0,0,0
		c0,0,0,0,0,0C62,87.3,62.3,88,62.6,88.1z M65,87c0.4,0.1,1.2,0.7,1.6,0.8c0.3,0.2,0.6,0.1,0.4-0.1c-0.2-0.2-0.4-0.2-0.7-0.3
		c-0.3-0.1-0.8-0.6-0.9-0.7c-0.1-0.2-0.6-0.6-0.8-0.7c-0.1,0-0.1-0.1-0.1-0.2c0,0,0,0-0.1,0c-0.6,0-0.6,0.3-0.6,0.3s0,0,0,0
		c0,0,0,0,0,0c0,0,0,0,0,0s0,0,0,0c0,0,0,0,0,0c0,0,0,0,0,0c0,0,0,0,0,0l0,0h0l0,0c0,0,0,0-0.1,0l0,0h0c0.1,0.2,0.4,0.3,0.6,0.4
		C64.4,86.5,64.6,86.9,65,87z M111.5,90.3c-0.3,0-0.6,0-0.5-0.3c0.1-0.5,1.1-1.4,1-1.5c-0.1-0.1-0.9,0.5-1.1,0.6
		c0,0-1.4,1.4-1.6,2.3c-0.2,0.8-0.8,2.2-1.2,2.5c-0.4,0.3-2.1,2.2-2.7,2.7c-2.2,1.6-5.2,5.3-6.3,4.3c-0.2-0.2-0.3-0.4-0.4-0.8
		c-0.1-0.7-2.1,0-3-0.4c-1-0.4-2-1.1-0.7-1.1c1.3-0.1,3.1,0.1,2.6-0.8c-0.5-0.9-2.4-1.8-1.9-2.6c0.5-0.8-0.2-0.5-0.8-0.5
		s-1.2-0.1-1.7-0.7c-0.5-0.6-1.4-1.5-1.5-2c-0.1-0.5-0.8-1-0.9-0.5c-0.1,0.5-0.2,1.3,0.2,1.5c0.4,0.2,0.6,0.4,0.3,0.9
		c-0.3,0.5,0,1.1,0.2,1.5c0.2,0.4-0.2,0.2-0.5,1.2c-0.3,1,0.5,2.4,0.1,2.6c-0.6,0.4-0.5,0.9-0.7,1.2c-0.1,0.1-0.2,0.2-0.5,0.2
		c-1.4-0.1-1.3-0.5-1.1-0.9c0.1-0.3,0.3-0.5,0.2-0.8C89,98,88.8,97.9,87,97.2c-1.2-0.5-1.9-1.2-2.4-1.5c0.4,0,0.9-0.1,1.3,0.2
		c0.4,0.4,1.3,1.1,1.8,0.7c0,0-1.2-1.8-1.7-1.9c-0.4-0.1-0.6-0.3-0.7-0.6c-0.1-0.3-1.2-0.7-1.5-0.5c-0.3,0.2-0.6,0.4-0.4,0.6
		c0.2,0.2,0.3,0.3,0.3,0.6c0,0.3,0.2,0.5,0.4,0.7c0,0-0.1,0-0.1,0.1c-0.3,0.4-0.7-0.1-1.5,0c-0.8,0-3-0.8-3.1-0.2
		c-0.1,0.7-0.4,2.7-0.6,2.7c-0.3,0-0.4-1.8-1-1.7c-0.9,0.2-0.9,2.3-2,2.6c-0.3,0.1,0.2-2.4-0.3-2.4c-1.2,0-1.5,0.4-1.8,0.9
		c-0.3,0.5-0.9,1.4-1.4,1.6c-0.5,0.2-0.2-1.1-0.6-0.6c-0.4,0.4-0.9,1.7-1,1.3c-0.1-0.4,0-2.6,0.4-2.9c0.4-0.3,1.3-1.3,1.8-1.3
		c0.1,0,0.2-0.1,0.2-0.1c0.4,0.1,1,0.1,1.4,0.1c0.6,0,1.6-0.2,2.3-0.6c0.7-0.4,1.5-0.2,2.3-0.2s2.9-1.2,2.9-1.2v-1.9
		c0,0-0.4,0.8-0.7,1.2c-0.3,0.4-1.1-0.2-1.7,0c-0.6,0.2-1.1,0-1-0.5c0.1-0.5,0.6-0.6,1.2-0.6c0.6,0,1.1,0,1.1,0s0.7-0.8,1.2-0.9
		c0.5-0.2,1.1,0.3,1.1,0.3s0.5,0,1-0.2l0,0.1c0,0,1.5-0.3,1.7,0.1c0.2,0.4,0.2,0.8,0.2,0.8s0.9-0.7,1.6-0.9c0.7-0.3,1.6-0.7,1.6-0.7
		s0,0,0,0c0,0,0,0,0,0c0,0,0,0,0,0s0,0,0,0c0.4,0,0.9-0.2,1.8-0.7c1.4-0.8,3.9,1.3,4.9,1.3c1,0,0.9-0.5-0.3-1.1
		c-1.2-0.6-2.8-1.2-3.2-1.1c-0.4,0.1-0.3-0.8,0.7-1.1c0.9-0.3,0.1-0.7-0.1-1.1c-0.2-0.4,1.2-3.2,1.6-4.2c0.4-1,2.4-4.8,4.3-5.4
		c1.9-0.6,4.5-2.9,2.4-3.3c-2.1-0.3-3.5-0.2-3-1.6c0.5-1.4-1-2.3-0.2-3.3c0.8-1,2.4-1.9,3.2-1.8c0.8,0.1,2.3-0.7,2.4-0.9
		c0.1-0.2-0.6-1.1-0.9-1.4c0,0-0.1,0-0.1,0c0,0,0,0,0,0c0,0-0.1,0-0.1,0c0,0-0.1,0-0.1,0c0,0-0.1,0-0.1,0c-0.1,0.1-0.3,0.3-0.3,0.5
		l0,0c0,0,0,0,0,0c0,0,0,0.1-0.1,0.2c-0.2,0.3-0.8,0.8-1.5,0.9c-0.8,0.1-1.1,0.1-2.3,1.3c-1.2,1.2-1.8,2.2-2.4,3.2
		c-0.7,1-2.1,1.3-2.8,1.6c-0.7,0.3-0.8,0.8,0.3,0.8c1.1,0.1,1.6-0.3,1.4,1.1c-0.2,1.4-0.2,5.5-0.9,7.2c-0.8,1.7-2.1,1.9-2.3,3.3
		c-0.2,1.3-1.2,2.9-1.6,4c-0.2,0.4-0.9,0.8-1.4,1.1c-0.4-0.3-0.8-0.4-1.1-0.1c-0.6,0.6-1.8,1.1-2.1,0.9c0.2,0,0-0.1-0.2-0.1
		c-0.2-0.1-0.4-0.2-0.6-0.3c-0.4-0.2-0.9-0.6-1.3-0.8c-0.7-0.5-0.7-0.8-0.3-1.9c0.3-1.2,0-2.4,0-2.4s-0.8,0.4-1.5,0.9
		c-0.7,0.5-0.5,3.5-0.5,3.5h-0.8c0,0,0.2-1.9,0.3-2.5c0.1-0.6,0.3-1.9,0.6-2.4c0.3-0.5,1.9-0.1,1.9-0.1s0-0.4,0.1-0.8
		c0.1-0.4,1.5,0,1.5,0s0.2-0.8,0.2-2.2c0-1.3,1.3-4.2,1.3-4.2c0.3-0.9-1.8,2-2.3,2.9c-0.5,0.9-0.6,0.1-0.3-1.1
		c0.3-1.2,0.8-1.7,0.8-1.7s-0.6,0.3-1.3,0.6c-0.7,0.3-2.1,0.1-2.7,0.2c0,0-0.1,0-0.1,0c0.2-0.3,0.5-0.6,1.1-0.9
		c1.1-0.4,1.8-0.7,1.9-0.9c0.2-0.2,0.2-0.2,0.8-0.3c0.4,0,1.2-0.4,1.8-0.7v0c0,0,0,0,0.1-0.1c0.2-0.1,0.4-0.3,0.5-0.4
		c0.9-0.7,2.6-2.1,3.5-2.6c1.2-0.7,3-1.9,3-1.9s-1.4,0.2-2.2,0.4c0-0.1-0.1-0.1-0.1-0.2l0,0c0,0,0,0,0.1,0c0.1,0,0.2-0.1,0.3-0.1
		c0,0,0,0,0,0c0,0,0,0,0.1,0c0,0,0.1-0.1,0.1-0.1c0,0,0.1,0,0.1-0.1c0,0,0,0,0,0l0,0c0,0,0,0,0,0v0c0,0,0,0,0,0c0,0,0,0,0,0
		c0,0,0,0,0,0v0c0,0,0,0,0,0c0,0,0,0,0,0c0,0,0,0,0,0h0c0,0,0,0,0,0l0,0c0,0,0,0,0,0l0,0h0c0,0,0,0,0,0l0,0c0,0,0,0,0,0l0,0
		c0,0,0,0,0,0c0,0,0,0,0,0c0,0,0,0,0,0v0c0,0-0.2-0.3-0.2-0.4c0,0-0.1-0.1-0.1-0.1c0,0-0.1,0-0.1,0l0-0.1l-0.1,0L90.8,70l0,0l0,0
		l-0.3,0.3l0,0l0,0l0.1-0.1l0-0.1l0,0l0.2-0.2l0-0.1l-0.1,0l-0.2,0.2l0,0l-0.1,0L90.2,70l0,0l0,0l0.2-0.3l0-0.1h0l0.2-0.3l0-0.1
		l-0.1,0.1l-0.1,0.3l0,0l-0.1,0l-0.2,0.4l0-0.1l0,0l0-0.1l0-0.1l0,0l0.1-0.2l-0.1-0.1l-0.1,0.1l-0.1,0.2c0,0,0,0,0,0l0,0l0,0.2l0,0
		l0,0l0-0.4l0-0.1l0,0l0-0.3l-0.1-0.1L89.3,69v0.3l0,0l0,0l0,0.4l0,0l0,0l0-0.1l0,0l0,0L89,69.4l-0.1-0.1l0,0.1l0.1,0.2l0,0l0,0
		l0,0.1l0,0c0,0,0,0,0,0c0,0,0,0,0,0c0,0,0,0,0,0l-0.2-0.4l-0.1,0l0,0l-0.1-0.3l-0.1-0.1l0,0.1l0.1,0.3l0,0l0,0.1l0.2,0.3l-0.1,0
		l0,0l-0.1-0.1l-0.1,0l0,0l-0.2-0.2l-0.1,0l0,0.1l0.2,0.2l0,0l0,0.1l0.1,0.1l-0.1,0l0,0.1L88,69.9H88c0,0,0,0,0,0l-0.2-0.2l-0.2,0
		l0,0.1l0.2,0.2l0,0l0,0.1l0.4,0.2l-0.1,0l0,0L88,70.4l-0.1,0l0,0l-0.2-0.1l-0.1,0l0.1,0.1l0.2,0.1l0,0l0,0l0.1,0l0,0l0,0l-0.4-0.1
		l-0.1,0l0,0l-0.3,0l-0.1,0.1l0.1,0.1l0.3,0l0,0l0,0l0.4,0l0,0l0,0l-0.1,0l-0.1,0l0,0l-0.2,0l-0.1,0.1l0.1,0.1l0.3,0l0,0l0,0l0.1,0
		l0,0l0,0l-0.4,0.1l0,0.1l0,0l-0.3,0.1l-0.1,0.1l0.1,0c0,0,0,0,0,0c0,0,0,0,0,0c0,0,0,0,0,0c0,0.1,0,0.1,0,0.1c0,0,0,0,0,0.1
		c0,0,0,0.1,0,0.1c0,0.1,0,0.1,0.1,0.2c0,0,0,0,0,0c0,0,0,0,0,0c0,0,0,0,0,0c0,0,0,0,0,0c0,0,0,0,0,0c0,0,0,0,0,0c0,0,0,0,0,0
		c0,0,0,0,0,0c0,0,0,0,0,0c0,0,0,0,0,0h0c0,0,0,0,0,0c0,0,0,0,0,0l0,0c0,0,0,0,0,0c0,0,0,0,0,0c0,0,0.1,0,0.1,0c0,0,0,0,0,0
		c0,0,0,0,0,0c0,0,0,0,0.1,0c0,0,0,0,0,0c0,0,0.1,0,0.1,0c0,0,0.1,0,0.1,0c0,0,0.1,0,0.1,0c0.1-0.1,0.2-0.1,0.3-0.2
		c0,0,0,0.1,0.1,0.2c0,0,0,0.1,0,0.1c0,0,0,0,0,0c0,0,0,0,0.1,0h0c0,0,0,0,0,0c-0.4,0.2-0.7,0.5-0.9,0.6c-0.3,0.1-0.7,0.5-1.2,0.8
		c-0.2-1.6-0.8-3.8,0.2-4.3c1.4-0.7,2.9-1.2,3.5-1.5c0.7-0.3,6.4-2.8,6.9-3c0.6-0.2,0.3-0.7-0.9-0.1c-1.1,0.6-6.4,2.1-6.9,2.2
		c-0.5,0.1-0.7,0.3-0.5-0.4c0.2-0.7,0.5-5.5,0.5-6.8c0-1.3,0.1-6,0.3-6.3c0.2-0.3,0.9-0.4,1.4-0.4c0.5,0,1.6,0.3,1.5,0.3
		c-0.1,0-0.4,0.2-0.2,0.5c0.2,0.3,0.2,1.4,0.5,1.7c0.3,0.4,2,0,1.7-1.5c-0.3-1.6-0.5-2.8-0.9-3.1c-0.5-0.2,0-0.8,0.4-0.5
		c0.4,0.3,1.1,1.8,1.2,2.7c0,0.8,0.7,0.9,1.3,0.9c0,0,0,0,0,0c0,0,0-0.1-0.1-0.1c0,0,0,0,0,0c0,0,0-0.1,0-0.1c0,0,0,0,0,0
		c0-0.2-0.1-0.4-0.1-0.6c0,0,0-0.1,0-0.1c0,0,0-0.1,0-0.1c0,0,0-0.1,0-0.1c0,0,0,0,0-0.1c0-0.1,0-0.2-0.1-0.2
		C96,51.4,96.4,52,97,51.6c0.6-0.4,2.5-1.9,3-2.6c0.5-0.8,1.8-1.3,3.7-2.1c0.1,0,0.2-0.1,0.3-0.1c0,0,0.1,0,0.1-0.1
		c0,0,0.1,0,0.1-0.1c0.8-0.5,1.3-1.3,1.6-2.1c0.1-0.2,0.1-0.5,0.2-0.7c0,0,0,0,0,0c-0.2-0.6-0.6-1.2-1.9-1.5c-2.7-0.7-4.6-1-6.1-0.6
		c-1.4,0.4-6.2,2.8-7.9,3.6c-1.7,0.7-10.3,5.3-12.2,6.2c-1.9,0.9-8.3,4.2-8.9,4.4c-0.6,0.2-1.8,0.4-2.7,0.8
		c-1.5,0.8-1.6,1.5-1.6,1.6c0,0,0,0,0.1,0c0.2,0,0.7-0.4,0.9-0.4c0.6-0.2,5.1-2.3,5.5-2.3c0.8,0,1.5-0.4,2.1-0.5
		c0.6,0,0.3,0.5,0.2,1.1c-0.1,0.5,0.3,0.7,0.4,1.3c0.1,0.6,0.3,0.2,0.6,0.3c0.3,0.1,0.9,1.1,1.2,1.2c0.3,0.1,0.5,0.5,0.8,1
		c0.2,0.5,0.1,2.1,0.4,2.6c0.3,0.5,1.4,1,1.9,1.2c0.5,0.3,1.2,1.9,1.3,2.3c0.1,0.4,0.6,0.7,0.6,0.7s0.1,0.3,0.2,0.8
		c0.1,0.5,0.3,0.5,0.6,0.6c0.3,0.1,0.6,0.8,0.5,1.4c-0.1,0.6,1,1.6,1.6,1.9c0.5,0.3,0,1,0.1,1.7c0.1,0.7-2.1,3.2-2.9,3.7
		c-0.1,0.1-0.2,0.1-0.2,0.2l0,0c0,0-0.1,0.1-0.1,0.1c0,0,0,0,0,0c-0.1,0.1-0.1,0.1-0.1,0.2c0,0,0,0,0,0c0,0,0,0.1,0,0.1c0,0,0,0,0,0
		c0,0,0,0.1,0,0.1c0,0,0,0,0,0c0,0,0,0.1,0,0.1c0,0,0,0,0,0c0,0,0,0,0,0.1c0,0,0,0,0,0c0,0,0,0,0,0.1c0,0,0,0,0,0c0,0,0,0,0,0
		c0,0,0,0,0,0.1c0,0,0,0,0,0c0,0,0,0,0,0.1c0,0,0,0,0,0c0,0,0,0,0,0.1c0,0,0,0,0,0c0,0,0,0.1,0.1,0.1l0,0l0,0
		c-0.1,0.1,0,0.1,0.1,0.2l0,0c0.2,0.2,0.6,0.6,0.4,1c-0.3,0.6-2.4,1.9-3.3,2.2c-0.9,0.3-1.2,1.3-1.6,2.2c-0.4,0.8-0.7,0.5-0.9-0.5
		c0.8-0.1,1.2-1.6,2-2.1c0.4-0.2,0.6-0.6,0.7-0.9l0,0c-0.2,0.1-0.3,0.1-0.5,0.2c0,0,0,0,0,0c-0.1,0-0.2,0.1-0.2,0.1c0,0,0,0,0,0
		c-0.2,0.1-0.3,0.1-0.5,0.2c0,0,0,0,0,0c-0.1,0-0.1,0-0.2,0.1c0,0,0,0,0,0c-0.1,0-0.1,0-0.2,0c0,0,0,0,0,0c-0.1,0-0.1,0-0.2,0
		c-0.7,0.2-1.6,1.3-2.1,1.8c-0.5,0.5-1.6,1.1-1.9,1.3c0,0,0,0,0,0c0.5,0.1,0.9,0.2,0.9,0.4c0.1,0.2,0.6-0.3,1.2-0.7
		c-0.3,0.4-0.7,0.9-1,1.4c-0.9,1-1.8,1.1-2.1,2.2c-0.3,1.1-0.8,1.2-0.3,1.2c0.6,0,0.8,1.4,1.3,2.7c0.5,1.2,0.9,3.3,1,3.8
		c0,0-0.1,0-0.1,0c-0.2,0.2-1.8,1.3-2,1.7c-0.2,0.3-0.5,0.6-0.8,0.5c-0.1,0-0.2-0.1-0.3-0.2c-0.3-0.5,0.3-1.2-0.6-1.6
		c-0.9-0.3-1.2,0.2-1.8,0.1c-0.6-0.1-0.4-0.8-1.6-1.5c-1.2-0.7-0.8-1.2-1.3-1.7c-0.5-0.5-1.3-0.6-1.1-1.4c0-0.1,0-0.2,0.1-0.4
		c0.1-0.7,0.3-1.5-0.4-1.5c-0.8,0-1.4-0.3-1.6-0.7c-0.2-0.5-1.1-0.6-0.8-1.2c0,0,0-0.1,0-0.1h0l0,0c-0.5,0.1-0.9,0.6-0.9,0.6
		s0,0-0.4,0c0,0,0,0,0,0c-0.3-0.1-0.6,0.4-0.7,1c0,0.1-0.1,0.7-0.1,0.8c0,0-0.1,0.2-0.1,0.2c0,0,0,0.1-0.1,0.2
		c-0.4-0.1-0.8-0.2-1.2,0.1c-0.3,0.2-0.4,0.7-0.5,1c-0.3,1-0.3,2.4-0.3,3.8c0,3.2-0.1,6.5-0.2,9.7c-0.1,0.1-0.3,0.3-0.4,0.4
		c-0.8,0.9-0.4,2.1-0.5,2.4c-0.1,0.3-0.5,1.1-1.3,2.4c-0.8,1.4-1.2,4.8-1.2,5.8c0,1,0.5,1.4,0.7,1.8c0.2,0.3,0.3,0.9,0.4,1.9
		c0.2,0.9,1.2,1.9,1.8,2.4c-0.4,2.2-1.1,4.2-1.8,6l0,0c0,0-0.2,0.5-0.4,1c0,0.1,0,0.1-0.1,0.2c-0.1,0.2-0.2,0.4-0.3,0.6
		c0,0,0-0.1,0-0.1c0-0.3-0.1-0.6-0.1-0.9c0-0.7-0.1-1.4-0.2-1.9c-0.3,0.1-0.6-0.1-0.9-0.1c-0.2,0-0.3,0.1-0.5,0.2
		c-0.3,0.1-0.8,0-1.1,0.2c-0.1,0.7,0.1,1.4,0.1,2.1c0.1,0.2,0.4,0,0.5,0.2c0.1,0.8,0.1,1.3,0.1,2.3c0,0,0,0,0,0
		c-0.1,0.1-0.3,0.1-0.4,0.2c0,0,0,0-0.1,0c0,0,0,0.1,0,0.1l-0.1,0l0.1,0.6c0,0.1,0,0.3,0,0.3c-0.2,0,0-0.3-0.2-0.3
		c-0.1,0-0.1,0-0.1,0c-0.2,0.1-0.2,0.3-0.3,0.4c-0.5,0-0.9,0.3-1.3,0.3c-0.1,0.3,0,0.7,0,1.1c0,0,0,0,0,0.1c-0.1,0.1-0.4,0-0.5,0.1
		c0,0,0,0.1,0,0.1c-0.2,0.6-0.7,1.2-1.2,1.6c-0.1,0.1-0.1,0.2-0.1,0.5c0.5,0,1.2-0.2,1.7,0c-0.3,0.1-1.1,0-1.4,0.2
		c0,0.2,0.3,0,0.3,0.1c-0.1,0.1-0.2,0.1-0.2,0.1c0.3,0.3,1.1,0,1.6,0c0.1,0.9,0.3,2.2,0.2,2.9c0,0.1,0,0.1,0,0.2
		c0,0.1-0.1,0.2-0.1,0.2c0,0,0,0,0,0c-0.1,0.6,0.2,1.3,0.2,2c0,0,0.1,0,0.1,0c0.1,0.1,0.1,0.2,0.1,0.2c0,0,0,0,0,0
		c0.6,0,1.1,0.3,1.5,0.6c-0.1,1,0.4,2.5,0.2,3.3c0,0.2-0.2,0.2-0.2,0.4c0.1,1.1,0.1,2.1,0.1,3.1c0,0.1,0,0.2,0,0.3
		c0,0.6,0,1.3,0.1,1.9c0,0,0,0,0,0c-0.1,0.1-0.4,0.2-0.5,0.3c0,0,0,0,0,0c0,0.6-0.2,1.9,0,2.5c0,0,0,0.1,0,0.1
		c0.1,0.1,0.2,0.1,0.3,0.2c0,0.1-0.1,0.2-0.1,0.3c-0.5,1.9-0.3,4.4-0.1,6.9c0.1,1.5,0.1,3.1,0.2,4.7c0.1,3.1,0.3,6.3,0.5,9.3
		c0.3,4.7,0.4,9.3,0.7,14c0.1,0.8,0.1,1.6,0.1,2.4c0,1.1,0,2.4,0.4,3.1c0,0.1,0.1,0.1,0.1,0.2c0,0.1,0,0.3,0,0.4
		c0,0.3,0,0.5,0.1,0.8c0,0.1-0.1,0.1-0.1,0.2c-0.1,0.2-0.1,0.3-0.1,0.5c-0.1,0.7,0.1,1.7,0.1,2.5c0.3,6,0.7,11.9,1,17.8
		c0,0.5,0.1,0.9,0.1,1.3c0,0.1,0,0.1,0,0.2c-0.1,0.2-0.1,0.4-0.2,0.6c0,0.1,0,0.2,0,0.3c0,0.3,0.2,0.6,0.3,0.9c0,0.1,0,0.1,0.1,0.2
		c0,0.1,0.1,0.3,0.1,0.5c0.1,0.9,0,2,0.1,2.9c0.1,1.2,0,2.4,0.2,3.3c0,0.2,0.1,0.5,0.2,0.7c0.1,0.2,0.3,0.4,0.4,0.6
		c0.1,0.3,0,0.7,0.1,1.1c0,0.1,0,0.3,0.1,0.4c-0.1,0-0.1,0-0.2,0l0,0.3l0.1,1.5l-1.3,0.1c-0.5,0-0.8,0.4-0.8,0.9l0,0.7
		c0,0.5,0.4,0.8,0.9,0.8l1.8-0.1c0.4,0.9,1.6,0.8,2.9,0.8c-0.2,0.1-0.2,0.4-0.1,0.7c-0.4,0-0.8,0.1-1.2,0.2
		c-1.6,0.4-2.6,3.2-2.8,3.4c0,0,0,0.1-0.1,0.1c0,0,0,0,0,0c0,0,0,0,0,0.1c0,0,0,0,0,0c0,0,0,0,0,0.1c0,0,0,0,0,0c0,0,0,0,0,0.1
		c0.1,0,0.1,0.1,0.2,0.1c0.2,0,0.4,0,0.7,0.1h0c6.9,0,46.3,0,46.3,0l-0.1-3.1h0L97,237l-11.2-0.5c-0.7-0.4-3.3-1.2-4.9-1.1
		c-2,0.2-3.2,0.6-4,0.4c-0.8-0.2-1.3-0.4,0.5-0.7c1.7-0.3,2.4-0.8,3.7-0.7c1.3,0.1,4,0.8,4.7,0.8c0.7,0,2.9,0.4,2.9,0.4
		s-3.7-1.1-4.8-1.4c-1.1-0.2-2.7-0.8-4.1-0.5c-1.3,0.2-1.9,0.4-2.2,0.4c-0.2,0-0.4-0.2-0.8,0c-0.3,0.2-1.5,0.3-1.6-0.5
		c0-0.7,0.5-1.4,0.5-1.4s1.1-0.9,1.9-1c0.8-0.1,4.7-1.4,4.8-1.6c0-0.2,0-0.7,0.3-0.9c0.2-0.2,0.6-0.5,0.8-0.7
		c0.1,0.2,0.1,0.5,0.3,0.6c0.2,0.1,0.3-0.2,0.9,0c0.6,0.1,0.7,0.2,0.6,0.5c-0.1,0.4-0.2,0.7,0.6,0.8c0.8,0.1,0.3,0.6,1.5,1.1
		c1.2,0.5,3.8,0.8,4.6,1.5c0.8,0.8,2.1,1.2,2.1,2.1c0,0.9,0.2,1.2,0.3,1c0.1-0.3,0.4-2.2-0.9-2.9c-1.2-0.7-1-1.1-2.1-1.4
		c-1.1-0.3-3.4-0.9-3.5-1.2c-0.1-0.3-0.9-1.4-1.2-1.4c-0.3-0.1-0.4-0.4-0.5-0.8c-0.1-0.3-1.9-0.6-1.7-1.1c0,0,0,0,0.1,0
		c0.1-0.1,0.3-0.2,0.5-0.3c0.2,0,0.5,0.1,0.4,0.1c-0.1,0.1,0.3,0.3,0.6,0.5c0.3,0.2,0.6,0.2,0.4,0.1c-0.2-0.1,0.4-0.2,0.7-0.5
		c0.3-0.3-0.4-0.3-0.4-0.3s-0.7-0.1-1.3-0.2c0.1-0.1,0.2-0.2,0.2-0.4c0-0.1,0.1-0.3,0.1-0.4c0.3-0.1,0.6-0.3,0.9-0.3
		c0.4,0,0.3,0.2,0.4,0.4c0.1,0.2,0.4,0.1,0.7,0c0.3-0.1,0.4-0.1,0.5-0.1c0.1,0,0.3-0.4,0.4-0.6c0.1-0.2-1.4,0-2,0
		c-0.2,0-0.3,0-0.5,0c0.1-0.1,0.1-0.3,0.4-0.6c0.4-0.6,0.9-1.1,1.3-0.9c0.3,0.3,0.5,0.4,0.8,0.5c0.3,0,0.7,0.1,0.7,0.1l0.5-0.6
		c0,0-0.6-0.1-0.9-0.2c-0.3-0.1-0.5-0.3-0.7-0.3c-0.2,0.1-0.9,0.4-0.7,0.1c0.2-0.3,0.6-0.7,1-0.7c0.4,0,0.7,0.3,1,0.2
		c0.3-0.1,0.9-0.2,1.9-0.1c1,0.1,2.2,0.7,2.9,1c0.7,0.2,1.3,0.3,1.5,0.7c0.2,0.3,0.3,0.7,0.6,0.7c0.3,0,0.5-0.1,0.9,0.1
		c0.4,0.2,0.8,0.7,1.3,0.8c0.5,0.1,0.8,0.2,0.9,0.3c0.1,0.1,0.3,0.2,0.4,0.4c0,0,0-0.1,0-0.1c0,0,0,0,0,0c0,0,0,0,0,0c0,0,0,0,0,0
		l0,0c0,0,0,0,0,0l0,0c0,0,0,0,0,0c0,0,0-0.1,0-0.1c0,0,0,0,0,0c0,0,0,0,0-0.1v0c0-0.1-0.1-0.1-0.2-0.2c-0.4-0.2-0.4-0.5-0.8-0.7
		c-0.3-0.2-0.6-0.7-1-0.8c-0.4,0-0.9-0.3-1.2-0.6c-0.3-0.3-1.2-1-2-1.1c-0.7-0.1-1.8-1.1-2.1-1.2c-0.3-0.1-0.8-0.1-1.1-0.1
		c-0.3,0-0.6,0.1-0.9-0.1c-0.4-0.2-0.7-0.6-0.9-0.4c-0.2,0.2-0.4,0-0.6,0.1c-0.2,0.1-0.6,0-0.5-0.1c0.1-0.2,1.1-1.8,2.3-1.7
		c1.2,0.1,2.2,0.1,2.8,0.3c0.7,0.3,1.8,1,2,0.8c0.2-0.2-1-1.3-1.5-1.5c-0.5-0.2-1.8-0.7-2.5-0.6c-0.8,0.1-1.3,0.4-1.5,0.1
		c-0.1-0.1-0.2-0.2-0.2-0.2c0,0,0.1-0.1,0.3-0.3c0.5-0.3,1.3-1.2,1.9-1.3c0.5-0.1,1.5-0.2,2.8,0.4c1.3,0.5,1.3,0.6,1.4,0.5
		c0,0,0,0,0,0c0.2-0.2-1.8-1.5-2.4-1.5c-0.6,0-1.3,0-1.6-0.2c-0.3-0.2-0.7-0.1-1-0.2c-0.3-0.1-0.7-0.1-0.7-0.3c0,0,0,0,0-0.1
		c0,0,0,0,0-0.1c0.3-0.3,1.9-1.5,2.7-1.2c0.9,0.3,1,0.6,1.4,0.6c0.4-0.1,0.9-0.1,1.3,0c0.4,0.1,0.5,0,1,0.2c0.4,0.2,0.9,0.2,1.1,0.2
		c0.2,0,0.3-0.3,0-0.3c-0.3,0-0.8-0.7-1.2-0.7c-0.4-0.1-1.4,0-2-0.2c-0.6-0.2-1.4-0.6-2.1-0.5c-0.6,0.1-1.1-0.1-0.9-0.3c0,0,0,0,0,0
		c0.3-0.3,0.6-0.7,1.3-0.7c0.1,0,0.1,0,0.2,0c0.8,0.1,3,0.3,3.5,0.6c0.5,0.2,1.6,0.5,2,0.8c0,0,0.1,0,0.1,0.1
		c0.3,0.1,0.4-0.1,0.1-0.4c-0.4-0.3-2-1.3-2.7-1.4c-0.7-0.1-2.7-0.4-3-0.3c-0.3,0-0.8-0.1-0.8-0.3c0,0,0.1-0.1,0.1-0.1
		c0.5-0.3-0.3-1.1,0.2-1.2c0,0,0.1,0,0.2,0c0.5-0.1,1.1-0.2,1.5,0c0.5,0.3,1.4,0.3,1.9,0.2c0.5,0,1.7,0.2,2.2,0.6
		c0.5,0.4,2,0.8,2,0.8s0.1-0.2-0.3-0.5c-0.4-0.2-1.5-1.1-1.6-1.2c-0.1-0.1-1.2-0.6-1.7-0.5c-0.5,0.1-1.7,0.1-2.2-0.2
		c-0.5-0.3-1.6-0.4-1.9-0.3c-0.2,0.1-0.7-0.3-0.8-0.6c-0.1-0.2,0-0.4,0.2-0.5c1-0.5,3.5,0.1,4.1-0.2c0.7-0.3-1.3-1.2-2-1.1
		c-0.6,0.1-2.4,0.3-2.8-0.1c-0.1-0.1-0.1-0.1-0.1-0.3c0-0.2,0.4-0.6,0.9-0.8c0.1,0,0.2-0.1,0.3-0.1c0.6-0.1,1.9,0.2,2.7,0
		c0.8-0.2,1.9-0.7,2.5-0.5c0.7,0.2,0.9,0,1.4,0.3c0.2,0.1,0.3,0,0.2-0.2c-0.1-0.2-0.2-0.4-0.5-0.4c-0.5-0.1-1.6-0.5-2.2-0.3
		c-0.6,0.2-0.9,0.5-1.6,0.3c-0.7-0.1-1-0.6-1.6-0.3c-0.6,0.3-1.4,0.5-1.7,0.2c-0.2-0.3,0-1.4,0.4-1.5c0.4-0.2,2.9-0.2,3.8-0.1
		c0.8,0.1,2.2,0.4,2.4,0.1c0.1-0.2-1.4-0.8-1.7-0.8c-0.3,0-2.8-0.4-3.3-0.3c-0.3,0.1-0.8,0.1-1.2,0c-0.2,0-0.3-0.1-0.3-0.2
		c0-0.3-0.2-0.8-0.1-1.1c0,0,0-0.1,0.1-0.1c0.3-0.3,0.4-1.2,1.6-0.6c1.2,0.6,3,1.2,4.2,1.1c1.1-0.2,2.5,0,3.4,0c0.1,0,0.1,0,0.2,0
		c0.4-0.1-0.5-0.8-2-0.9c-1.6-0.1-2.1-0.1-2.7-0.3c-0.5-0.3-2.9-1.6-3.5-1.4c-0.6,0.2-1.2,0.4-1.1-0.2c0.1-0.7,1.3-1,1.8-0.8
		c0.5,0.2,1.6,0.3,2.1,0.5c0.5,0.2,2.2,0.1,2.7,0.1c0.5-0.1,0.9,0,1.4,0.1c0.5,0.1,1,0.2,1.4,0.1c0.4,0,0.5-0.2-0.1-0.2
		c-0.6-0.1-1.6-1.1-2.1-1c-0.5,0.1-1,0.4-2.2,0.1c-1.2-0.2-2.8-0.7-3.6-0.7c-0.7,0.1-1.2,0-1.2-0.2c0,0,0-0.1,0-0.1
		c0-0.3-0.1-0.7,0.7-0.8c0.8-0.1,1.7-0.1,2.4-0.2c0.7-0.1,0.9-0.6,1.4-0.3c0.3,0.2,1.1,0.3,1.7,0.4c0.3,0,0.5,0,0.7,0
		c0.5,0-0.5-0.6-0.9-0.6c-0.3-0.1-1.5-0.9-1.8-0.7c-0.3,0.1-1.2,0.5-1.5,0.4c-0.3-0.1-1-0.2-1.5,0c-0.4,0.1-0.9-0.1-0.9-0.3
		c0,0,0-0.1,0.1-0.1c0,0,0,0,0.1-0.1c0.2-0.1,0.5-0.4,0.9-0.5c0.5-0.2,1.2-0.4,1.4-0.3c0.3,0.1,1.1-0.2,1.8-0.3c0.2,0,0.4,0,0.5,0
		c0.1,0,0.3,0.1,0.4,0.1c0.9,0.5,1.5,0.3,1.5,0.3s0.4,0-0.3-0.5c-0.8-0.5-2.7-0.5-3-0.5c-0.3,0-1.6-0.4-2-0.2
		c-0.4,0.2-1-0.1-0.8-0.3c0.2-0.2,1.2-0.4,1.3-0.5c0.1,0,1.3,0.1,2,0c0.7,0,1.3-1.1,2.3-0.8c0.9,0.2,0.8-0.7,1.8-0.8
		c1-0.1,1.3-0.6,1.6-0.3c0.3,0.3,0.1-0.5-0.6-0.4c-0.7,0-1.3,0.1-1.6,0c-0.3-0.1-1.4,0.6-2,0.7c-0.6,0-1.3-0.1-1.8,0
		c-0.5,0.1-1.4,0.1-1.8,0.1c-0.4-0.1-0.7-0.5-0.7-0.8c0-0.3,0.1-1.9-1.2-3.5c-1.3-1.6-2.5-4-2.2-4.5c0.3-0.6,0.9-1.5,2.1-0.4
		c1.2,1.1,1.8,1.4,1.9,1.1c0.1-0.3-0.6-1-0.1-1.1c0.5-0.1,1.4-0.1,1.8,0.3c0.4,0.4,1.5,0.4,1.9,0.3c0.4-0.1,0.9-1.3-0.4-1.7
		c-1.3-0.4-1.5-0.5-1.7-0.8c-0.3-0.3-0.4-2.5-1.5-2.7c-1.1-0.1-3.2-2-3.5-2.6c-0.4-0.6-1.9-2.1-2-3.1c-0.2-1-0.3-2.6-0.8-3.3
		c-0.6-0.7-1.4-1.3-0.9-1.7c0.5-0.4,2.6,0.6,3.2,1.6c0.6,0.9,1.3,1.2,2.5,1.8c1.2,0.5,1.2,0.3,1.8,0.9c0.6,0.6,1.6,1.4,2.5,1.1
		c2-0.7,2.8,1,3.2,0.5c0.3-0.3-0.4-1.9-1.2-2.6c-0.7-0.8-2.5-1.6-3.2-1.4c-0.7,0.2-0.9,0.3-1.4-0.2c-0.5-0.5-0.9-1.1-1.8-1
		c-0.9,0.1-2.2-0.7-2.9-1.6c-0.7-0.9-2.2-2.3-2.9-2.5c-0.8-0.3-2.5-1.9-1.9-2.7c0.6-0.8,1.5-0.2,2.3,0.6c0.9,0.8,2.6,0.8,2.6,0.5
		c0-1.6-2.3-2.3-3.4-4.2c-0.4-0.7-0.2-2.1-0.6-3.5c-0.4-1.4-0.7-2.7-1.4-4c-0.7-1.3-1.6-2-1.1-2.6c0.5-0.6,1.5-1.2,1.1-2.3
		c-0.3-1-0.5-2.7-0.3-2.6c0.2,0.1,1,0.3,1.3,0.1c0.3-0.2,1.3-0.2,2.1,0.1c0.8,0.3,1.1,0.4,2.1,0.2c1-0.2,2.5-0.7,3.8-0.7
		c1.2,0.1,1.9,0,2.6,0.5c0.7,0.6,0.9,0.5,1.6,0.7c0.6,0.2,2.4,0.1,3.5,0.7c1,0.6,1.8,1.4,2.1,2.3c0.3,0.9,0.1,1.4,0.7,1.6
		c0.6,0.2,1.2,0.2,1.6,0.4c0.4,0.2,0.4,0.3,0.2,1.2c-0.2,1-1.2,5-1.2,5.1c0,0,0,0,0.1,0c0.1,0,0.4-0.1,0.7-0.2
		c0.5-0.2,1.2-0.5,1.5-0.5c0.7-0.3,1.4-0.6,1.9-0.9c0.2-0.2,0.3-0.4,0.3-0.7c-0.2-0.8-0.4-1.5-0.4-2.2c0-0.7,0.3-3.2-0.9-4.3
		c0,0-3.1-2.3-4.3-2.5c-1.1-0.2-3.2-0.1-4.6-0.6c-1.3-0.5-3.1-2-5.1-1.9c-2.1,0-5.6-0.2-6.5,0.1c-0.9,0.3-1.8-0.2-2.6-0.4
		c-1.4-0.3-1.9-1.8-2-2.2c-0.1-0.3-0.5-1.7,2-1.9c2.5-0.2,2.8-0.5,3.6-0.1c0.8,0.5,2.2,1.2,3.1,1.2c0.9-0.1,2.9-0.2,4.1,0
		c1.2,0.2,1.9,0.3,2.3-0.3c0.4-0.6,0.7-1.3,0.4-2.1c-0.3-0.8-1.2-6.3-1.3-7.6c-0.1-1.3-1.7-5.8-2.1-6.3c-0.4-0.6-1.3-0.9-1.1-0.5
		c0.2,0.4,1.8,4.7,1.9,5.8c0.1,1.1,0.4,2.4,0.5,3.3c0.1,0.9,0.9,4.8,0.6,4.9c-0.3,0.2-0.9,0.2-1.5,0.3c-0.6,0.2-1.5,0.4-2.2,0.1
		c-0.7-0.3-0.5-0.3-1.6,0s-2,0.1-2.5-0.1c-0.5-0.2-3.4-0.4-4.5,0c-1,0.4-1.7,0.8-1.7,0.4c0-0.4,0-1.5-0.5-2
		c-0.6-0.4-1.3-1.2-0.7-2.1c0.6-0.8,1.4-1.5,0.6-2c-0.8-0.5-1.1-0.4-1.8-0.6c-0.7-0.2-1.2-0.6-1.1-1.5c0-0.8,0-2.3,0.5-2
		c0.5,0.3,1.4,0.2,1.6,1c0.2,0.8,1,1.4,1.5,1.6c0.5,0.2,0.8,0.2,0.5-0.6c-0.4-0.9-0.6-1.5-0.7-2.1c-0.1-0.6-0.5-1.6-0.9-1.8
		c-0.4-0.2-1.2-0.7-0.6-1.1c0.6-0.3,0.4-0.1,1-0.1c0.6,0,1.6,0.6,1.9,0.4c0.9-0.5-1.5-2.5,2-3.5c1.3-0.4,1.9-0.8,2.3-0.6
		c0.5,0.2,0.9,0.6,1.5,0.4c0.6-0.3,0.9-0.8,1.8-0.5c0.9,0.3,2,0.5,2.3,0.6c1.9,0.4,1.7-0.2,1.7-0.6c0-0.2-0.3-1.6-0.6-2.8
		c0.5-0.1,1.8-0.4,2.3,0.4c0.6,1,0.7,2,2.2,2.9c1.4,0.9,1.8,0.3,2.5,1.6c0.5,0.8,0.7,1.2,0.8,1.4c0-0.2,0-0.3,0-0.5c0,0,0-0.1,0-0.2
		c0,0,0,0,0,0c0-0.1,0-0.1,0-0.2c0,0,0,0,0,0c0-0.1,0-0.2,0-0.2c0,0,0,0,0,0c0-0.1,0-0.2,0-0.3c0,0,0,0,0,0
		c-0.2-0.4-0.5-0.7-0.7-1.1c-0.4-0.8-1.4-2-2.4-2.5c-1-0.5-2.1-1.9-2.7-2.2c-0.3-0.2-1.3-0.7-2-1.1c-0.1-0.1-0.1-0.2-0.1-0.3
		c0.1-0.2,0.1-0.3,0-0.3h0c0-0.1,0-0.2,0-0.3c0,0,0,0,0-0.1c0-0.3-0.3-0.7-0.8-0.9c-0.4-0.1-0.1-0.8,0.3-1.4c0.3,0,2.6,0.1,4.2,0.5
		c1.5,0.4,4.2,3.3,4.8,4c0.1-0.4,0.2-1.2,0.2-1.6c0,0,0,0,0,0l0,0c-0.4-0.3-1.3-1-1.7-1.6c-0.7-1-2.5-1.9-3.5-2.5
		c-0.5-0.3-1.2-0.3-1.8-0.4l-0.2-0.1c0,0,2.1-2.1,2.6-2.6c0.1-0.1,0.2-0.2,0.3-0.3c0,0,0,0,0,0c0,0,0.1-0.1,0.1-0.1c0,0,0,0,0,0
		c0,0,0,0,0-0.1c0,0,0,0,0-0.1c0,0,0,0,0,0c0-0.1,0.1-0.1,0.1-0.1l0,0c0.7-0.9,4.6-5.2,6.4-6.5c0.2-0.2,1.3-0.9,1.6-1.3
		c0.4-0.4,1.2-1,1.4-1.8c0.1-0.3,0.7-1.8,0.9-2.1c0.2-0.2,0.9-0.7,1.1-0.8C111.4,90.9,111.8,90.3,111.5,90.3z M82.6,57.9
		c0,0,1.3-1.6,2.5-2.5c1.3-0.9,3.2-1.4,3.2-1.4s0,3.6-0.1,4.4c-0.1,0.8-0.2,2-0.2,2s-0.8-2.1-1.6-1.8c-0.8,0.3-2,0.2-2.5-0.1
		C83.5,58.2,82.6,57.9,82.6,57.9z M58.7,130.1L58.7,130.1c0.3-1.3,0.7-2.6,1.1-4c0.2-0.8,0.4-1.7,0.7-2.5c1.7-0.7,3.9-2,3.9-2
		s0.3,1.3,0.4,2c0.1,0.7,0.3,1.9,0.2,2.4c0,0.6-0.3,1.2-0.4,2.3c-0.1,0.8-0.6,2.7-1,4.6c-0.1-0.5-0.4-1-0.7-1.4
		c-0.8-1-2.1-1.1-3.7-1c-0.1,0-0.3,0-0.4,0c-0.1,0-0.1,0-0.2,0c0-0.1,0-0.1,0-0.2c0,0,0,0,0,0c0,0,0,0,0,0
		C58.6,130.2,58.7,130.1,58.7,130.1z M63.1,138.5C63.1,138.5,63.1,138.5,63.1,138.5C63.1,138.5,63.1,138.5,63.1,138.5
		C63.1,138.5,63.1,138.5,63.1,138.5z M62.6,138.2c-0.2,0-0.5,0.1-0.5,0.1c0.2-0.3,0.4-0.4,0.7-0.6c0.1-0.1,0.2-0.3,0.3-0.4
		c0,0.3,0,0.6,0,1C62.8,138.2,62.6,138.2,62.6,138.2z M63.1,135.1c0,0.3-0.1,0.8,0,1.5c-0.4,0.8-1.2,1.4-2.1,1.5
		c-0.6,0.1-1.4,0-1.8-0.3c-0.3-0.2-0.3-0.4-0.3-0.7c0-0.3,0-0.9,0-1.2c0-0.2,0.2-0.5,0-0.6c-0.1,0.1-0.2,0.2-0.3,0.3
		c-0.1-0.1,0-0.4,0-0.5c1.1-0.3,1.3-1.6,2.5-1.8c0.2,0,0.4,0,0.5,0c0.5,0.1,0.7,0.4,1.1,0.6c-0.2-0.7-0.7-1.1-1.4-1.1
		c-1.2,0-1.7,1.1-2.6,1.4c-0.1-0.1-0.1-0.2,0-0.3c0-0.2,0-0.4-0.1-0.5c0,0,0-0.1,0-0.1c0.1-0.4,0.2-0.9,0.5-1.2
		c0.1-0.1,0.2-0.2,0.3-0.3c0.1-0.1,0.1-0.2,0.2-0.3c0.2-0.2,0.9-0.4,1.3-0.4c1.5,0.1,2.2,1.2,2.5,2.5
		C63.3,134.1,63.2,134.6,63.1,135.1z M58.5,160.4c0-2.7,0.2-5.4,0.1-8c0-0.2,0-0.4,0-0.7c0.1,0,0.2,0,0.3,0c0.5-0.2,0.6-0.8,0.2-1.1
		c0,0-0.1-0.1-0.2-0.1c-0.1,0-0.2-0.1-0.3-0.1v-0.2c0.1-0.1,0.2-0.1,0.3-0.1c0.1,0,0.3-0.1,0.4-0.1c0.7-0.2,1.4-0.3,1.7-0.7
		c0.4-0.6,0.6-1.6,0.9-2.4c0.1-0.2,0.1-0.4,0.2-0.6c0-0.1,0.1-0.2,0.1-0.3c0-0.1,0.1-0.2,0.1-0.4c0-0.1,0.1-0.2,0.1-0.3
		c0.4-1.1,0.7-2.1,1.1-3.2c0.1,1.2,0.2,2.4,0.3,3.5c-0.1,0.5-0.2,1-0.3,1.4c-0.1,0.4-0.3,0.7-0.4,1c-0.6,1.9-0.6,4.4-1.1,6.5
		c-0.2,1-0.4,2.1-0.6,3.2c-0.3,1.1-0.4,2.2-0.5,3.3c-0.1,1.2-0.1,2.4-0.2,3.6c-0.1,1.2-0.1,2.4-0.2,3.6c-0.1,2.4-0.1,4.8-0.2,7.1
		c0,0.9-0.1,1.6-0.1,2.3c0,0.6,0,1.2,0,1.8c-0.1,2.6-0.7,5.1-1,7.5c0,0.3-0.1,0.8-0.2,0.8c0.1-1.5,0.1-3.1,0-4.7
		C58.6,175.4,58.4,167.5,58.5,160.4z M58.5,150.9c0,0,0-0.1,0-0.1c0.1,0,0.2,0,0.3,0l0,0.6c-0.1,0-0.2,0.1-0.3,0.1c0,0,0-0.1,0-0.1
		L58.5,150.9z M58.8,194.7C58.9,194.7,58.9,194.7,58.8,194.7l0.2,0.2c0,0-0.1,0-0.1,0c0,0-0.1,0-0.1-0.1
		C58.8,194.8,58.8,194.8,58.8,194.7z M76.9,223.8c-0.4,0.9-0.5,0.8-0.9,1.3c-0.4,0.5,0,0.7,0,0.7s-0.4,0.7-0.8,0.9
		c-0.3,0.3-0.7,0.9-0.7,0.9s-0.5,0.3-0.8,0.4c-0.2,0.1-0.1,0.5-0.1,0.5s-1,0.4-1.6,0.8c-0.7,0.4-0.3,0.6-0.3,0.8
		c-0.1,0.2-0.6,0-1,0.1c-0.3,0-1.8,1.3-2.7,2c-0.9,0.7-1.3,1.8-1.3,1.8s-3.4,1.7-4.6,2c-0.5,0.1-1.2,0.2-1.9,0.2c0-0.2,0-0.4,0-0.6
		c0,0,0-0.1,0-0.1c0-0.1,0-0.2,0-0.2c0,0,0-0.1,0-0.1c0-0.2,0-0.4,0-0.6c0-0.1,0-0.2,0.1-0.3c0-0.2-0.1-0.3-0.1-0.5
		c-0.2-0.8-0.2-1.6-0.2-2.3c-0.1-1.7-0.1-3.5-0.3-5.2c0-0.2,0.1-0.3,0.1-0.3c0,0,0-0.1,0-0.1c0-0.1,0.1-0.2,0.1-0.3c0,0,0-0.1,0-0.1
		c0-0.3,0-0.6,0.1-1c0,0,0,0-0.1-0.1c0-0.1-0.1-0.1-0.1-0.2c0-0.6-0.3-1.5,0-2c-0.1-0.1,0-0.2-0.2-0.2c0-0.1,0-0.2,0-0.3
		c0-0.2,0-0.3,0-0.5c0.1,0,0.1-0.1,0.2-0.1c0.4-0.2,0.7-0.4,0.6-0.9c0.4,0.7,1.8-0.1,1.9-0.8c0-0.2-0.1-0.5-0.1-0.7
		c0-0.4,0-0.8-0.2-0.9c-0.9-0.1-1.6,0.4-1.6,1.3c-0.3-0.2-0.5-0.5-1-0.5c-0.4-7.2-0.4-14.2-0.6-21.4c0-0.1,0-0.3,0-0.4
		c0.2-0.1,0.5-0.2,0.7-0.4c0.1-0.1,0.2-0.3,0.1-0.6c0.2-0.2,0.3-0.5,0.3-0.9c1.3-0.4,1.4-2.3,1.6-3.8c0.1-1.5,0.2-2.8,0.3-4.1
		c0.1-1.4,0.2-2.8,0.3-4.1c0.1-1.4,0.3-2.8,0.3-4.1c0-0.2,0.2-0.1,0.2-0.3c0-0.3-0.1-0.4-0.2-0.5c0.2-1.6,0.3-3.1,0.4-4.7
		c0.1-0.5,0-1,0.1-1.5c0.1-0.4,0.2-0.8,0.2-1.1c0-0.4,0-0.9,0-1.3c0.2-2.6,0.4-5.3,0.7-7.9c0.1-1.3,0.4-2.6,0.5-4
		c0.1-1.3,0.4-2.6,0.5-3.9c0-0.8,0.1-1.5,0.1-2.3c0.1,1.1,0.3,4.5,0.3,5.5c0,1.1,0.7,4.7,0.9,8.2c0.3,3.5,2,11.1,2.1,11.7
		c0.1,0.6,0.2,2.1,0.2,3.2s1.2,2.7,1.9,3.3c0.7,0.6,1.4,1.9,1.6,2.3c0.3,0.3,0.2,0.9,0.2,1.6c0,0.7,1.3,3.2,1.7,4.1
		c0.4,0.9,0.9,1.7,1.5,2.8c0.6,1.1,0.3,1.2,0,1.7c-0.3,0.5,0.2,0.6,0.2,0.6s0,2.6,0,3.4c0,0.8,0.2,0.9,0.3,1.4
		c0.2,0.5-0.1,5.2-0.2,5.5c-0.1,0.3,0,0.8,0.2,1.1c0.2,0.3,0.2,1.9,0.2,3.1c0,1.2,0.2,1.3,0.3,1.5c0.1,0.1,0,0.4,0,1
		c-0.1,0.6,0.1,1,0.2,1.3c0.1,0.3,0.1,0.7,0,1.1c-0.1,0.4,0.3,1,0.4,1.5c0.1,0.5,0,1.2-0.1,1.8c0,0.6,0.3,1.5,0.4,2.1
		c0,0.6-0.4,0.6-0.5,1.1C76.8,222.5,77.3,222.9,76.9,223.8z M61.8,218.3c0.3,0.7,0,1.5-0.7,1.6C60.8,219,61.1,218.3,61.8,218.3z
		 M94.2,111.4C94.2,111.4,94.2,111.4,94.2,111.4c0,0.3,0.4,2.5,0.4,2.8c0,0.4,0.3,1.5,0.3,1.7c0,0.1,0,0.1-0.3,0.2
		c-0.3,0.1-0.6,0.3-1.1,0c-0.5-0.3-1.4-0.8-2.2-0.7c-0.8,0.1-2,0.6-2.5,0.5c-0.4-0.1-1.2-0.5-1.6-0.3c-0.4,0.2,1.5-0.6,1.9-1.1
		c0.5-0.4,1.4-1.9,1.9-2c0.4-0.1,0.8-0.6,1.1-1.1c0,0,0.1-0.1,0.1-0.1l0.2-0.5c0.3,0.1,0.9,0.5,1.2,0.5
		C93.9,111.3,94.1,111.4,94.2,111.4z M70.2,88.5c0,0,0.3-2.1,0.6-2.5c0.3-0.4,0.6-1.3,0.6-1.3h0c0,0,0,0,0,0c0,0-0.1,0.1-0.1,0.1
		c0,0,0,0,0,0c0,0-0.1,0.1-0.1,0.1c0,0,0,0,0,0c0,0-0.1,0.1-0.1,0.1c-0.1,0-0.1,0.1-0.2,0.2c0,0-0.1,0.1-0.1,0.1c0,0,0,0,0,0
		c0,0-0.1,0.1-0.1,0.1c0,0,0,0,0,0c0,0-0.1,0.1-0.1,0.1c0,0,0,0,0,0c0,0.1-0.1,0.1-0.1,0.2c0,0,0,0,0,0c0,0.1-0.1,0.1-0.1,0.2
		c0,0,0,0,0,0c0,0.1-0.1,0.1-0.1,0.2c0,0,0,0,0,0c0,0.1-0.1,0.1-0.1,0.2c0,0,0,0,0,0c0,0.1-0.1,0.1-0.1,0.2c0,0,0,0,0,0
		c0,0.1-0.1,0.1-0.1,0.2c0,0,0,0,0,0c0,0.1-0.1,0.1-0.1,0.2c0,0,0,0,0,0c0,0.1,0,0.1-0.1,0.2c0,0,0,0,0,0c0,0.1,0,0.1-0.1,0.2
		c0,0,0,0,0,0c0,0.1,0,0.1-0.1,0.2c0,0,0,0,0,0c0,0.1,0,0.1,0,0.2l0,0c0,0.1-0.1,0.2-0.1,0.2c0,0,0,0,0.1,0.1
		C69.7,88.6,70.2,88.5,70.2,88.5z M89.4,77.4c1-0.2,1.3-0.1,2-0.2c0.8-0.1,0-0.8-0.3-1.4c-0.3-0.6-0.8,0-1.4,0.3
		c-0.4,0.2-0.8,0.3-1.1,0.4c0.6-1,1.4-2.1,0.9-1.5c-0.7,0.9-1.5,1.3-2.4,3.5c-0.8,2.2-1,5.6-0.5,5.9c0.5,0.3,3.1,0.1,3.1,0.1
		c0.9-1.2-2.4-0.8-2.7-1.3c-0.3-0.4,0.5-4.1,0.9-5.5C88.2,77.7,88.7,77.5,89.4,77.4z M85,88.2c0,0.5,0.5,1,1,1c0.6,0,1-0.4,1-1
		c0-0.5-0.5-1-1-1C85.5,87.2,85,87.7,85,88.2z M84.8,43.1c0-0.1-0.1-0.1-0.1-0.1c0,0-0.1,0-0.1,0l0-0.2l-0.2,0l-0.4,0.3l0-0.1h-0.1
		l-0.5,0.4l0-0.1l-0.1,0l0.1-0.1l0-0.1l-0.1,0l0.3-0.2l0-0.2l-0.2,0l-0.2,0.3l0-0.1l-0.1,0l-0.1,0.2l0-0.1l-0.1,0l0.4-0.5l0-0.1
		l-0.1,0l0.3-0.4l-0.1-0.2l-0.2,0.1l-0.2,0.4l0,0l-0.1,0l-0.3,0.6l0-0.1l-0.1,0l0.1-0.2l0-0.1l-0.1,0l0.1-0.4L82.3,42l-0.1,0.1
		l-0.1,0.4c0,0,0,0,0,0l-0.1,0l-0.1,0.3l-0.1-0.1l0,0l0.1-0.7l-0.1-0.1l-0.1,0l0-0.4l-0.2-0.2l-0.2,0.2l0,0.5l-0.1,0L81.4,42l0,0.7
		l-0.1,0l-0.1,0.1l0-0.2l-0.1-0.1l-0.1,0.1L81,42l-0.2-0.1l-0.1,0.2l0.1,0.4l-0.1,0l0,0.1l0.1,0.2l-0.1,0c0,0,0,0,0,0c0,0,0,0,0,0
		c0,0,0,0,0,0.1l-0.2-0.6l-0.1-0.1l0,0.1l-0.2-0.5L80,41.7l-0.1,0.2l0.2,0.4l-0.1,0l0,0.1l0.3,0.5l-0.1,0l0,0.1l-0.1-0.2l-0.1,0
		l0,0.1l-0.3-0.3l-0.2,0l0,0.2l0.2,0.3l-0.1,0l0,0.1l0.2,0.2l-0.1,0l0,0.1L79.4,43l-0.1,0c0,0,0,0,0,0l-0.4-0.3l-0.3,0l0.1,0.2
		l0.4,0.2l0,0l0,0.1l0.6,0.3l-0.1,0l0,0.1l-0.2-0.1l-0.1,0l0,0l-0.3-0.1l-0.2,0.1l0.1,0.2l0.4,0.1l0,0l0,0.1l0.2,0.1l-0.1,0.1l0,0.1
		l-0.6-0.1l-0.1,0.1l0,0l-0.5-0.1L78,44.4l0.2,0.2l0.5,0l-0.1,0.1l0.1,0.1l0.7,0l-0.1,0.1l0,0l-0.2,0L79,45l0,0l-0.4,0l-0.1,0.2
		l0.1,0.1l0.4-0.1l0,0.1l0.1,0.1l0.2,0l0,0.1l0.1,0l-0.6,0.2l-0.1,0.1l0,0l-0.4,0.1l-0.1,0.2l0.2,0.1c0,0,0,0-0.1,0.1c0,0,0,0,0,0
		c0,0,0,0,0,0c0,0.1,0,0.1,0,0.2c0,0,0,0.1,0.1,0.1c0,0.1,0.1,0.1,0.1,0.2c0,0.1,0.1,0.2,0.1,0.3c0,0,0,0,0,0c0,0,0,0,0,0
		c0,0,0,0,0,0c0,0,0,0,0,0c0,0,0,0,0,0c0,0,0,0,0,0c0,0,0,0,0,0c0,0,0,0,0,0c0,0,0,0,0,0c0,0,0,0,0,0h0c0,0,0,0,0,0c0,0,0,0,0,0h0
		c0,0,0,0,0,0c0,0,0,0,0,0c0,0,0.1,0,0.1,0c0,0,0,0,0,0c0,0,0,0,0,0c0,0,0.1,0,0.1,0c0,0,0,0,0,0c0.1,0,0.1,0,0.2-0.1
		c0.1,0,0.1,0,0.1-0.1c0.1,0,0.1,0,0.2-0.1c0.2-0.1,0.4-0.2,0.5-0.3c0,0.1,0.1,0.2,0.1,0.2c0,0,0,0.1,0,0.1c0,0,0,0,0,0.1
		c0,0,0.1,0.1,0.1,0.1h0c0,0,0,0,0,0h0c0,0,0,0,0,0c0,0,0.1,0,0.1,0c0,0,0,0,0,0c0.1,0,0.1,0,0.2,0c0.2,0,0.3-0.1,0.5-0.2
		c0.4-0.1,0.7-0.3,1.1-0.5l0.1-0.1c0.1,0,0.1-0.1,0.2-0.1c0.5-0.3,0.9-0.5,1.3-0.9c0,0,0.1-0.1,0.1-0.1c0,0,0-0.1,0-0.1c0,0,0,0,0,0
		h0l0,0c-0.1-0.1-0.1-0.2-0.2-0.3l0,0c0,0,0.1,0,0.1,0c0.2-0.1,0.3-0.1,0.4-0.2c0,0,0,0,0.1,0c0,0,0.1,0,0.1-0.1
		c0.1-0.1,0.2-0.1,0.2-0.2c0,0,0.1-0.1,0.1-0.1c0,0,0,0,0,0l0,0c0,0,0,0,0,0l0,0c0,0,0,0,0,0c0,0,0,0,0,0c0,0,0,0,0,0l0,0
		c0,0,0,0,0,0c0,0,0,0,0,0c0,0,0,0,0-0.1l0,0c0,0,0,0,0,0l0,0c0,0,0,0,0,0l0,0l0,0c0,0,0,0,0,0l0,0c0,0,0,0,0,0l0,0c0,0,0,0,0-0.1
		c0,0,0,0,0,0c0,0,0,0,0,0v0C85.1,43.6,84.8,43.2,84.8,43.1z"/>
	<g>
		<path class="st2" d="M56.6,452.1h14.8L84,422.4h43.4l12.3,29.7h15l-48.5-112.9L56.6,452.1z M106,371.2l16.1,38.5H89.6L106,371.2z"
			/>
		<polygon class="st2" points="245.2,423.3 163.7,337.8 163.7,452.8 178.8,452.8 178.8,374.8 260.3,460.1 260.3,344.8 245.2,344.8 
					"/>
		<polygon class="st2" points="277.3,344.8 277.3,359.1 325.8,359.1 268.7,452.8 348.4,452.8 348.4,438.6 294.1,438.6 351.3,344.8 
					"/>
		<path class="st2" d="M355.3,452.8h16.5l12.6-29.7h42.4l12.3,29.7h16.6l-49.6-115.6L355.3,452.8z M405.9,373.1l14.9,35.8h-30.2
			L405.9,373.1z"/>
		<path class="st2" d="M506.5,357.3c11.3,0,22.5,4.9,30.7,13.4l2.9,3v-19.5l-0.7-0.5c-9.6-7.1-20.1-10.6-32.2-10.6
			c-31,0-56.2,25.2-56.2,56.2c0,30.5,25.2,55.4,56.2,55.4c11.3,0,22.8-3.8,32.2-10.6l0.7-0.5v-19.4l-2.9,2.9
			c-8.5,8.5-19.6,13.4-30.4,13.4c-22.1,0-40.7-19-40.7-41.6C466,376.3,484.6,357.3,506.5,357.3z"/>
	</g>
	<g>
		<path class="st2" d="M68.6,511.1h-5v-35.5h-9.5v-4.6h24v4.6h-9.5V511.1z"/>
		<path class="st2" d="M113.4,487.2v-16.1h5v40h-5v-19.2H94.3v19.2h-5v-40h5v16.1H113.4z"/>
		<path class="st2" d="M133.3,471.1h21.5v4.6h-16.5v11.2h16v4.6h-16v15.1h16.5v4.6h-21.5V471.1z"/>
		<path class="st2" d="M209.5,478.7c-1.5-2.5-3.4-3.8-6.4-3.8c-3.2,0-6.7,2.2-6.7,5.7c0,3.1,3.1,4.8,5.6,5.7l2.9,1.1
			c5.7,2.2,9.9,5.4,9.9,12.1c0,7.3-5.6,12.5-12.8,12.5c-6.5,0-11.5-4.8-12.4-11.2l5-1.1c-0.1,4.4,3.5,7.6,7.8,7.6
			c4.3,0,7.4-3.6,7.4-7.8c0-4.3-3.5-6.2-6.9-7.6l-2.8-1.2c-4.6-2-8.7-4.6-8.7-10.1c0-6.5,5.7-10.4,11.8-10.4c4.5,0,8.1,2.2,10.3,6.1
			L209.5,478.7z"/>
		<path class="st2" d="M232.9,511.1h-5v-40h5.7c12.3,0,16.1,4.3,16.1,11.6c0,8.4-6.4,11.7-14,11.7h-2.9V511.1z M232.9,489.9h1.6
			c5.1,0,10.6-1,10.6-7.3c0-6.3-5.9-7-10.9-7h-1.3V489.9z"/>
		<path class="st2" d="M266.7,511.1h-5v-40h5V511.1z"/>
		<path class="st2" d="M306.8,511.1h-6.1L289,494.2h-2.1v16.9h-5v-40h6.1c3.6,0,7.4,0.1,10.6,1.9c3.3,2,5.3,5.7,5.3,9.6
			c0,5.7-3.8,10.5-9.6,11.2L306.8,511.1z M286.9,490.1h1.6c5.1,0,10.6-1,10.6-7.3c0-6.3-5.9-7.2-10.9-7.2h-1.3V490.1z"/>
		<path class="st2" d="M323.3,511.1h-5v-40h5V511.1z"/>
		<path class="st2" d="M349.2,511.1h-5v-35.5h-9.5v-4.6h24v4.6h-9.5V511.1z"/>
		<path class="st2" d="M398.4,506.6h12.2v4.6h-17.2v-40h5V506.6z"/>
		<path class="st2" d="M426.4,511.1h-5v-40h5V511.1z"/>
		<path class="st2" d="M454.8,500.7l11.9-29.6h5.5l-17.4,42.2l-17.4-42.2h5.5L454.8,500.7z"/>
		<path class="st2" d="M483.2,471.1h21.5v4.6h-16.5v11.2h16v4.6h-16v15.1h16.5v4.6h-21.5V471.1z"/>
		<path class="st2" d="M536.4,478.7c-1.5-2.5-3.4-3.8-6.4-3.8c-3.2,0-6.7,2.2-6.7,5.7c0,3.1,3.1,4.8,5.6,5.7l2.9,1.1
			c5.7,2.2,9.9,5.4,9.9,12.1c0,7.3-5.6,12.5-12.8,12.5c-6.5,0-11.5-4.8-12.4-11.2l5-1.1c-0.1,4.4,3.5,7.6,7.8,7.6
			c4.3,0,7.4-3.6,7.4-7.8c0-4.3-3.5-6.2-6.9-7.6l-2.8-1.2c-4.6-2-8.7-4.6-8.7-10.1c0-6.5,5.7-10.4,11.8-10.4c4.5,0,8.1,2.2,10.3,6.1
			L536.4,478.7z"/>
	</g>
	<g>
		<path class="st2" d="M57.6,259.3h9.9l16.9,29.5l16.9-29.5h9.9l-22.5,39v30h-8.6v-30L57.6,259.3z"/>
		<path class="st2" d="M129.5,259.3h37.1v7.9h-28.5v19.3h27.6v7.9h-27.6v26.1h28.5v7.9h-37.1V259.3z"/>
		<path class="st2" d="M199.2,311l-7.9,17.3h-9.2l32.9-71.9l32.9,71.9h-9.2l-7.9-17.3H199.2z M215,275.2l-12.3,27.9h24.5L215,275.2z
			"/>
		<path class="st2" d="M308.9,328.3h-10.4l-20.3-29.2h-3.6v29.2H266v-69h10.4c6.1,0,12.7,0.1,18.2,3.2c5.8,3.4,9.1,9.9,9.1,16.5
			c0,9.9-6.6,18.1-16.6,19.3L308.9,328.3z M274.6,292h2.7c8.8,0,18.3-1.6,18.3-12.6c0-10.8-10.2-12.4-18.8-12.4h-2.3V292z"/>
		<path class="st2" d="M358.6,272.4c-2.6-4.3-5.9-6.5-11.1-6.5c-5.5,0-11.5,3.8-11.5,9.8c0,5.4,5.3,8.2,9.6,9.9l4.9,1.9
			c9.8,3.8,17.1,9.2,17.1,20.8c0,12.5-9.7,21.5-22,21.5c-11.2,0-19.9-8.2-21.3-19.3l8.7-1.8c-0.1,7.6,5.9,13.1,13.4,13.1
			c7.4,0,12.7-6.2,12.7-13.5c0-7.4-5.9-10.6-11.9-13.1l-4.8-2c-7.9-3.4-15-7.9-15-17.5c0-11.2,9.9-17.8,20.3-17.8
			c7.7,0,14,3.8,17.7,10.4L358.6,272.4z"/>
		<path class="st2" d="M486.3,293.8c0,20.5-16.2,36-36.1,36c-19.9,0-36.1-15.5-36.1-36c0-19.8,16.4-36,36.1-36
			C469.9,257.9,486.3,274.1,486.3,293.8z M477.7,293.8c0-15.2-11.3-27.9-27.5-27.9c-16.2,0-27.5,12.7-27.5,27.9
			c0,15.7,12.6,27.9,27.5,27.9S477.7,309.6,477.7,293.8z"/>
		<path class="st2" d="M515.4,267.2v19.4h24v7.9h-24v33.9h-8.6v-69h33.4v7.9H515.4z"/>
	</g>
	<path class="st2" d="M520.5,74c-19.4-19.2-43.4-28.9-71.3-28.9c-27.8,0-51.7,9.7-71.1,28.9c-19.4,19.2-29.2,42.9-29.2,70.5
		c0,27.5,9.8,51.2,29.2,70.3c19.3,19.2,43.3,28.9,71.1,28.9c27.9,0,51.9-9.7,71.3-28.9c19.4-19.2,29.3-42.8,29.3-70.3
		C549.8,116.9,540,93.2,520.5,74z M449.7,219.2c-21,0-38.3-7.1-52.8-21.6c-14.5-14.6-21.6-31.9-21.6-53.1c0-21.3,7.1-38.7,21.6-53.2
		c14.5-14.6,31.8-21.6,52.8-21.6c20.9,0,38,7.1,52.4,21.6c14.4,14.6,21.3,32,21.3,53.3c0,21.2-7,38.6-21.3,53.1
		C487.7,212.1,470.6,219.2,449.7,219.2z"/>
	<path class="st2" d="M301.2,74c-19.4-19.2-43.4-28.9-71.3-28.9c-27.8,0-51.7,9.7-71.1,28.9c-19.4,19.2-29.2,42.9-29.2,70.5
		c0,27.5,9.8,51.2,29.2,70.3c19.3,19.2,43.3,28.9,71.1,28.9c27.9,0,51.9-9.7,71.3-28.9c19.4-19.2,29.3-42.8,29.3-70.3
		C330.5,116.9,320.6,93.2,301.2,74z M230.4,219.2c-21,0-38.3-7.1-52.8-21.6C163.1,183,156,165.6,156,144.5
		c0-21.3,7.1-38.7,21.6-53.2c14.5-14.6,31.8-21.6,52.8-21.6c20.9,0,38,7.1,52.4,21.6c14.4,14.6,21.4,32,21.4,53.3
		c0,21.2-7,38.6-21.4,53.1C268.4,212.1,251.3,219.2,230.4,219.2z"/>
	<g>
		<path class="st2" d="M205.5,552v3.3h-18.8l12.7-15.6c1.2-1.5,2.6-3.3,2.6-5.2c0-3-2.7-5.6-5.7-5.6c-3,0-5.4,2.4-5.6,5.3h-3.6
			c0.6-5.2,3.9-8.6,9.2-8.6c4.9,0,9.2,3.7,9.2,8.7c0,2.2-0.8,4.3-2.2,6l-9.6,11.7H205.5z"/>
		<path class="st2" d="M240,540.8c0,8.6-6.8,15.2-15.2,15.2c-8.4,0-15.2-6.5-15.2-15.2c0-8.3,6.9-15.2,15.2-15.2
			C233.1,525.6,240,532.4,240,540.8z M236.4,540.8c0-6.4-4.8-11.8-11.6-11.8c-6.8,0-11.6,5.4-11.6,11.8c0,6.6,5.3,11.8,11.6,11.8
			C231.1,552.5,236.4,547.4,236.4,540.8z"/>
		<path class="st2" d="M244,529.5l2-3.3h6.5v29.1H249v-25.8H244z"/>
		<path class="st2" d="M279.8,547.9v3.2h-3.3v4.2h-3.5v-4.2h-14.3l17.8-26.1v22.9H279.8z M273.1,535.9L273.1,535.9l-8.3,12h8.3
			V535.9z"/>
		<path class="st2" d="M302.5,541.5v2.9h-8.4v-2.9H302.5z"/>
		<path class="st2" d="M336.4,552v3.3h-18.8l12.7-15.6c1.2-1.5,2.6-3.3,2.6-5.2c0-3-2.7-5.6-5.7-5.6c-3,0-5.4,2.4-5.6,5.3H318
			c0.6-5.2,3.9-8.6,9.2-8.6c4.9,0,9.2,3.7,9.2,8.7c0,2.2-0.8,4.3-2.2,6l-9.6,11.7H336.4z"/>
		<path class="st2" d="M370.9,540.8c0,8.6-6.8,15.2-15.2,15.2c-8.4,0-15.2-6.5-15.2-15.2c0-8.3,6.9-15.2,15.2-15.2
			C364,525.6,370.9,532.4,370.9,540.8z M367.3,540.8c0-6.4-4.8-11.8-11.6-11.8c-6.8,0-11.6,5.4-11.6,11.8c0,6.6,5.3,11.8,11.6,11.8
			C361.9,552.5,367.3,547.4,367.3,540.8z"/>
		<path class="st2" d="M374.8,529.5l2-3.3h6.5v29.1h-3.5v-25.8H374.8z"/>
		<path class="st2" d="M395.9,540.2c-2.4-1.3-3.8-3.7-3.8-6.5c0-4.7,3.7-8.1,8.3-8.1c4.6,0,8.3,3.4,8.3,8.1c0,2.9-1.4,5.2-3.8,6.5
			c3,1,4.6,3.9,4.6,7c0,5.4-4.2,8.7-9.1,8.7c-4.9,0-9.1-3.3-9.1-8.7C391.3,544.1,392.9,541.3,395.9,540.2z M394.8,547.2
			c0,2.9,2.8,5.5,5.6,5.5c2.9,0,5.6-2.5,5.6-5.5c0-3.1-2.7-5.5-5.6-5.5C397.5,541.7,394.8,544.1,394.8,547.2z M395.5,533.7
			c0,2.3,2.5,4.9,4.9,4.9c2.4,0,4.9-2.6,4.9-4.9c0-2.8-2.3-5-4.9-5C397.8,528.7,395.5,530.9,395.5,533.7z"/>
	</g>
</g>
</svg>
