<?xml version="1.0" encoding="utf-8"?>
<!-- Generator: Adobe Illustrator 17.0.0, SVG Export Plug-In . SVG Version: 6.00 Build 0)  -->
<!DOCTYPE svg PUBLIC "-//W3C//DTD SVG 1.1//EN" "http://www.w3.org/Graphics/SVG/1.1/DTD/svg11.dtd">
<svg version="1.1" id="Layer_1" xmlns="http://www.w3.org/2000/svg" xmlns:xlink="http://www.w3.org/1999/xlink" x="0px" y="0px"
	 width="960px" height="560px" viewBox="0 0 960 560" enable-background="new 0 0 960 560" xml:space="preserve">
<g>
	<path fill="#FFFFFF" d="M661.806,266.389H298.194c-57.361,0-104.028,46.667-104.028,105V455c0,57.361,46.667,105,104.028,105
		h362.639c57.361,0,104.028-46.667,104.028-105v-83.611C765.833,313.056,719.167,266.389,661.806,266.389z M375,331.528h-34.028
		v168.194h-33.056V331.528H274.86v-28.194H375V331.528z M470.278,499.722h-29.167v-15.556c-5.833,5.833-10.694,10.694-16.528,13.611
		c-5.833,2.917-11.667,4.861-16.528,4.861c-6.806,0-11.667-1.944-15.556-6.806c-2.917-3.889-4.861-10.694-4.861-19.444V354.861
		h29.167v110.833c0,3.889,0.972,5.833,1.944,7.778s2.917,1.944,5.833,1.944c1.944,0,4.861-0.972,7.778-2.917s5.833-4.861,8.75-7.778
		v-109.86h29.167L470.278,499.722L470.278,499.722z M575.278,469.583c0,10.694-1.944,18.472-6.806,23.333
		c-4.861,5.833-10.694,7.778-19.444,7.778c-5.833,0-10.694-0.972-15.556-2.917c-4.861-1.944-8.75-4.861-12.639-9.722v10.694h-29.167
		V303.333h29.167v63.194c3.889-3.889,7.778-7.778,12.639-9.722s8.75-3.889,13.611-3.889c8.75,0,16.528,2.917,21.389,8.75
		c4.861,5.833,6.806,15.556,6.806,27.222L575.278,469.583L575.278,469.583z M675.417,430.694H620v27.222
		c0,7.778,0.972,12.639,2.917,15.556s4.861,4.861,9.722,4.861c4.861,0,7.778-0.972,9.722-3.889
		c1.944-2.917,2.917-7.778,2.917-16.528v-6.806h30.139v7.778c0,14.583-3.889,26.25-10.694,34.028s-18.472,11.667-32.083,11.667
		c-12.639,0-23.333-3.889-30.139-11.667c-7.778-7.778-11.667-18.472-11.667-33.056v-65.139c0-12.639,3.889-22.361,12.639-31.111
		c7.778-7.778,18.472-11.667,32.083-11.667s23.333,3.889,30.139,10.694c6.806,7.778,10.694,17.5,10.694,31.111v36.945
		L675.417,430.694L675.417,430.694z"/>
	<path fill="#FFFFFF" d="M633.611,376.25c-4.861,0-7.778,0.972-9.722,3.889c-1.944,2.917-2.917,6.806-2.917,12.639v15.556h25.278
		V393.75c0-5.833-0.972-10.694-2.917-12.639C641.389,378.194,637.5,376.25,633.611,376.25z"/>
	<path fill="#FFFFFF" d="M533.472,376.25c-1.944,0-3.889,0-5.833,0.972c-1.944,0.972-3.889,2.917-5.833,4.861V472.5
		c1.944,1.944,4.861,3.889,6.806,4.861c1.944,0.972,4.861,1.944,6.806,1.944c3.889,0,5.833-0.972,7.778-2.917
		c1.944-1.944,2.917-4.861,2.917-9.722v-74.861c0-4.861-0.972-8.75-2.917-10.694C540.278,377.222,537.361,376.25,533.472,376.25z"/>
	<polygon fill="#FFFFFF" points="345.833,215.833 382.778,215.833 382.778,126.389 425.556,0 388.611,0 365.278,86.528 
		363.333,86.528 339.028,0 302.083,0 345.833,130.278 	"/>
	<path fill="#FFFFFF" d="M475.139,220.694c14.583,0,26.25-3.889,35-11.667c8.75-7.778,12.639-18.472,12.639-32.083V94.306
		c0-11.667-3.889-22.361-12.639-30.139c-8.75-7.778-19.444-11.667-33.056-11.667c-14.583,0-26.25,3.889-35,10.694
		c-8.75,7.778-13.611,17.5-13.611,29.167V175c0,13.611,3.889,24.306,12.639,32.083C449.861,215.833,460.556,220.694,475.139,220.694
		z M461.528,92.361c0-3.889,0.972-5.833,3.889-8.75c2.917-1.944,5.833-2.917,9.722-2.917s7.778,0.972,10.694,2.917
		c2.917,1.944,3.889,4.861,3.889,8.75v86.528c0,3.889-0.972,7.778-3.889,9.722c-2.917,2.917-5.833,3.889-10.694,3.889
		c-3.889,0-7.778-0.972-9.722-3.889c-1.944-1.944-3.889-5.833-3.889-9.722L461.528,92.361L461.528,92.361z"/>
	<path fill="#FFFFFF" d="M572.361,218.75c5.833,0,12.639-1.944,18.472-4.861c6.806-3.889,12.639-8.75,18.472-14.583v17.5h33.056
		V56.389h-33.056v121.528c-2.917,3.889-6.806,5.833-9.722,8.75c-3.889,1.944-6.806,2.917-8.75,2.917
		c-2.917,0-4.861-0.972-6.806-2.917c-0.972-1.944-1.944-4.861-1.944-7.778v-122.5H550v133.194c0,9.722,1.944,16.528,5.833,21.389
		C558.75,215.833,564.583,218.75,572.361,218.75z"/>
</g>
</svg>
