<?xml version="1.0" encoding="utf-8"?>
<!-- Generator: Adobe Illustrator 18.1.1, SVG Export Plug-In . SVG Version: 6.00 Build 0)  -->
<svg version="1.1" id="Layer_1" xmlns="http://www.w3.org/2000/svg" xmlns:xlink="http://www.w3.org/1999/xlink" x="0px" y="0px"
	 viewBox="-292 383 26 28" enable-background="new -292 383 26 28" xml:space="preserve">
<title>twitter</title>
<path fill="#FFFFFF" d="M-266.7,389.4c-0.7,1-1.5,1.9-2.5,2.6c0,0.2,0,0.4,0,0.7c0,6.7-5.1,14.4-14.4,14.4c-2.9,0-5.5-0.8-7.8-2.3
	c0.4,0,0.8,0.1,1.2,0.1c2.4,0,4.5-0.8,6.3-2.2c-2.2,0-4.1-1.5-4.7-3.5c0.3,0,0.6,0.1,1,0.1c0.5,0,0.9-0.1,1.3-0.2
	c-2.3-0.5-4-2.5-4-5V394c0.7,0.4,1.5,0.6,2.3,0.6c-1.4-0.9-2.3-2.5-2.3-4.2c0-0.9,0.3-1.8,0.7-2.5c2.5,3.1,6.2,5.1,10.4,5.3
	c-0.1-0.4-0.1-0.8-0.1-1.2c0-2.8,2.3-5,5-5c1.5,0,2.8,0.6,3.7,1.6c1.1-0.2,2.2-0.6,3.2-1.2c-0.4,1.2-1.2,2.2-2.2,2.8
	C-268.6,390-267.6,389.8-266.7,389.4L-266.7,389.4z"/>
</svg>
