<?xml version="1.0" standalone="no"?>
<!DOCTYPE svg PUBLIC "-//W3C//DTD SVG 20010904//EN"
 "http://www.w3.org/TR/2001/REC-SVG-20010904/DTD/svg10.dtd">
<svg version="1.0" xmlns="http://www.w3.org/2000/svg"
 width="280.000000pt" height="280.000000pt" viewBox="0 0 280.000000 280.000000"
 preserveAspectRatio="xMidYMid meet">
<metadata>
Created by potrace 1.11, written by Peter Selinger 2001-2013
</metadata>
<g transform="translate(0.000000,280.000000) scale(0.100000,-0.100000)"
fill="#000000" stroke="none">
<path d="M1475 2783 c-4 -10 -9 -52 -12 -93 -5 -90 12 -127 79 -161 36 -19 52
-21 115 -15 68 6 73 6 73 -13 0 -32 11 -51 30 -51 38 0 29 -27 -13 -40 -120
-38 -191 -79 -181 -105 3 -7 -8 -37 -25 -66 -40 -72 -81 -187 -88 -250 -8 -67
-109 -272 -202 -409 -40 -58 -44 -71 -45 -126 -1 -56 2 -64 42 -117 23 -31 50
-61 60 -66 16 -9 84 -1 123 14 13 5 17 -6 22 -71 9 -96 9 -217 1 -266 -5 -28
-12 -38 -28 -40 -13 -2 -21 -10 -21 -23 -1 -11 -4 -26 -9 -33 -4 -7 -4 -48 0
-92 5 -57 3 -80 -5 -80 -16 0 -13 -51 4 -64 11 -8 15 -38 16 -126 1 -63 8
-179 16 -258 l14 -143 -23 -19 c-22 -19 -22 -21 -4 -34 10 -8 15 -19 11 -25
-4 -8 21 -11 80 -11 l86 0 -6 128 c-4 70 -11 169 -16 221 -5 52 -8 96 -6 98 2
2 11 -41 20 -94 25 -152 28 -172 34 -265 l5 -88 379 0 379 0 4 23 c21 96 28
219 22 354 -7 175 -2 200 45 205 48 5 56 26 35 93 -10 32 -20 69 -22 84 -3 14
-7 33 -10 41 -3 8 -8 51 -10 95 -5 94 -23 150 -70 210 -18 25 -31 51 -28 59 3
8 -2 26 -11 40 -10 15 -13 30 -9 38 5 7 7 36 6 63 -2 44 1 55 31 91 18 23 41
68 51 100 11 33 27 85 38 117 10 32 21 86 25 120 3 34 16 83 29 108 13 26 31
85 41 132 20 98 14 135 -36 236 -15 31 -31 67 -34 81 -8 28 -55 79 -122 130
-52 40 -110 113 -120 152 -4 14 -17 31 -31 38 -48 26 -95 146 -64 165 34 21
-16 25 -324 25 -309 0 -334 -1 -341 -17z"/>
<path d="M1065 1390 c-3 -5 -15 -10 -26 -10 -21 0 -23 -7 -9 -30 7 -12 12 -12
22 -2 6 6 23 12 38 12 l25 -1 -27 -15 c-16 -8 -28 -20 -28 -27 0 -7 3 -8 8 -2
8 11 52 15 52 5 0 -4 7 -7 15 -7 17 0 20 23 5 32 -5 3 -10 18 -10 33 0 22 -2
24 -11 12 -8 -11 -12 -12 -16 -2 -6 14 -29 16 -38 2z"/>
<path d="M707 1367 c-37 -20 -40 -21 -67 -5 -17 10 -30 12 -32 6 -2 -5 -16
-11 -31 -11 -33 -2 -39 -37 -7 -37 11 0 20 -7 20 -15 0 -11 -11 -15 -39 -15
-38 0 -40 -2 -39 -30 l1 -30 126 4 c69 3 137 7 151 9 86 15 97 19 96 35 -1 11
8 18 22 20 13 2 21 9 19 15 -7 23 -117 69 -117 48 0 -4 -11 -8 -25 -8 -18 0
-25 5 -25 18 0 23 -5 23 -53 -4z"/>
<path d="M971 1357 c-34 -17 -38 -37 -8 -37 14 0 32 -3 41 -6 12 -4 16 0 16
15 0 12 -6 21 -16 21 -8 0 -12 5 -9 10 8 13 5 12 -24 -3z"/>
<path d="M964 1281 c4 -6 0 -11 -8 -11 -9 0 -16 -4 -16 -9 0 -17 19 -22 39
-12 14 8 21 8 24 -2 2 -6 8 -8 13 -4 13 12 -10 42 -36 45 -14 2 -20 0 -16 -7z"/>
</g>
</svg>
