<svg xmlns="http://www.w3.org/2000/svg" width="960" height="560" viewBox="0 0 960 560"><g fill="#FFF"><path d="M661.806 266.389H298.194c-57.361 0-104.028 46.667-104.028 105V455c0 57.361 46.667 105 104.028 105h362.639c57.361 0 104.028-46.667 104.028-105v-83.611c.972-58.333-45.694-105-103.055-105zM375 331.528h-34.028v168.194h-33.056V331.528H274.86v-28.194H375v28.194zm95.278 168.194h-29.167v-15.556c-5.833 5.833-10.694 10.694-16.528 13.611-5.833 2.917-11.667 4.861-16.528 4.861-6.806 0-11.667-1.944-15.556-6.806-2.917-3.889-4.861-10.694-4.861-19.444V354.861h29.167v110.833c0 3.889.972 5.833 1.944 7.778s2.917 1.944 5.833 1.944c1.944 0 4.861-.972 7.778-2.917s5.833-4.861 8.75-7.778v-109.86h29.167l.001 144.861zm105-30.139c0 10.694-1.944 18.472-6.806 23.333-4.861 5.833-10.694 7.778-19.444 7.778-5.833 0-10.694-.972-15.556-2.917-4.861-1.944-8.75-4.861-12.639-9.722v10.694h-29.167V303.333h29.167v63.194c3.889-3.889 7.778-7.778 12.639-9.722s8.75-3.889 13.611-3.889c8.75 0 16.528 2.917 21.389 8.75 4.861 5.833 6.806 15.556 6.806 27.222v80.695zm100.139-38.889H620v27.222c0 7.778.972 12.639 2.917 15.556s4.861 4.861 9.722 4.861 7.778-.972 9.722-3.889 2.917-7.778 2.917-16.528v-6.806h30.139v7.778c0 14.583-3.889 26.25-10.694 34.028s-18.472 11.667-32.083 11.667c-12.639 0-23.333-3.889-30.139-11.667-7.778-7.778-11.667-18.472-11.667-33.056v-65.139c0-12.639 3.889-22.361 12.639-31.111 7.778-7.778 18.472-11.667 32.083-11.667s23.333 3.889 30.139 10.694c6.806 7.778 10.694 17.5 10.694 31.111v36.945l-.972.001z"/><path d="M633.611 376.25c-4.861 0-7.778.972-9.722 3.889s-2.917 6.806-2.917 12.639v15.556h25.278V393.75c0-5.833-.972-10.694-2.917-12.639-1.944-2.917-5.833-4.861-9.722-4.861zm-100.139 0c-1.944 0-3.889 0-5.833.972-1.944.972-3.889 2.917-5.833 4.861V472.5c1.944 1.944 4.861 3.889 6.806 4.861 1.944.972 4.861 1.944 6.806 1.944 3.889 0 5.833-.972 7.778-2.917 1.944-1.944 2.917-4.861 2.917-9.722v-74.861c0-4.861-.972-8.75-2.917-10.694-2.918-3.889-5.835-4.861-9.724-4.861zM345.833 215.833h36.945v-89.444L425.556 0h-36.945l-23.333 86.528h-1.945L339.028 0h-36.945l43.75 130.278zm129.306 4.861c14.583 0 26.25-3.889 35-11.667 8.75-7.778 12.639-18.472 12.639-32.083V94.306c0-11.667-3.889-22.361-12.639-30.139-8.75-7.778-19.444-11.667-33.056-11.667-14.583 0-26.25 3.889-35 10.694-8.75 7.778-13.611 17.5-13.611 29.167V175c0 13.611 3.889 24.306 12.639 32.083 8.75 8.75 19.445 13.611 34.028 13.611zM461.528 92.361c0-3.889.972-5.833 3.889-8.75 2.917-1.944 5.833-2.917 9.722-2.917s7.778.972 10.694 2.917c2.917 1.944 3.889 4.861 3.889 8.75v86.528c0 3.889-.972 7.778-3.889 9.722-2.917 2.917-5.833 3.889-10.694 3.889-3.889 0-7.778-.972-9.722-3.889-1.944-1.944-3.889-5.833-3.889-9.722V92.361zM572.361 218.75c5.833 0 12.639-1.944 18.472-4.861 6.806-3.889 12.639-8.75 18.472-14.583v17.5h33.056V56.389h-33.056v121.528c-2.917 3.889-6.806 5.833-9.722 8.75-3.889 1.944-6.806 2.917-8.75 2.917-2.917 0-4.861-.972-6.806-2.917-.972-1.944-1.944-4.861-1.944-7.778v-122.5H550v133.194c0 9.722 1.944 16.528 5.833 21.389 2.917 4.861 8.75 7.778 16.528 7.778z"/></g></svg>