<svg id="Layer_1" xmlns="http://www.w3.org/2000/svg" viewBox="0 0 238 75.5"><style>.st0{fill-rule:evenodd;clip-rule:evenodd}.st1{stroke:#000;stroke-width:.5615;stroke-miterlimit:3.8637}</style><path class="st0" d="M83.5 30h-2.7l-.3.7c-.1.2-.2.5-.2.6 0 .2.1.4.3.5.1.1.4.1.8.1v.2h-2.6V32c.3 0 .5-.2.7-.3.2-.2.4-.6.7-1.2l2.8-6.1h.1l2.8 6.3c.3.6.5 1 .7 1.1.1.1.3.2.5.2v.2h-3.7V32h.2c.3 0 .5 0 .6-.1.1-.1.1-.1.1-.3v-.2l-.2-.4-.6-1zm-.2-.4L82.1 27 81 29.6h2.3z"/><path d="M91.6 26.9v4.2c0 .4 0 .7.1.8.1.1.2.2.5.2v.2H90v-.7c-.3.3-.5.5-.8.7-.3.1-.5.2-.9.2-.3 0-.6-.1-.8-.3-.2-.2-.4-.4-.5-.6-.1-.2-.1-.7-.1-1.3v-2.1c0-.4 0-.7-.1-.7-.1-.1-.2-.2-.5-.2v-.2h2.2v3.6c0 .4 0 .6.1.7 0 .1.1.2.2.2.1.1.2.1.3.1.1 0 .3 0 .4-.1.2-.1.3-.3.5-.6v-2.8c0-.4 0-.7-.1-.7-.1-.1-.2-.2-.5-.2v-.2h2.2v-.2zm4.3-.1l.1 1.8h-.2c-.2-.5-.5-.9-.7-1.1-.2-.2-.5-.3-.7-.3-.2 0-.3.1-.4.2-.1.1-.2.2-.2.4 0 .1 0 .2.1.3.1.2.5.4 1 .8.6.4.9.7 1.1 1 .2.3.3.6.3.9 0 .3-.1.6-.2.9-.1.3-.4.5-.6.7-.3.2-.6.2-.9.2-.3 0-.6-.1-1-.2-.1 0-.2-.1-.2-.1-.1 0-.2.1-.3.3h-.2l-.1-1.9h.2c.2.5.4.9.7 1.1.3.2.6.4.8.4.2 0 .3-.1.4-.2.1-.1.2-.2.2-.4s-.1-.3-.2-.5c-.1-.1-.4-.3-.8-.6-.6-.4-1-.7-1.1-.9-.2-.3-.4-.7-.4-1 0-.4.1-.8.4-1.1.3-.3.7-.5 1.2-.5.3 0 .6.1.8.2.1.1.2.1.2.1h.2l.2-.2h.3v-.3zm2.8-1.8v1.9h1.3v.6h-1.3v3.9c0 .1.1.2.2.2.1.1.1.1.2.1.2 0 .5-.2.7-.6l.2.1c-.3.7-.8 1.1-1.5 1.1-.3 0-.6-.1-.9-.3-.2-.2-.4-.4-.4-.6 0-.1-.1-.5-.1-1v-2.9h-.7v-.2c.5-.3.9-.7 1.2-1.1l.9-1.2h.2zm3.9 1.9v1.2c.4-.5.7-.9.9-1.1.3-.2.5-.3.8-.3.2 0 .4.1.5.2.1.1.2.3.2.5 0 .3-.1.5-.2.6-.1.1-.3.2-.4.2-.2 0-.4-.1-.5-.2-.1-.1-.2-.2-.3-.2h-.1c-.1 0-.2 0-.3.1-.2.1-.3.3-.4.6-.1.4-.2.8-.2 1.2v2c0 .1.1.2.2.2s.2.1.5.1v.2h-2.9V32c.2 0 .4-.1.5-.2.1-.1.1-.4.1-.9v-3.5c0-.1-.1-.2-.2-.2s-.2-.1-.4-.1v-.2h2.2z"/><path class="st0" d="M107.9 31.4c-.6.6-1.2.9-1.7.9-.3 0-.6-.1-.8-.3-.2-.2-.3-.4-.3-.7 0-.4.2-.8.5-1.1.3-.3 1.1-.8 2.3-1.3v-.5c0-.4 0-.7-.1-.8 0-.1-.1-.2-.2-.3-.1-.1-.3-.1-.4-.1-.2 0-.4.1-.6.2-.1.1-.1.1-.1.2s.1.2.2.3c.1.2.2.3.2.5s-.1.3-.2.5c-.1.1-.3.2-.5.2s-.4-.1-.6-.2c-.2-.1-.2-.3-.2-.5 0-.3.1-.5.3-.8.2-.2.5-.4.9-.6.4-.1.8-.2 1.2-.2.5 0 .9.1 1.2.3.3.2.5.4.6.7.1.2.1.5.1 1.1v2.6c0 .1 0 .1.1.1h.1c.1 0 .2-.1.3-.2l.2.1c-.2.3-.4.5-.6.6-.2.1-.4.2-.7.2-.3 0-.5-.1-.7-.2-.4-.1-.5-.4-.5-.7zm0-.4v-1.8c-.5.3-.8.6-1 .9-.1.2-.2.4-.2.6 0 .2.1.3.2.5.1.1.2.2.4.2.1 0 .3-.2.6-.4z"/><path d="M112.5 24.5v6.6c0 .4 0 .6.1.7.1.1.3.2.5.2v.2h-2.9V32c.2 0 .4-.1.5-.2.1-.1.1-.3.1-.7v-5.5c0-.4 0-.6-.1-.7-.1-.1-.3-.2-.5-.2v-.2h2.3z"/><path class="st0" d="M114.9 24.4c.2 0 .5.1.6.3.2.2.3.4.3.6 0 .2-.1.4-.3.6-.2.2-.4.3-.6.3-.2 0-.4-.1-.6-.3-.2-.2-.3-.4-.3-.6 0-.2.1-.4.3-.6.2-.3.4-.3.6-.3zm.8 2.5v4.2c0 .4 0 .6.1.7.1.1.3.2.5.2v.2h-2.9V32c.2 0 .4-.1.5-.2.1-.1.1-.3.1-.7V28c0-.4 0-.6-.1-.7-.1-.1-.3-.2-.5-.2v-.2h2.3zm3.7 4.5c-.6.6-1.2.9-1.7.9-.3 0-.6-.1-.8-.3-.2-.2-.3-.4-.3-.7 0-.4.2-.8.5-1.1.3-.3 1.1-.8 2.3-1.3v-.5c0-.4 0-.7-.1-.8 0-.1-.1-.2-.2-.3-.1-.1-.3-.1-.4-.1-.2 0-.4.1-.6.2-.1.1-.1.1-.1.2s.1.2.2.3c.1.2.2.3.2.5s-.1.3-.2.5c-.1.1-.3.2-.5.2s-.4-.1-.6-.2c-.2-.1-.2-.3-.2-.5 0-.3.1-.5.3-.8.2-.2.5-.4.9-.6.4-.1.8-.2 1.2-.2.5 0 .9.1 1.2.3.3.2.5.4.6.7.1.2.1.5.1 1.1v2.6c0 .1 0 .1.1.1h.1c.1 0 .2-.1.3-.2l.2.1c-.2.3-.4.5-.6.6-.2.1-.4.2-.7.2-.3 0-.5-.1-.7-.2-.3-.1-.4-.4-.5-.7zm0-.4v-1.8c-.5.3-.8.6-1 .9-.1.2-.2.4-.2.6 0 .2.1.3.2.5.1.1.2.2.4.2s.4-.2.6-.4z"/><path d="M124 26.9v.7c.3-.3.5-.5.8-.6.2-.1.5-.2.8-.2.3 0 .6.1.9.3.2.2.4.4.5.7v3.3c0 .4 0 .7.1.8.1.1.2.2.5.2v.2h-2.7V32c.2 0 .3-.1.4-.3.1-.1.1-.3.1-.7v-2.4c0-.4 0-.7-.1-.8 0-.1-.1-.2-.2-.3-.1-.1-.2-.1-.3-.1-.3 0-.6.2-.9.7v2.8c0 .4 0 .6.1.8.1.1.2.2.4.2v.2h-2.7V32c.2 0 .4-.1.5-.2.1-.1.1-.3.1-.7v-3c0-.4 0-.7-.1-.7-.1-.1-.2-.2-.5-.2V27h2.3v-.1zm14-2.5v2.7h-.2c-.3-.7-.6-1.3-1.1-1.7-.5-.4-1.1-.6-1.7-.6-.6 0-1.1.2-1.4.5-.4.3-.7.8-.8 1.4-.2.6-.2 1.2-.2 1.8 0 .7.1 1.4.3 1.9.2.6.5 1 .8 1.2.4.3.9.4 1.4.4.2 0 .4 0 .6-.1.2 0 .4-.1.6-.2v-1.6c0-.3 0-.5-.1-.6 0-.1-.1-.2-.3-.2-.1-.1-.3-.1-.5-.1h-.2V29h3.7v.2c-.3 0-.5.1-.6.1l-.3.3c0 .1-.1.2-.1.5v1.6c-.5.2-1 .4-1.5.5-.5.1-1.1.2-1.7.2-.7 0-1.3-.1-1.8-.3-.5-.2-.9-.5-1.3-.8-.4-.3-.7-.7-.9-1.1-.3-.5-.4-1.1-.4-1.8 0-1.2.4-2.1 1.2-2.9.8-.8 1.8-1.2 3.1-1.2.4 0 .7 0 1 .1.2 0 .4.1.8.3.4.1.6.2.7.2.1 0 .2 0 .3-.1.1-.1.2-.2.2-.4h.4z"/><path class="st0" d="M141.7 26.8c.5 0 .9.1 1.3.4.4.2.7.6.9 1 .2.4.3.9.3 1.4 0 .8-.2 1.4-.6 1.9-.5.6-1.1.9-1.9.9-.8 0-1.4-.3-1.8-.8-.4-.6-.6-1.2-.6-1.9 0-.8.2-1.4.7-2 .3-.6 1-.9 1.7-.9zm0 .4c-.2 0-.4.1-.5.2-.1.1-.2.4-.3.9 0 .4-.1 1-.1 1.8 0 .4 0 .8.1 1.1 0 .3.1.5.3.6.1.1.3.2.5.2s.3 0 .4-.1c.1-.1.2-.3.3-.5.1-.4.1-1.1.1-2.2 0-.6 0-1.1-.1-1.3-.1-.2-.2-.4-.3-.5-.1-.2-.2-.2-.4-.2z"/><path d="M146.7 32.4l-1.8-4.1c-.2-.5-.4-.8-.5-.9-.1-.1-.2-.2-.4-.2V27h2.8v.2c-.2 0-.3 0-.4.1-.1.1-.1.2-.1.3 0 .1.1.4.2.8l.9 2 .7-1.7c.2-.5.3-.8.3-1 0-.1 0-.2-.1-.3-.1-.1-.2-.1-.4-.1v-.2h1.7v.2c-.2 0-.3.1-.4.2-.1.1-.3.4-.5.9l-1.8 4.2h-.2v-.2z"/><path class="st0" d="M153.8 29.4h-2.9c0 .7.2 1.3.6 1.7.3.3.6.5.9.5.2 0 .4-.1.6-.2.2-.1.4-.4.6-.7l.2.1c-.3.6-.6 1-1 1.2-.3.2-.8.4-1.2.4-.8 0-1.4-.3-1.8-.9-.3-.5-.5-1.1-.5-1.8 0-.9.2-1.6.7-2.1.5-.5 1-.8 1.7-.8.5 0 1 .2 1.4.7.5.4.7 1 .7 1.9zm-1.4-.4c0-.6 0-1-.1-1.3-.1-.2-.2-.4-.3-.5-.1-.1-.2-.1-.3-.1-.2 0-.4.1-.5.3-.2.3-.3.8-.3 1.4v.2h1.5z"/><path d="M156.3 26.9v1.2c.4-.5.7-.9.9-1.1.3-.2.5-.3.8-.3.2 0 .4.1.5.2.1.1.2.3.2.5 0 .3-.1.5-.2.6-.1.1-.3.2-.4.2-.2 0-.4-.1-.5-.2-.1-.1-.2-.2-.3-.2h-.1c-.1 0-.2 0-.3.1-.2.1-.3.3-.4.6-.1.4-.2.8-.2 1.2v2c0 .1.1.2.2.2s.2.1.5.1v.2h-2.9V32c.2 0 .4-.1.5-.2.1-.1.1-.4.1-.9v-3.5c0-.1-.1-.2-.2-.2s-.2-.1-.4-.1v-.2h2.2zm4.9 0v.7c.3-.3.5-.5.8-.6.2-.1.5-.2.8-.2.3 0 .6.1.9.3.2.2.4.4.5.7.1.2.1.6.1 1.2v2.1c0 .4 0 .7.1.8.1.1.2.2.5.2v.2h-2.7V32c.2 0 .3-.1.4-.3.1-.1.1-.3.1-.7v-2.4c0-.4 0-.7-.1-.8 0-.1-.1-.2-.2-.3-.1-.1-.2-.1-.3-.1-.3 0-.6.2-.9.7v2.8c0 .4 0 .6.1.8.1.1.2.2.4.2v.2H159V32c.2 0 .4-.1.5-.2.1-.1.1-.3.1-.7v-3c0-.4 0-.7-.1-.7-.1-.1-.2-.2-.5-.2V27h2.2v-.1zm6.2 0v.7c.3-.3.6-.5.8-.7.2-.1.5-.2.8-.2.3 0 .6.1.9.2.2.2.4.4.5.7.3-.3.6-.6.9-.7.3-.2.6-.2.9-.2.4 0 .7.1.9.3.2.2.4.4.5.6.1.3.1.7.1 1.2V31c0 .4 0 .7.1.8.1.1.2.2.5.2v.2h-2.7V32c.2 0 .4-.1.5-.3.1-.1.1-.3.1-.7v-2.3c0-.5 0-.8-.1-.9 0-.1-.1-.2-.2-.3-.1-.1-.2-.1-.3-.1-.2 0-.3.1-.5.2s-.3.3-.5.5v2.8c0 .4 0 .6.1.7.1.1.3.2.5.2v.2h-2.7c.1 0 .3 0 .3-.1l.2-.2v-2.9c0-.5 0-.8-.1-.9 0-.1-.1-.2-.2-.3-.1-.1-.2-.1-.3-.1-.2 0-.3 0-.4.1-.2.1-.4.3-.6.6V31c0 .4 0 .6.1.7.1.1.2.2.5.2v.2h-2.7V32c.2 0 .4-.1.5-.2.1-.1.1-.3.1-.7v-3c0-.4 0-.7-.1-.7-.1-.1-.2-.2-.5-.2V27h2.1v-.1z"/><path class="st0" d="M178.9 29.4H176c0 .7.2 1.3.6 1.7.3.3.6.5.9.5.2 0 .4-.1.6-.2.2-.1.4-.4.6-.7l.2.1c-.3.6-.6 1-1 1.2-.3.2-.8.4-1.2.4-.8 0-1.4-.3-1.8-.9-.3-.5-.5-1.1-.5-1.8 0-.9.2-1.6.7-2.1.5-.5 1-.8 1.7-.8.5 0 1 .2 1.4.7.4.4.7 1 .7 1.9zm-1.4-.4c0-.6 0-1-.1-1.3-.1-.2-.2-.4-.3-.5-.1-.1-.2-.1-.3-.1-.2 0-.4.1-.5.3-.2.3-.3.8-.3 1.4v.2h1.5z"/><path d="M181.3 26.9v.7c.3-.3.5-.5.8-.6.2-.1.5-.2.8-.2.3 0 .6.1.9.3.2.2.4.4.5.7.1.2.1.6.1 1.2v2.1c0 .4 0 .7.1.8.1.1.2.2.5.2v.2h-2.7V32c.2 0 .3-.1.4-.3.1-.1.1-.3.1-.7v-2.4c0-.4 0-.7-.1-.8 0-.1-.1-.2-.2-.3-.1-.1-.2-.1-.3-.1-.3 0-.6.2-.9.7v2.8c0 .4 0 .6.1.8.1.1.2.2.4.2v.2h-2.7V32c.2 0 .4-.1.5-.2.1-.1.1-.3.1-.7v-3c0-.4 0-.7-.1-.7-.1-.1-.2-.2-.5-.2V27h2.2v-.1zm5.8-1.9v1.9h1.3v.6h-1.3v3.9c0 .1.1.2.2.2.1.1.1.1.2.1.2 0 .5-.2.7-.6l.2.1c-.3.7-.8 1.1-1.5 1.1-.3 0-.6-.1-.9-.3-.2-.2-.4-.4-.4-.6 0-.1-.1-.5-.1-1v-2.9h-.7v-.2c.5-.3.9-.7 1.2-1.1l.9-1.2h.2zM35.9 44.9c0 .1-.1.1-.1.1m1.4-10.5c.2 0 .3-.1.3-.3 0-.2-.1-.3-.3-.3-.2 0-.3.1-.3.3 0 .2.2.3.3.3zm12.9-11.7h-10v8.1c0 .8.3 1.5.8 1.7l3.9 2.3c.1.1.2.2.4.2.1 0 .2 0 .3-.1l3.9-2.3c.5-.2.8-.9.8-1.7l-.1-8.2zm-6.7 2.3h-.9V23h.9v2.1zm-.6.7l.1-.1-.1-.1h.2l.1-.2.1.2h.2l-.1.1.1.1h-.2v.2l-.1-.1-.2.1v-.2h-.1zm-2.4 2.6v-2h1.1v2h-1.1zm.1-2.8h.2l.1-.2.1.2h.2l-.1.1.1.1h-.2v.2l-.1-.1-.2.1v-.2h-.2l.1-.1v-.1zm1.2 2h.2l.1-.2.1.2h.2l-.1.1.1.1h-.2v.2l-.1-.1-.2.1v-.2h-.2l.1-.1v-.1zm.7-1.6c0-.1-.1-.1-.1-.1-.1 0-.1.2-.2.2s-.1 0-.1-.1.1-.1.2-.1c-.6 0-.7.3-.8.3-.2 0 .1-.3.2-.4-.1 0-.2-.2-.4-.3.1-.1.1-.1.2 0 0-.1.1-.1.2-.1.3 0 .2.3.3.3 0 0 0-.3.2-.3.3 0 .6.7.3.7-.1 0 0-.1 0-.1zm-.7-2.2l.1-.1-.1-.1h.2l.1-.2.1.2h.2l-.1.1.1.1h-.2v.2l-.1-.1-.2.1v-.2h-.1zm-.3-.8v2.1h-1.1V23h1.1zm2 10.7L41 32.3c-.4-.3-.6-.8-.6-1.3v-2.3h3v5zm-.9-5.3v-2h.9v2h-.9zm4 5.5l-1.1.7c-.1.1-.2.1-.3.1-.1 0-.2 0-.3-.1l-1.1-.7v-5.2h2.8v5.2zm0-5.5h-2.8V23h2.8v5.4zm3.3 2.6c-.1.6-.2 1.1-.6 1.3l-2.4 1.4v-5h3V31zm0-2.6h-3V23h3v5.4z"/><path d="M43.2 30.5s-.4.1-.3.1c0-.1.2-.3.3-.4 0-.1-.2 0-.4.1.6-.8.2-.5-.1-.4.5-.5.4-.5 0-.4.3-.2.4-.5.3-.6-.3.4-.5.3-.5.7 0 .2-.1.6-.2.7-.1.2 0-.6-.4-.6-.1 0-.4 0-.5.1.1 0 .2.2.2.3 0 .1.1.3-.1.3-.1 0-.3-.3-.3-.4v-.3c0-.3-.5-.8-.7-.8 0 .2.3.3.3.6-.1 0-.3-.2-.3-.1s.2.2.2.3c0 .1-.2 0-.2.1s.1.1.1.2h-.2s0 .1.1.1c0 0-.1.1-.1.3 0 .6.4.9.7.9.2 0 .2-.1.2-.2 0 .1.1-.1.1.1s-.2.1-.2.3c0 .2.3 0 .3.2v.4c0 .1.3-.1.3-.1.1 0 .1.3.2.3s.1-.2.2-.3c0 0 .3.2.3.1 0-.3-.1-.2-.1-.4s.4-.2.3-.2c-.1-.1-.1 0-.1-.2 0 0-.3-.5.1-.2.5.4.6-.5.5-.6zm10.7 2.1c.2 0 .3-.1.3-.3 0-.2-.1-.3-.3-.3-.2 0-.3.1-.3.3 0 .2.1.3.3.3zm-1.3.8c.2 0 .3-.1.3-.3 0-.2-.1-.3-.3-.3s-.3.1-.3.3c0 .2.1.3.3.3zm-15.8 1.9c.2 0 .3-.1.3-.3 0-.2-.1-.3-.3-.3-.2 0-.3.1-.3.3-.1.1.1.3.3.3zm1 .1c.2 0 .3-.1.3-.3 0-.2-.1-.3-.3-.3-.2 0-.3.1-.3.3 0 .1.1.3.3.3zm28.5-13.9c.5.6.6 1.5.2 2.2-.2 0-.2-.3-.2-.4-.3-.7-.6-1.5-.3-2.2.2 0 .1.3.3.4zm-41.8.8c-.1.4-.1 1 0 1.4-.1.1-.1-.1-.2-.1-.7-.5-.4-1.5-.5-2.1 0-.1.1-.1.2 0 .3.2.4.5.5.8zm43.3.1c.1.2-.1.4-.2.5-.2 0-.3-.1-.4-.2-.1-.2.1-.4.2-.5.1 0 .3 0 .4.2zm-44.4.8c0 .2-.1.3-.2.4-.1 0-.3 0-.3-.1-.1-.1-.1-.2-.1-.4.1-.1.2-.1.3-.2.1.1.3.1.3.3zm45.1.3v.3c-.1.2-.3.2-.5.2-.1-.1-.2-.2-.2-.3 0-.1.2-.3.3-.3.1-.1.2 0 .4.1zm-1 0c.1.1 0 .2 0 .4-.1.1-.2.2-.4.2-.1-.1-.2-.1-.2-.2 0-.2.1-.4.2-.4.2-.1.3-.1.4 0zm-1.3.2c0 .2 0 .4-.2.5-.2.1-.3-.1-.4-.2 0-.2.1-.4.3-.4.1-.1.2 0 .3.1zm-40.9.1c.1.2-.1.3-.2.4-.1 0-.3-.1-.4-.2-.1-.1 0-.2.1-.3.2-.2.4-.1.5.1zm-1 .1c0 .1-.1.3-.2.3-.1.1-.3-.1-.4-.2-.1-.2 0-.3.2-.4.2 0 .3.2.4.3zM62 24c.2.4.3.8.3 1.3-.1.3.1.8-.2 1-.2-.1-.3-.4-.4-.5-.3-.6 0-1.3.1-1.9.1-.2.1 0 .2.1zm-38.6.2c.1.2-.1.3-.2.4-.2.1-.3-.1-.4-.2 0-.2.1-.4.2-.4.2-.1.4 0 .4.2zm41.3.5c.2.5.2 1.1.1 1.7l-.1.1c-.2-.5-.6-1-.7-1.5 0-.4.1-.7.2-1 .1-.1.2 0 .2.1.1.2.1.5.3.6zm2.2-.3c0 .2-.1.4-.3.4-.2 0-.3 0-.4-.2-.1-.2.1-.3.2-.4.2-.2.4 0 .5.2zm-42.6.5c0 .1-.1.3-.3.3-.1.1-.2-.1-.4-.1-.1-.1-.1-.3 0-.4.1-.1.2-.1.3-.1.2.1.3.1.4.3zm.7-.1c.1.2-.1.3-.2.4-.2.1-.3-.1-.4-.2 0-.2.1-.3.2-.4.3-.1.4.1.4.2zm42.4 0c0 .2-.4.5-.4.7-.2.5-.6.8-1.1 1-.1.1-.2.2-.4.2 0-.4.3-.7.5-1 .4-.5.9-.8 1.4-.9zm-43.5.7c.3.3.4.6.7.8 0 .1 0 .2-.1.2-.9-.1-1.4-.9-1.9-1.5.1-.2.3 0 .4-.1.4.2.7.3.9.6zm43.8.2c0 .8-.4 1.5-1.1 1.9-.2.1-.4.3-.6.1.4-.8.9-1.4 1.5-2h.2zm-3.4.6c.1.3-.1.4-.3.5-.2 0-.3-.1-.4-.3 0-.2.1-.3.2-.4.1-.1.2-.1.3-.1.1.1.1.2.2.3zm-41.3.1c.3.2.6.5.9.8-.2.2-.5 0-.8 0-.6-.2-1-.7-1.6-.9 0-.2.2-.1.4-.2.4.1.7.2 1.1.3z"/><path d="M41.7 21.2c-1-.4-1.6.6-2.6.5-.1.1-.1.2-.2.3-.1.1-.1 0-.2 0-.1-.4-.2-.8-.2-1.2-.1-.2-.1-.4-.1-.6-.6-1.5 1.4-.4 1.7-1.3.3-.8-.6-.9-.9-1.4v-.2c-.3-.3-.6-.4-.8-.7.1-.4.2-.9.1-1.4 0-.1-.1-.2-.2-.2-.3.5-.6.8-.9 1.3-.3-.2-.6-.6-1-.8-.3 0-.5-.3-.8-.2-.1.1 0 .2.1.3 0 .7.4 1.2.9 1.7l.1.3c-.3.7-.2 1.5-.3 2.3-.8 2-2.1 3.9-3.8 5.3-1 1.1-2.2 2.2-2.3 3.8-.1.2 0 .5-.2.7-.6-.2-1.2-.5-1.6-.9-.8-.6-2-.5-2.5-1.5-.2-.4.1-.8.2-1.1.6-.6.5-1.6.2-2.3-.1 0-.1.1-.1.1-.1 1-.9 1.8-.6 2.9.1.3.2.5.3.9-.1 0-.3 0-.4-.1-.4-.1-.8-.2-1.2-.2-.8.4-1.9-.1-2.5.7-.1 0-.2 0-.2.2.4 0 .8.1 1.1.1.6.1 1-.4 1.4-.6h.1c.2-.2.5-.1.7-.1 1.1.1 2 .7 2.9 1.2-.3.2-.8.3-1.1.5-.4.3-.9.7-1 1.2-.3.4.1.8.3 1.2 0 .2 0 .4.2.5.6-.6 0-1.3.1-2 .1-.5.6-.8 1.1-.9 1-.4 1.7.4 2.5.8 0 .8.1 1.6-.1 2.4-.2.1-.6.1-.8.1-1.4.1-2.5.9-3.7 1.3-.6.2-1.2.2-1.8.4.4.1.9 0 1.3-.1 1.7-.2 3-1.6 4.9-1.3v.1c-.2.4-.5.8-.8 1.1-.1-.2-.1-.4-.2-.5-.1-.1-.3 0-.4.1-.1.1-.1.2 0 .3.1.2.2.2.4.2 0 .2-.2.2-.3.4-.5.8-1.5.5-2.1 1.1-.1.1-.4.2-.3.4.7.1 1.3-.1 1.8-.5.6-.7 1.3-1.4 2-2.1.1.6-.1 1.1-.4 1.6-.2-.1-.3-.2-.5-.3-.2 0-.3.2-.3.4.1.1.1.3.3.4-.6.4-1.3.5-2 .7-1.3.2-2.5.3-3.8.3-.6 0-1.3.2-1.9 0-.7.1-1.4-.1-1.9.3-.1.1 0 .2 0 .3.8.5 1.9.1 2.8.3h6.9c.5 0 1 0 1.4-.3.9-.5 1.4-1.4 1.8-2.3.2-.3.3-.7.4-1.1.2-.6.7-1 1.3-1.1.1.9-.1 1.8-.3 2.7-.1.6-.5 1.1-.2 1.7.1.3.3.3.6.3 2.1 0 4.2-.1 6.5 0 .4.1.8.2 1.2.2 0-.1.2-.1.1-.2-.1-.2-.2-.4-.4-.5 0-.1-.2-.1-.2-.1-1.1-.6-2.5-.3-3.8-.3-.7.1-1.4.2-1.9-.2-.6-.5-.4-1.5-.4-1.5 0-.4 1-3.2 1.1-3.4 0-.3.1-.5.1-.8.1-.4.1-.8.1-1.2.1-.6.3-1.1.5-1.6.1-.3.2-.5.3-.8.1-.3.1-.7.3-.9.6.4 1.1.4 1.4 1l.2 1.5c0 .1.1.3.2.2.5-.3.3-1 .3-1.4.1-.5-.3-.8-.4-1.3-.1-.1-.3-.5-.3-.5-.1-.4-.9-.7-.7-1.1.1-.4.2-.8.6-1 .1 0 .1.1.1.1l.2-.1v-1.5c.6 0 1.4.1 2 .1.2.1.3.2.5.2l.1-.2 1.4-.3c-.6-.1-1-.8-1.5-.8zm1.5.6h.1-.1z"/><path d="M28 26.7c0 .2-.1.3-.3.4-.1-.1-.2-.1-.3-.2-.1-.2.1-.3.2-.4.2.1.4.1.4.2zm-1.1 0c.1.1.1.3.1.4-.1.1-.3.2-.4.1-.1-.1-.2-.2-.1-.4 0-.1.2-.2.4-.1zm37.6.5c.1.2-.1.3-.2.4-.2-.1-.4-.1-.4-.3 0-.1.1-.2.3-.3.1 0 .2.1.3.2zm.9 0c.1.1.2.2 0 .3-.1.1-.1.1-.2.1-.2 0-.4 0-.4-.2s.1-.3.3-.4c.1 0 .2.1.3.2zm-42.9.2c-.1.2-.2.3-.5.2-.1-.1-.1-.1-.1-.2s.1-.2.2-.3c.2 0 .3.1.4.3zm5.9.3c0 .1-.2.3-.3.3-.2 0-.3-.1-.4-.2 0-.1.1-.3.2-.4.2 0 .4.1.5.3zm-1.1-.1c.1.1.1.2.1.3-.1.1-.3.2-.4.1-.1-.1-.2-.2-.2-.3.1-.1.2-.2.3-.2.1-.1.1 0 .2.1zm40.8.2c0 .1-.1.3-.2.3-.1.1-.3 0-.4-.1-.1 0-.1-.2-.1-.3.1-.1.2-.2.3-.2.2.1.3.2.4.3zm1.1.1c-.1.2-.2.3-.3.3-.1 0-.3-.1-.3-.2s.1-.2.2-.3c.1 0 .3.1.4.2zm-44.7.3c0 .2 0 .4-.2.4-.1.1-.2 0-.3-.1-.1-.1-.2-.2-.1-.4 0-.2.2-.1.3-.2l.3.3zm.8.1c.1.1-.1.2-.1.3-.1.1-.2.1-.3 0-.1-.1-.3-.3-.1-.4.1-.2.4-.1.5.1zm41.7 0c0 .2-.1.3-.2.4-.2 0-.3-.1-.4-.2 0-.1.1-.2.2-.3.2-.1.4-.1.4.1zm1.5.2c0 .2 0 .3-.2.4-.1 0-.3 0-.4-.1-.1-.1-.1-.2-.1-.4.1-.1.2-.2.4-.2.1.2.2.3.3.3zm-44.7.4c.1.1-.1.2-.1.2-.1.1-.2 0-.3 0-.1-.1-.1-.2-.1-.3.1-.3.4-.1.5.1zm43.6.3c.1 0 0 .1 0 .2-.4.2-1 .3-1.4-.1-.2-.2-.5-.2-.7-.4.1-.2.4-.2.6-.3.5.2.9.6 1.5.6zm-42.8-.1c0 .1-.1.2-.1.3-.1.1-.2.1-.3 0-.2-.1-.2-.3-.1-.4.2-.2.4-.1.5.1zm1.6.1c.1.2 0 .3-.2.4-.1.1-.2 0-.3-.1-.1-.1-.2-.3-.1-.4.1-.2.5-.1.6.1zm20.2.7c0 .4-.6-.1-.5.4.1.3.1.7.3 1 .2.2.1.6.1.9-.1.2-.4.4-.7.6-.5 0-1.2.3-1.5-.4-.1-.3-.3-.5-.3-.8.1 0 .1 0 .2-.1 0-.1-.1-.2-.1-.3.6-.1-.2-.6.2-.6.4.4 1 .3 1.4.7.1.1.1.2.2.2-.1-.4-.3-.8-.3-1.3-.1-.2 0-.5.2-.6.4-.2.6.2.8.3zm-18.7-.1c.1.2-.1.3-.2.4-.2.1-.2-.1-.3-.2-.1-.2.1-.3.2-.4.1.1.3.1.3.2zm10.8.2c.2.7.1 1.4-.2 2 0 .1 0 .4-.2.4-.5-.7-.1-1.6.1-2.3 0-.2.2-.3.3-.1zm14.9.3c.2.5.3 1.1 0 1.6l-.1.1c-.2-.4-.3-.8-.4-1.2.1-.3.2-.6.2-.9.3 0 .3.3.3.4zm-24.3.2c-.1.2-.4.3-.6.4-.4.3-1 .4-1.6.3.5-.6 1.2-1 2-.8.1.1.1 0 .2.1zm-7.2.7c.6.5.8 1.1 1.2 1.7.1.1.2.1.2.2-.2.1-.3-.1-.5-.1-.7-.3-1.1-1-1.1-1.8h.2zm30.9.5c0 .2 0 .4-.2.4-.2.1-.3-.1-.4-.2-.1-.1.1-.2.1-.3.1-.1.4-.1.5.1z"/><path d="M60.1 32.6c0-.3.1-.6.1-1 .1-.1.1-.2.1-.4.4-.6 1.3-.4 1.9-.3.3.1.6.1.9.2.1-.1.3-.1.4-.1.6-.3.2-.9.2-1.5l-.2-.5c-.1-.1-.1-.2-.1-.4-.1-.1-.2-.4-.3-.5-.3-.8-.9-1.2-1.4-1.8-.9-1.2-2.3-1.8-3.7-2.3-1.4-.5-2.8.1-4 .6-.4-.1-.6-.4-.7-.7-.1-.7.1-1.3.3-1.9.1-.4.3-.8.5-1.2.3-1 .6-2 .7-3 0-.7-.5-1.1-.9-1.4-.3-.1-.7-.1-1 .2-.2.5-.7.8-1.1 1 0 .3.3.1.5.2.4.1.8-.1 1.1.2 0 .7-.4 1.3-.7 1.8-.6.9-1.2 1.8-1.6 2.7l-.1-.1.1 4.3c.6.9 1.3 2 2.3 2.3.6.5 1.3 1 2 .6.4-.1.4.4.6.7.2.7-.3 1.1-.3 1.7l-.5 1c-.5 1-1 2.1-1.8 3-.3 0-.4.3-.7.3-.1.2-.4.1-.6.1-.5.2-1.3.1-1.7.6 0 .1.1.1.1.1 1.1 0 2.3.1 3.4 0 .1-.1.3-.2.3-.3-.2-.3.1-.6.2-.8.1-.4.4-.7.5-1.1l1.2-2.1.5-.9c.1-.3.3-.7.5-1 .1-.1.2-.3.3-.5 0-.2-.1-.2-.2-.4.1-.1.3-.1.5-.1.4.3.9.7 1 1.2l.2.5.1.2v.6l.1.5c.1.8-.1 1.7-.2 2.6-.3 1-1.5.9-2.3 1.1-.2.1-.6.1-.6.4 1 .2 2.2.1 3.3.1.2-.1.2-.2.3-.4 0-.2.3-.4.2-.7-.2-.2 0-.6-.1-1v-.3c.1-.5.1-1.1.2-1.6l.2-.5zm8.6-.6c-.6.8-1.2 1.7-2.1 2-.1 0-.1 0-.2-.1.6-.6.9-1.6 1.8-1.8.2-.1.4-.2.5-.1zm-47.6.8c-.1.1 0 .2-.2.2-.1.1-.3 0-.4-.2-.1-.2.1-.4.2-.4.2.2.3.2.4.4zm5 .3c.1.2-.1.2-.2.2-.7.3-1.5 0-2-.5 0-.1 0-.1.1-.2.6.2 1.5 0 2.1.5zm-4.1-.3c0 .1.1.2 0 .3-.1.2-.3.2-.4.2-.1-.1-.2-.1-.2-.2 0-.2.2-.3.3-.3.1-.1.2-.1.3 0zm16.4.1c0 .2-.1.3-.2.3-.2 0-.3 0-.4-.1-.1-.1 0-.3.1-.3.2-.1.4 0 .5.1zm31 .1c.1.2-.1.3-.2.4-.1.1-.2 0-.3-.1 0-.1-.1-.2-.1-.3.1-.2.2-.2.4-.2 0 .1.1.1.2.2zm1.1-.1c.1.2 0 .3-.1.4-.1.1-.2.2-.3.1l-.3-.3c0-.1.2-.2.3-.3.2-.1.3.1.4.1zm-50.2.5c0 .1-.1.2-.1.3-.1 0-.2.1-.3.1l-.3-.3c0-.2.1-.3.3-.4.2.1.4.2.4.3z"/><path d="M57.1 33.4v.2c-.1.1-.2.3-.4.2-.1-.1-.2-.2-.2-.4.2-.1.4-.2.6 0zm-34 .3c0 .1-.1.2-.2.3-.2 0-.2-.1-.3-.2 0-.2 0-.3.1-.4.2-.1.4.1.4.3zm-1.6 0c.1.2-.1.3-.2.4-.2.1-.4-.1-.5-.2 0-.2.1-.4.3-.4.2 0 .3.1.4.2zm36.7 0c0 .2 0 .4-.2.4-.2.1-.4-.1-.5-.2.1-.1.1-.3.3-.4.2 0 .4.1.4.2zm-35.9.1c.1.1-.1.2-.1.3-.1 0-.1.1-.2.1-.1-.1-.2-.1-.2-.2 0-.2.1-.3.2-.3.1-.2.2-.1.3.1zm46.1.1l-.3.3c-.1 0-.2-.1-.3-.1-.1-.1-.1-.2 0-.3.1-.4.6-.2.6.1zm1.3.1c-.1.2-.2.3-.4.3-.2-.1-.3-.2-.2-.4l.2-.2c.2-.1.4.1.4.3zm-8.2.1c.1.2-.1.3-.3.4-.1 0-.2-.1-.3-.1 0-.2.1-.4.2-.5.2 0 .2.1.4.2zm-4.8.2c.1 0 .1.2 0 .2-.1.1-.2.2-.4.1-.1-.1-.2-.2-.2-.3.1-.2.5-.2.6 0zm.9.1c0 .1 0 .2-.1.3-.1.1-.3 0-.4-.1 0-.1-.1-.2 0-.3.1-.1.1-.1.2-.1.1.1.3.1.3.2zm-29.6.1c.1.1 0 .2 0 .3-.1.1-.3.2-.4.1-.2-.1-.2-.3-.1-.4.1 0 .1-.2.2-.2s.2.1.3.2zm35.3 0c0 .2-.1.2-.3.3-.2.1-.3-.1-.4-.2 0-.1.1-.2.1-.3.3-.1.5.1.6.2zm-.9 0c.1.2-.1.3-.2.4-.1.1-.3 0-.4-.1-.1-.1-.1-.2-.1-.3.1-.1.2-.2.3-.2.2 0 .3.1.4.2zm7.9.2c0 .2-.3.1-.4.2-.7.4-1.7.1-2.4-.2.1-.2.3-.1.5-.2.7-.4 1.4.1 2.3.2zm-47.8-.2l-.1.1c-.6.4-1.5.6-2.3.4l-.1-.1c.7-.4 1.6-.6 2.5-.4zm42.6.1c0 .1-.1.3-.2.3-.2.1-.4 0-.5-.2-.1-.1.1-.3.2-.3.2.1.4.1.5.2zm-39.5.1c-.1.1 0 .3-.2.4-.2.1-.4-.1-.4-.2-.1-.2.1-.2.2-.3.1-.2.3 0 .4.1zm-1.2.1c.1.1-.1.2-.1.3-.1.1-.2.1-.3.1-.1-.1-.2-.2-.2-.4.1-.1.2-.1.3-.2.1 0 .2 0 .3.2zm41.9.4c0 .2-.1.3-.3.3-.1 0-.3-.1-.3-.2-.1-.1 0-.2.1-.3 0-.1.2-.1.2-.1.2 0 .3.2.3.3zM23.1 35c.1.1-.1.2-.1.3-.1.3-.2.5-.4.8-.3.4-.8.4-1.3.5l-.1-.1c.5-.7 1.1-1.2 1.9-1.5zm42.4.4c0 .2-.1.2-.3.3-.2 0-.3-.1-.3-.2-.1-.2.1-.3.2-.4.1 0 .3.2.4.3zm-40.4 0c-.1 0 0 .1 0 0 0 .3-.1.3-.2.4-.2 0-.3-.1-.4-.2-.1-.2 0-.4.2-.4.1 0 .3 0 .4.2zm43.6.5c.2 0 .2-.2.4-.3.2 0 .3.1.4.2.1.2-.1.3-.2.4-.1.1-.4-.1-.4.1.1.1.2.2.2.4 0 .1-.2.1-.2 0-.5-.2-1-.6-1.3-1.1-.1-.2-.4-.3-.2-.4.6 0 1 .4 1.3.7zm1.6-.5c.1.1.1.2 0 .3-.1.2-.3.1-.5.1-.1-.1-.2-.2-.1-.3.1-.1.1-.2.3-.2.1-.1.2 0 .3.1zm-6.3.9c.2.2.3.5.4.7 0 .1-.1 0-.2 0-.6-.3-1.4-.7-1.6-1.4-.1-.1-.2-.2-.2-.3.5-.1.9.2 1.2.5.2.3.3.3.4.5zm-39.9-.6c.1.2-.1.3-.2.4-.2 0-.3 0-.4-.1-.1-.2.1-.4.2-.4.2-.2.3 0 .4.1zm42.1.4c0 .1-.1.2-.2.2s-.3.1-.4-.1c0-.1-.1-.2 0-.3.2-.2.5 0 .6.2zm4.3.2c.1.2-.1.4-.2.4-.2.1-.3-.1-.4-.2-.1-.1 0-.2 0-.3.1-.1.3-.2.5-.1 0 .1.1.1.1.2zm-12.1 2.4c0 .2-.4.2-.5.3-.5.3-1.2.3-1.8.3v-.1c.6-.5 1.5-.7 2.3-.5zm-25.4.8c0 .2-.1.2-.3.3-.1 0-.2-.1-.3-.2-.1-.2.1-.3.2-.4.2.1.3.2.4.3zm25.2.2c0 .2-.1.3-.3.4-.2 0-.3-.1-.4-.1-.1-.1 0-.2-.1-.3.2-.3.6-.3.8 0zm3.4.1c-.4.3-.9.6-1.5.6h-.9l-.1-.1c.6-.7 1.6-.7 2.5-.6v.1zm-33.4.4c0 .2-.1.3-.2.3-.2 0-.3 0-.4-.2-.1-.2 0-.3.1-.4.2-.1.4.1.5.3zm.9.2c.1.1 0 .1-.1.2s-.2.1-.3 0c-.1-.1-.2-.2-.1-.3.1-.1.2-.1.2-.2.1.1.2.1.3.3zm-6.7 1.7c-.2.2-.5-.1-.6-.2-.6-.3-.6-1-1.2-1.4.1-.2.2 0 .3 0 .1.1.2.1.4.2.5.3.7.9 1.1 1.4z"/><path d="M73.3 35.3c-.3-.5-.8-.7-1.3-.7s-.8.3-1 .7c-.1.4 0 .7.3 1 .1.1.3 0 .3-.1.1-.2-.2-.2-.2-.4-.1-.2 0-.5.2-.6.2-.2.5-.1.7-.1.2.1.4.3.5.5.1.3.1.6 0 .9-.2.4-.6.8-1.1.9-1.4.2-17.4.1-17.4.1-1.9.2-4-.4-5.6.6-.7.4-1.1 1.2-1.3 1.9-.5.4-1 .9-1.4 1.4l-.1-.1c.1-.4.3-.8.4-1.2.3-.4.3-.8.5-1.2.7-1.1 1.3-2.2 2.3-2.9.4-.6 1.2-.5 1.9-.5.7.3 1.6.4 2.4.4l.1-.1c-.2-.2-.6-.3-.9-.5-.7-.3-1.4.1-2.1.1l-.1-.1c.7-.5 1.4-.8 2.2-1.2.6-.3 1.3-.5 1.9-.8.3 0 .5-.2.8-.1l.9-.2.1.1c.8-.3 1.8 0 2.7 0l.1.1.8.2c.3 0 .5.4.8.4.2-.2-.2-.4-.3-.5.4-.1.8 0 1.2.2l-.2.2c-.1.2.1.3.2.4.1 0 .2-.1.3-.1.2-.2 0-.3.1-.5 1.3.2 2.5.5 3.7 1.1.3.1.6.4 1 .3-.4-.3-.9-.5-1.3-.7-.3-.2-.7-.2-.9-.4.1-.1.2-.1.2-.1.6-.1 1.1-.5 1.5-1 0-.1.2-.1.2-.2-.2-.2-.4.1-.6 0-.7.1-1 1-1.8 1.2-.9-.2-1.8-.4-2.7-.7-.4-.1-.9-.1-1.3-.3l-1-.1h-1.8l-.1-.1c.6-.2 1.2-.5 1.8-.7l4.7-2.1c.5-.4.9-.9 1.3-1.4 0-.1-.1-.3-.2-.3-.1-.1-.3 0-.3.1-.2.2 0 .4 0 .5-.2.3-.5.5-.8.7-.1 0-4.8 2.2-4.8 2.2-.7.3-1.4.6-2.1.8l-1 .2c-.1.2-.2.3-.4.4-.3.1-.5.2-.8.2-2.3.9-4.6 1.8-6.4 3.6.1-.2.2-.5.2-.7 0-.3 0-.6-.2-.8 0-.1-.2-.4-.1-.5l-.3.2c-.2.4-.3 1.1-.1 1.5.1.3.3.7.1 1-.8 1-1.3 2.3-1.9 3.4-.2 0-.3-.2-.4-.4.6-.8 1.1-1.6 1.2-2.6.1-.1 0-.3.2-.4 0-.3.2-.6 0-.8.1-.4-.5-.7-.1-1l-.3.2c-.8 1 .4 2.5-.5 3.4V39c-.2.3-.4.6-.7.8-.4-.2-.6-.7-.8-1-.4-.4-.4-1.1-.2-1.6s-.1-1-.2-1.4l-.2-.1c-.4.5-.6 1.4-.2 2.1.2.3.2.8.5 1 .2.5.5.8.8 1.3.1.2-.1.2-.2.3-.2-.1-.2-.4-.3-.5-.6-1.2-1.3-2.2-2.2-3.2 0-.2-.2-.3-.1-.5.3-.3.4-.9.2-1.3 0-.1-.1-.2-.1-.3l-.3-.2c0 .6-.4 1.2-.2 1.8-1.8-1.4-3.8-2.6-5.8-3.5l-.2.4c.5.1 1.9 1 1.9 1 .6.2 1.2.6 1.7.9 2.4 1.3 3.9 3.5 5 5.9 0 .2.2.4.1.6-.4-.6-.9-.9-1.3-1.3-.1-.8-.6-1.6-1.3-2-.3-.4-.8-.4-1.3-.5h-6.4c-5.2-.1-9.9.2-15 .1-.7-.1-1.6-.3-1.8-1.1-.1-.3-.1-.7 0-1 .2-.3.5-.4.9-.5.3 0 .5.3.6.5 0 .2-.2.4-.3.6 0 .1.1.2.2.2.2-.1.4-.3.5-.6 0-.1.1-.3-.1-.4-.1-.4-.5-.6-.8-.7-.4 0-.9.1-1.2.4-.4.4-.4 1-.3 1.5.3.8 1.1 1.3 1.9 1.4l17 .1c1.7.1 3.5-.2 5.2.1.6.2 1.3.7 1.4 1.3h-.1c-1.4-.9-3.2-1.2-5-1-.7 0-1.3.2-2 .4-.3.1-.6-.1-.9-.3-.6-.6-1.7-.5-2.5-.3v.1c.9-.1 1.4.7 2.1.8.2 0 .3-.2.5 0-.8.4-1.6.8-2.4 1.1-.3-.1-.4-.3-.6-.4-.3-.4-.9-.2-1.4-.2-.2 0-.3-.1-.4 0 .1.3.5.4.8.6.4.2.9 0 1.3.2-.1.1-.2.2-.4.2-.8.3-1.5 1.1-2.4 1-1 .1-1.9-.2-2.6-.8-.3-.7-1-1.1-1.8-1-.1 0-.1 0-.1.1.4.2.7.7 1.1 1 .2.3.7 0 .9.3.3.2.8.4 1.1.5.3.1.6.2.9.2l-.1.1c-1.6.5-3.4.6-5.2.5-.5 0-1-.2-1.6-.2.1.1.3.2.4.2-.1.1-.3.1-.5.1-.2.1-.5.1-.7.2-.3 0-.5.1-.8.2-.3.3-.6.7-1 .8 0 .1 0 .2.1.2.3-.1.8 0 1.1-.2.6-.1.9-.7 1.4-.9.5-.4 1.2-.3 1.8-.2.3.1 0 .2.1.5.1.1.3.3.5.2l.1-.1c.1-.1.1-.3 0-.4.2-.2.6 0 .8-.1.7 0 1.3-.2 2-.2.1 0 .2-.1.3 0-.1.1-.2.2-.2.4s.2.2.3.3c.2-.1.3-.2.3-.4 0-.1-.2-.1-.3-.2.4-.2.8-.2 1.2-.4.3-.1.5-.1.7-.2.2 0 .4-.2.6-.1-.1.3-.2.6-.4.8-.3.9-.5 2.2 0 3.1h.1c-.4-.9-.2-2 .2-2.9.2-1.5 1.8-1.9 2.9-2.5l.1.1c-.3.8-.7 1.5-.7 2.4 0 .2-.1.3 0 .4.3-.2.5-.5.6-.8.1-.8-.3-1.8.5-2.4 1.4-.6 2.8-1.3 4.4-1.3.1.1.2 0 .2.1-.3.4-.9.8-1 1.2-.6.8-.5 2.1-.3 3 .2.5-.3.8-.5 1.3-.1.1-.1.4-.2.6h.3c.3-.3.6-.7.6-1.2 0 .2.2.3.3.4.1-.2-.1-.3-.1-.5.3-.2.4.2.6.3.4.1.7.2 1.1.2l.1-.1c-.4-.6-1.2-.7-1.8-.7-.3-.6-.3-1.3-.3-2 .1-.4.1-.8.3-1.1.1-.2.3-.5.5-.7.3-.3.7-.5 1.1-.6h.1v.1c-.5.4-.5.9-.8 1.3-.3.4-.4 1-.2 1.5.1.2.1.6.3.7.2-.3.2-.7.4-1.1-.1-.6-.4-1.1-.1-1.7.2-.4.5-.6.9-.8 1-.1 1.8.4 2.6.8.2.1.5.2.5.5 0 .5-.3 1-.6 1.2-.5.3-1.2.3-1.6 0-.3-.3-.4-.7-.3-1.1.2-.2.5-.4.8-.3.2.1.3.3.6.2.1-.1.1-.2.1-.3-.2-.1-.3-.4-.5-.4-.3-.1-.7 0-1 .2-.4.3-.5.8-.4 1.2.1.6.5 1 1.1 1.1.8.2 1.6-.1 2.1-.7.2-.2.3-.5.4-.8.8.5 1.5 1.4 1.8 2.3 0 .3.1.6 0 .9l.6.1c-.1-.1 0-.3.1-.4.2-1.2.9-2.1 1.8-2.9.3-.2.2.2.3.4.3.7.9 1.1 1.5 1.3.7.1 1.4-.1 1.9-.6.2-.4.5-1 .1-1.5-.2-.3-.6-.5-1-.5-.5 0-.7.3-1 .7 0 .1 0 .3.1.4.1 0 .2 0 .3-.1 0-.3.3-.4.5-.5.2-.1.4 0 .6.1.2.2.2.4.2.7 0 .3-.3.7-.6.8-.5.3-1.2.1-1.7-.2-.2-.2-.3-.5-.5-.8 0-.3-.1-.5 0-.8.8-.5 1.6-.8 2.5-.9.4.1.7.3.9.6.8.8-.2 2 .4 2.9.2 0 .2-.3.3-.5.3-.6-.1-1.3-.2-1.9-.2-.4-.3-.7-.7-1h.2c.4.2.8.5 1.1.9.5.8.8 1.8.7 2.9-.1.5-.7.8-1.1 1-.2.1-.4.4-.5.6.2.1.5 0 .7-.1.3-.1.5-.5.8-.7v.1c0 .2-.1.5.1.5.1-.2.1-.6.2-.9.2.2.3.6.3.9.2.3.4.7.8.8.1-.2 0-.3-.1-.5-.1-.4-.4-.7-.7-1-.6-.8-.3-2.2-.8-3.1-.2-.5-.5-.9-.9-1.3l.1-.1c.9 0 1.6.3 2.4.4 1 .5 2.4.4 2.8 1.6.2.7.5 1.4 1 1.9h.1c.1-.2.1-.5 0-.7-.1-.9-.9-1.1-1.3-1.8l.1-.1c.4.1.9.2 1.3.4 1.4.4 2.4 1.8 2.5 3.2 0 1.1-.2 2.1-.6 3-.1.1-.3.3-.1.4.2-.1.2-.4.3-.5.6-1 .9-2.3.6-3.5 0-.2-.3-.4-.2-.6.1.1.2.1.3.2.1-.1.3-.1.3-.2s.1-.2 0-.3c-.1-.2-.3-.2-.5-.1-.1.1-.2.2-.2.4-.2-.3-.3-.7-.6-.9v-.1c.8.3 1.5.6 2.3.9.2.1.4.2.6.2.7.3 1.4.4 2.1.5.5-.1 1 .2 1.5.1-.2-.2-.6 0-.8-.2-1.2-.1-2.4-.4-3.4-.9 0-.1.1 0 .1 0 .2-.1.3-.2.3-.4-.1-.1-.2-.2-.4-.2l-.3.3c0 .1.1.3.3.3h-.2c-.5-.2-1.1-.5-1.6-.7-.2 0-.3-.2-.5-.2-.4-.2-.8-.4-1.2-.5-1.1-.6-2.4-.9-3.5-1.3-.3-.1-.5-.1-.8-.2-.4-.1-.9-.2-1.3-.4-1.5-.4-3.5-.4-4.8.4-.2-.1-.3.3-.4.1.4-1 1.4-1.3 2.4-1.3 7-.1 13.6-.1 20.5-.2.8 0 1.6-.3 2-1 .5-1 .6-1.7.4-2.2zm-27.8 6.5c-.1.2-.2.4-.2.6h-.1c.1-.3-.2-.4-.1-.7-.1-.2-.1-.4-.3-.7-.2-.3.1-.4.3-.6.2.1.3.3.5.5.1.4-.1.6-.1.9z"/><path d="M64.5 40.7c0 .1.1.1.1.2-.6.5-1.5.7-2.3.7-.1 0-.1.1-.2.1s-.1-.1 0-.1c.5-.8 1.4-1.1 2.4-.9zm-2.9.3c.1.2-.1.4-.3.5-.2 0-.3-.1-.4-.3-.1-.1.1-.2.1-.3.2-.2.6-.2.6.1zm-33.1 0c0 .1 0 .3-.1.4-.1.1-.2.1-.3.1-.1 0-.2-.2-.2-.3 0-.2.1-.2.2-.3.1 0 .2 0 .4.1zm-3.2 1.2v.1c-.4.1-.8 0-1.1-.3-.2-.4-.5-.7-.9-.9 0-.1-.1-.1 0-.2.8.1 1.4.8 2 1.3zM67.1 41c-.4.6-.8 1.3-1.5 1.6-.1 0-.2.2-.3.1.3-.7.9-1.4 1.6-1.7h.2zm-37.6.2c0 .2-.1.2-.2.3-.1 0-.2-.1-.3-.2-.1-.2.1-.2.2-.3 0 0 .2.1.3.2zm39.8.1c-.2.2-.1.6-.2.8-.4.4-.6.9-1.2.9-.1-.2.1-.4.2-.5.2-.5.6-1.1 1.2-1.4v.2zm-49.4.2c.1.1.1.2 0 .4-.1.1-.3.1-.4.1-.2-.1-.2-.3-.1-.4.1-.3.4-.3.5-.1zm-1 .2c0 .1.1.2.1.2-.1.1-.1.2-.2.2-.2 0-.3-.1-.4-.2 0-.2 0-.3.2-.4.1 0 .2.1.3.2zm2.1.1c0 .1.1.4-.1.4-.2.1-.4-.1-.5-.2 0-.2.1-.3.2-.4.1 0 .3 0 .4.2zm2.8.2c0 .1 0 .3-.1.3-.1.1-.2.1-.3 0 0-.1-.2-.2-.1-.3l.2-.2c.1.1.3.1.3.2zm47.2.1c-.1.1-.1.3-.3.3-.2 0-.3 0-.4-.2-.1-.2.1-.3.2-.4.2.1.5.1.5.3zm-3.2.1c0 .1-.1.2-.2.3-.2.1-.5-.1-.5-.3 0-.2.2-.3.3-.3.2 0 .3.1.4.3zm2.2 0c0 .1-.1.2-.2.3-.1.1-.3 0-.4-.1-.2-.1 0-.3.1-.4.1 0 .4 0 .5.2zm-50.5.3c0 .2 0 .4-.2.4s-.3-.1-.4-.2c0-.2 0-.3.2-.4.1 0 .3.1.4.2zm47.4.2c.1.2-.1.4-.2.5-.1 0-.2 0-.3-.1-.1-.1-.2-.3 0-.4.1-.3.4-.2.5 0zm-38 .2c.1.2-.1.2-.2.3-.1 0-.2.1-.3 0-.1-.1-.2-.2-.1-.4l.2-.2c.2 0 .3.2.4.3zm41.8.1c0 .1-.1.2-.1.3-.1.1-.3.1-.4.1-.2-.2-.2-.3-.2-.5.1-.1.1-.2.2-.2.2.1.4.1.5.3zm-1.1.1c.1.2-.1.3-.3.4-.1 0-.2 0-.2.1.5.2.7.6 1.1.9v.1c-.6 0-1.3-.2-1.7-.7-.1-.1-.3-.1-.5-.2.2-.2.6-.1 1-.2.2-.2-.3-.4 0-.6.1 0 .2-.1.3-.1.1.1.2.1.3.3zm-7.2 0c0 .1-.1.2-.1.3-.1.1-.3.1-.4.1-.1-.1-.2-.2-.2-.4.2-.3.7-.3.7 0zm-39 .6c-.1.2-.1.3-.3.3-.1 0-.3-.1-.3-.2s.1-.2.1-.3c.2-.2.5-.1.5.2zm1.4-.2c0 .2-.3.4-.3.6-.3.6-.7 1.1-1.4 1.2-.1-.2.2-.4.3-.5.3-.6.8-.9 1.3-1.3h.1zm37.2.2c0 .2-.2.3-.3.4-.2.1-.3-.1-.4-.1-.1-.1-.1-.3 0-.4.3-.3.6-.1.7.1zm1.1.1c0 .2-.1.3-.3.4 0-.1-.1 0-.2 0-.1-.1-.2-.2-.2-.3.1-.1.1-.2.2-.2.2-.1.5-.1.5.1zm-35.6 0c0 .2-.1.3-.3.4-.2 0-.3-.1-.3-.2 0-.2.1-.3.2-.4.3-.1.3.1.4.2zm1.2.1c-.1.2-.2.3-.3.3-.1 0-.3-.1-.3-.2 0-.2.1-.3.2-.4.2 0 .4.1.4.3zm38.2 1.2c.1.1.2.2.2.3-.3.1-.5-.2-.8-.2-.4-.4-.7-.9-.9-1.4.2-.2.3 0 .5.1.4.3.8.7 1 1.2zm.6-1.2c.1.1 0 .3 0 .4-.1.2-.3.1-.5.1-.1-.1-.2-.2-.1-.4.1-.1.2-.2.3-.2.1-.1.2 0 .3.1zm-37.2.4c0 .1.1.4-.1.4s-.4 0-.4-.2c-.1-.2.1-.2.2-.4.1.1.2.1.3.2zm32.8 1.2c.2.4.4.8.5 1.2-.1.1.1.2 0 .3h-.1c-.8-.6-1-1.4-1.3-2.1-.1 0-.1-.1-.1-.2.2-.2.3.2.5.2l.5.6zm-30.5-.6c-.7.5-1.7.8-2.5.4 0-.1 0-.1.1-.2.5-.2 1-.4 1.5-.3l.9.1zm-4 .1c-.6.4-1.1 1.1-1.9 1.3-.1.1-.2.2-.4.1.3-.9 1.3-1.5 2.3-1.5v.1zm33.4.8c.1.1 0 .3-.1.4-.1.1-.3.1-.3 0-.2-.1-.2-.2-.2-.4.1-.1.2-.1.3-.2.1 0 .2 0 .3.2zm-1.4 0c-.1.2-.4.4-.6.5-.6.2-1.1-.1-1.7-.2 0-.1.2-.1.3-.2.6-.1 1.2-.2 1.8-.1h.2zm-32 .6c-.1.1-.1.2-.2.3-.1.1-.2 0-.3-.1 0-.1-.2-.2-.1-.3 0-.1.2-.2.3-.2.2 0 .3.1.3.3zm1.1.1c-.1.1-.1.3-.2.3s-.2 0-.3-.1c-.2-.1-.2-.2-.2-.3 0-.1.2-.1.2-.2.2 0 .4.2.5.3zm32 .2c0 .1-.1.2-.1.3-.1.1-.3.1-.4.1-.1 0-.2-.2-.2-.2-.1-.1.1-.2.1-.4.2-.2.5-.1.6.2zm.8 0c0 .1.1.2 0 .2-.1.1-.2.3-.4.2-.1.1-.1-.1-.2-.1-.1-.2 0-.4.2-.5.2 0 .3.1.4.2zm-33.5.5c0 .2 0 .4-.2.5-.2 0-.4 0-.5-.2 0-.2 0-.4.2-.5.2-.1.4 0 .5.2zm1-.1c0 .5-.1 1.1-.6 1.4-.3.1-.6.3-.8.1v-.1c.3-.5 1-.9 1.4-1.4zm29 .4c.1.1-.1.2-.1.3-.1.1-.3.1-.4 0-.1-.1-.1-.2-.1-.4 0-.1.1-.2.2-.2s.3.2.4.3zm-27.2.8c.2.4.1.9.2 1.4-.3 0-.4-.3-.6-.5-.4-.5-.3-1.2-.5-1.8 0-.1.1-.1.1 0 .3.2.5.5.7.7-.1.1.1.1.1.2zm28-.7c0 .1-.2.2-.2.3-.1 0-.2-.1-.3-.2-.1-.2.1-.2.2-.3.1 0 .3 0 .3.2zm2.1 1.6c0 .1 0 .2-.1.1h-.1c-.5-.5-1-1-.9-1.7h.1c.5.4 1 .9 1 1.6zm-1.3-.6c0 .1-.1.2-.2.3-.2.1-.5 0-.5-.2s.2-.3.3-.4c.2 0 .3.2.4.3zm-1.2.4c-.2.7-.9 1-1.4 1.5-.1-.1-.1-.2 0-.3.2-.7.7-1.3 1.3-1.6.4.1.1.3.1.4zm1.4.5c0 .2-.2.2-.2.3-.1 0-.3-.1-.4-.2 0-.2.1-.2.2-.3.1 0 .3.1.4.2zm-13-31.9c.2 0 .4.2.4.4s-.2.4-.4.4h-5.2c-.2 0-.4-.2-.4-.4s.2-.4.4-.4h5.2zm-3.7.8c.5 0 0-.6-.2-.6h-.5c-.5 0 0 .6.2.6h.5zm2.1 0c.5 0 0-.6-.2-.6h-.5c-.5 0 0 .6.2.6h.5zm1.6-.6h-.2c-.5 0-.1.6.2.6.3 0 .3-.6 0-.6zm-.5 5.8l1 .4 1-.4-.4 1.4.8-.2-.3.9.3.8-.7-.1.3 1.6-1-.4-1 .4.4-1.6-.8.2.2-.9-.2-.8.8.1-.4-1.4zm1.5 2.6c.2 0 .2-.3.2-.6 0-.6-.5 0-.7-.6-.2.5-.7 0-.7.5 0 .4 0 .6.3.6h.9v.1zm-1-.6c0 .2.3.1.5.1s.5.2.5-.1c0-.3-.3-.2-.5-.2s-.5-.1-.5.2zm-2.8.1v-.2h-.2l.2-.2-.1-.1h.1l.1-.2.1.2h.2l-.1.1.2.2h-.2v.2l-.2-.1-.1.1zm-.8 1v-.2h-.1l.1-.2-.1-.1h.2l.1-.2.1.2h.2l-.1.1.1.2h-.2v.2l-.1-.1-.2.1zm1.3-.1v-.2l-.1-.1.1-.1-.1-.1h.2l.1-.2.1.2h.2l-.1.1.1.1-.2.1v.2l-.1-.2-.2.2zm.2.7v-.1h-.1l.1-.1-.1-.1h.1l.1-.1v.1h.1v.1l.1.1h-.1v.1l-.1-.1-.1.1zm-1.2.8v-.3h-.3l.2-.3-.1-.2h.3l.1-.3.2.3h.3l-.1.2.2.3H45v.3l-.3-.2-.2.2zm.6-16.5l.6 1.5 1.6-.5-.8 1.4 1.3 1-1.6.2.1 1.7-1.2-1.1-1.2 1.1.1-1.7-1.6-.2 1.3-1-.8-1.4 1.6.5.6-1.5zm-5.6 33.9c-.2.1-.3.1-.2.3l.2.9c0 .2.1.4-.1.6-.1.2-.4.3-.6.4-.2 0-.5.1-.7 0-.2-.1-.3-.2-.4-.5l-.2-1c-.1-.2-.2-.2-.4-.2v-.1l1.2-.3v.1c-.2.1-.3.1-.3.3l.2 1c0 .2.1.6.6.4.6-.1.5-.6.5-.8l-.2-.9c0-.2-.1-.3-.4-.2v-.1l.8.1zm1.7.2c-.1-.2-.4-.5-.8-.4-.2 0-.4.2-.3.4 0 .2.1.2.4.3l.6.1c.1 0 .4.1.5.5.1.3-.1.7-.7.8-.3.1-.5 0-.6 0-.1 0-.1.1-.1.1h-.1l-.2-.7h.1c.1.3.4.6.9.5.4-.1.4-.4.4-.4 0-.2-.2-.2-.5-.3h-.3c-.6-.1-.7-.4-.7-.5 0-.2 0-.6.6-.7.3-.1.5 0 .6 0 .1 0 .1-.1.1-.1h.1v.4zm2.3 1.1l-1.3.1v-.1c.3 0 .3-.1.3-.3l-.1-1.5c-.2 0-.6.1-.6.6h-.1V45l2.1-.2.1.6h-.1c-.1-.5-.5-.4-.7-.4l.1 1.6c-.1.2 0 .2.3.2zm3 0h-.7l-.8-1h-.1v.6c0 .2.1.2.3.3v.1H44v-.1c.2 0 .3 0 .3-.3v-1.3c0-.3-.1-.3-.3-.3v-.1h1.1c.2 0 1 0 1 .5 0 .4-.4.5-.6.5l.7.9c.2.1.2.1.3.2zm-1.6-1c.5 0 .7-.1.7-.4 0-.3-.1-.4-.4-.4-.2 0-.2 0-.2.1l-.1.7z"/><path d="M48.8 47.1l-1.2-.1v-.1c.2 0 .3 0 .3-.1s-.1-.3-.1-.4l-.8-.1c-.1.2-.2.3-.2.4 0 .1.2.1.3.2v.1l-.7-.1v-.1c.2 0 .3-.1.4-.3l1-1.5h.1l.6 1.7c.1.2.1.3.3.4zm-1-.8l-.3-.8-.4.7.7.1zm3.1 1.2l-2-.4V47c.2 0 .3 0 .3-.2l.3-1.4c0-.2-.1-.2-.3-.3V45l1.2.2v.1c-.2 0-.4-.1-.4.2l-.3 1.4c0 .1 0 .2.3.2.5.1.8-.1 1-.4h.1l-.2.8zm1.3.3l-1.2-.2v-.1c.2 0 .3 0 .4-.1l.3-1.4c0-.2-.1-.2-.3-.3v-.1l1.2.3v.1c-.2 0-.3-.1-.4.1l-.3 1.4c0 .2.1.2.3.3zm2.5.4l-1.2-.2v-.1c.2 0 .3 0 .3-.1s-.1-.3-.1-.4l-.8-.1c-.1.2-.2.3-.2.4 0 .1.2.1.3.2v.1l-.7-.1v-.1c.2 0 .3-.1.4-.3l1-1.5h.1l.6 1.6c.1.4.1.5.3.6zm-1-.9l-.3-.8-.4.8h.7zM45.6 24c0-.7-.4 0-.6-.7-.2.5-.6.1-.6.6 0 .2.1.3.2.4v.2c0 .1 0 .1.1.1h.8c.1 0 .1 0 .1-.1v-.2c-.1 0 0-.1 0-.3zm-.6.2c-.2 0-.5.1-.5-.1 0-.4.2-.3.4-.3s.5-.1.5.3c0 .2-.2.1-.4.1zm6.8 8.6c.2 0 .3-.1.3-.3 0-.2-.1-.3-.3-.3-.2 0-.3.1-.3.3 0 .2.1.3.3.3zm-1.5-10.6l-.2.3c0 .1.1.2.2.2s.2-.1.2-.2c-.1 0-.2-.3-.2-.3zm-10.6 0l-.2.3c0 .1.1.2.2.2s.2-.1.2-.2l-.2-.3zm2.7 0l-.2.3c0 .1.1.2.2.2s.2-.1.2-.2c-.1 0-.2-.3-.2-.3zm2.6 0l-.2.3c0 .1.1.2.2.2s.2-.1.2-.2l-.2-.3zm2.6 0l-.2.3c0 .1.1.2.2.2s.2-.1.2-.2l-.2-.3zm-7.9 3.6l.2.3c0 .1-.1.2-.2.2s-.2-.1-.2-.2c.1 0 .2-.3.2-.3zm0 3.6l.2.3c0 .1-.1.2-.2.2s-.2-.1-.2-.2c.1 0 .2-.3.2-.3zm.5 2.7l.2.3c0 .1-.1.2-.2.2s-.2-.1-.2-.2l.2-.3zm2.2 1.5l.2.3c0 .1-.1.2-.2.2s-.2-.1-.2-.2l.2-.3zm8-7.8l-.2.3c0 .1.1.2.2.2s.2-.1.2-.2l-.2-.3zm0 3.6l-.2.3c0 .1.1.2.2.2s.2-.1.2-.2l-.2-.3zm-.4 2.7l-.2.3c0 .1.1.2.2.2s.2-.1.2-.2c-.1 0-.2-.3-.2-.3zm-2.2 1.5l-.2.3c0 .1.1.2.2.2s.2-.1.2-.2c-.1 0-.2-.3-.2-.3zm-2.7 1.6l-.2.3c0 .1.1.2.2.2s.2-.1.2-.2c-.1 0-.2-.3-.2-.3zm4.3-5.3c0 .1.1.1.2 0l.1-.3s-.1-.1-.2-.1c-.3.1-.6.1-.7.4 0 .2.1.4.3.4.1 0 .1.1.2.1 0 .1 0 .2-.1.2-.2-.2-.5.1-.7-.2.1-.3.2-.5 0-.8 0 0 .1-.1.1-.2-.1-.2-.3 0-.5 0s-.4.1-.6.3c0 .1 0 .2.1.3.1 0 .1 0 .1.1l-.2.1c0 .1 0 .1.1.2-.1 0-.2-.1-.3-.2 0-.1 0-.4-.2-.4H47c0 .1-.1.2-.1.3 0 .1.1.3.1.3s.5.4.6.6c-.1.3-.1.7-.5.9-.1.1-.1.2-.1.3l.1.1c.2-.1.6-.2.6-.5.1-.1.2-.3.3-.4.2 0 .3 0 .4.2-.1.3-.2.4-.4.5v.1c.1.1.2.1.3.1.3-.2.4-.5.6-.6 0 .2-.3.2-.1.4.1 0 .3 0 .4-.2-.1-.3.4-.4.1-.7 0-.2.3-.4.2-.6-.1-.3-.4-.3-.5-.5.1-.2.3-.2.4-.2zM37.3 33c.2 0 .3-.1.3-.3 0-.2-.1-.3-.3-.3-.2 0-.3.1-.3.3-.1.1.1.3.3.3zM20.2 43c.2 0 .3-.1.3-.3 0-.2-.1-.3-.3-.3-.2 0-.3.1-.3.3-.1.1.1.3.3.3zM31 45.4c0-.1 0-.1 0 0 0-.1 0-.1 0 0zm0 0c0-.1 0-.1 0 0 0-.1 0-.1 0 0zm.1 0c0-.1 0-.1 0 0 0-.1 0-.1 0 0 0-.1 0-.1 0 0-.1 0-.1 0 0 0-.1-.1 0-.1 0 0 0-.1 0-.1 0 0 0-.1 0-.1 0 0zm.1-.1c-.1 0-.1 0 0 0-.1 0-.1 0 0 0-.1 0-.1 0 0 0-.1 0-.1 0 0 0zm0 .1c0-.1 0-.1 0 0 0-.1 0-.1 0 0zm0 0c0-.1 0-.1 0 0 0-.1 0-.1 0 0zm.1 0z"/><path d="M51.2 21.8H39v9.3c0 .9.4 1.8 1 2l4.7 3c.1.1.3.2.4.2.1 0 .3-.1.4-.1l4.8-3c.6-.3 1-1.1 1-2l-.1-9.4zm-.4 9.4c-.1.7-.3 1.3-.8 1.6l-4.6 2.9c-.1.1-.2.1-.4.1-.1 0-.3 0-.4-.1L40 32.8c-.5-.3-.7-.9-.8-1.6v-9.1h11.5v9.1h.1z"/><path d="M46.7 35.3l.1-.1c0 .1-.1.1-.1.1zm-9.2 12.8l-1.1.1v-.1c.2 0 .3-.1.3-.1 0-.1-.1-.3-.2-.4l-.8.1c-.1.2-.1.4-.1.4 0 .1.2.1.3.1v.1l-.7.1v-.1c.2 0 .2-.2.3-.4l.6-1.7h.1l1 1.5c.1.2.2.3.3.4zm-1.1-.6l-.4-.7-.2.8.6-.1z"/><path d="M57.7 43.7c-.2-.5-.6-.9-1.2-1.1-.6-.1-1.2 0-1.5.4-.6.5-.2 1.4-.2 2 0 .1 0 .2-.1.3-2.5-.2-4.9-.9-7.4-1.1-.6-.1-1.2-.1-1.7-.2h-.7c-2.2.1-4.4.2-6.4.7-.4.1-.9.2-1.4.3-.3-.1-.6.2-.9.1l-.6.1h-.2c-.3-.7.6-1.2.3-1.9-.2-.4-.7-.8-1.2-.7-.6-.1-1.1.3-1.4.7-.4.9.1 1.8.3 2.7 0 .3.3.6 0 .8-.6-.4-1.3-.6-2-.4-.2.1-.6 0-.7.2.8.4 1.7.4 2.5.3.1 0 .2-.1.3 0 .1.5-.1 1.1.2 1.5.3.4.8.5 1.3.6 1.6-.1 3-.5 4.5-.9.2 0 .4-.1.6-.1.8-.2 1.6-.3 2.5-.3-.4.5-.6 1-.7 1.6-.2.5.4.5.5.8-.5.2-.9.5-1.4.7-1.1 0-2.1.4-3.1.5 0 .2.4.2.4.4-.1.2-.2.2-.3.3 0 .1 0 .1.1.1.1-.1.3 0 .4-.2.3 0 .6-.1 1-.1.3-.1.6-.1.9-.4.4-.1.6-.4 1-.5.5 0 1-.2 1.5-.2v.1c-.4.6-.8 1.3-1.2 1.9-.1.1 0 .2.1.3.2.1.5 0 .7-.1.4-.6.7-1.2 1-1.9.1-.6.6-.9 1-1.3.1 0 .2-.1.2 0-.3.4-.6.8-.8 1.2-.1.5-.2 1.1.3 1.5.2.2.5.1.8.1.7-.4 1.6.2 2.1-.5.3-.1.4.3.5.5.3.1.6.4.9.2 0-.2-.2-.4-.3-.5-.2-.4-.5-.7-.7-1-.1-.2-.2-.4-.3-.7.3.1.6.3.9.4.3.1.7.1.9.3.2.3.6.5.9.7.4.2.9.2 1.4.4.2 0 .4.2.6 0-.1-.1-.2-.1-.3-.2-.1-.2.3-.1.4-.3 0-.1-.1-.1-.2-.1-.3-.1-.9-.2-1-.3-.2 0-.4-.1-.6-.2-1 0-1.6-1-2.5-1.3.2-.2.5-.3.6-.6.2-.2.2-.7.1-.9-.2-.5-.9-.5-1.3-.8l.1-.1c.7 0 1.3.1 1.9.2 1.7.2 3.2.9 5 .9 1 0 2.2.1 2.6-.9.1-.5.2-1.1.3-1.6.2-.6.8-1.4.7-2.4zm-18.9 8l-.2-.2c.1-.2.4-.1.6-.2.5-.1 1-.3 1.5-.2-.6.4-1.3.5-1.9.6zm10.9-.3c.4.2 1.3.4 1.9.4-.1.2-.5 0-.4.4-.5-.2-1.2-.3-1.6-.7l.1-.1zM33.3 44c.1-.3.1-.7.4-.9.4-.2 1-.2 1.4.1l.3.3c.1.3-.1.6-.3.8H35c0-.3 0-.6.1-.8 0-.2-.2-.2-.3-.3-.3-.1-.6.1-.8.2-.2.2-.3.5-.2.8.1.2 0 .5.1.7l-.1.1c-.2-.4-.5-.6-.5-1zm.9.5c.3.2.6.1.9.2.1.2.1.4-.1.6-.3-.1-.7 0-.8-.3 0-.2-.1-.4 0-.5zm-.1-.6c.1-.1 0-.4.2-.4.1 0 .3 0 .3.1 0 .2 0 .4-.1.6-.2 0-.3-.1-.4-.3zm8.2 5.6c-.1-.6.2-1.1.6-1.6.2-.1.5-.1.8 0-.5.1-1 .2-1.1.8 0 .2-.1.4.1.5.2.3.6.2.9.5 0 .1-.1.2-.2.2-.5-.1-.8-.1-1.1-.4zm-.6 1.2c.4-.2.9-.5 1.3-.4-.3.3-.9.4-1.3.4zm1.6.2c-.2.6-.5 1.1-.9 1.7 0 .1-.2.1-.3.1 0-.2.2-.4.3-.7.4-.5.5-1 .9-1.4.2.1 0 .2 0 .3zm.5-1s-.1 0 0 0zm-.2-.5c-.3 0-.6-.1-.8-.2-.2-.2 0-.4 0-.6.2-.4.9-.6 1.3-.2-.1.4-.2.7-.5 1zm.4 0c.1-.2.2-.5.3-.7 0 .2-.2.5-.3.7zm.2-1.4c-.2-.1-.3-.3-.6-.3.2-.1.4-.1.7 0 0 .1-.1.2-.1.3zm.2.5v-.2.2zm0 .8c0-.1 0-.2.1-.2.1-.1.2.1.2.1-.1.1-.2.1-.3.1zm.3-1.1c.1-.2.1-.5.3-.7.2 0 .3 0 .5.1 0 .4.5.8 0 1.1-.2.1-.4.2-.6.1-.3-.1-.3-.3-.2-.6zm1.2-.5c0-.2.2 0 .2-.1h.5c-.2 0-.5.7-.7.1zm.9.3c-.2.1-.4.3-.6.4.2-.2.4-.4.6-.4zm-.7 1.1zm0 1v.1l-.4-.3c.2 0 .3.1.4.2zm-.4-.5h.2-.2zm-.3-.3c.1-.1.2-.3.3-.3v.1c-.1.1-.2.2-.3.2zm-.4 0v-.1c.1 0 0 .1 0 .1zm.1.7c.2-.2.4.1.5.3.3.4.9.7.7 1.3-.3.3-.9 0-1.2.2-.2 0-.5 0-.6-.2.1-.5.3-1.1.6-1.6zm-.5.3l.1-.1c-.1.4-.4.9-.6 1.3-.1-.5.3-.8.5-1.2zm.7 2.1c-.3 0-.8.2-1.2-.1 0-.1-.1-.2-.1-.4.3-.1.5.2.8 0 .4 0 .8-.1 1.2 0 .2.1.5-.3.5.1 0 .6-.7.2-1.2.4zm1.1-2.5zm.1 1.1c0 .2.2.2.1.4-.1-.1-.2-.3-.1-.4zm.4 1c-.2 0-.1-.2-.1-.3.1.1.2.2.1.3zm.9.4c0 .1-.1.1-.1 0-.5-.7-.8-1.4-1.1-2.1h.1c.4.7.7 1.5 1.1 2.1zm.7-1.6c-.1 0-.1.1 0 0-.5.1-.9-.2-1.3-.5v-.1c.5.1.8.4 1.3.6zm-.5-2.3c.2.1.2.3.2.5 0 .4-.2.7-.6.9-.2.1-.5.1-.7.1.4 0 .9-.2 1-.6l.1-.9zm-.4-.1c.1.2.2.5.2.8-.2.3-.5.3-.8.4-.2 0-.3 0-.4-.1 0-.1 0-.1-.1-.2.1-.2-.4-.5-.1-.7.3-.2.9-.8 1.2-.2zm8.9-1.3c-.1.2 0 .5-.2.6 0 .3-.3.5-.5.6-2.1.5-4.1-.2-6.1-.6-2.8-.6-6.1-.8-9-.1-1.3.2-2.7.6-3.9.9-.8.1-1.7.2-2.4 0-.6-.3-.4-1.1-.6-1.7 0-.4-.1-.8-.1-1.2-.1-.1-.1-.3-.1-.5.3 0 .5.2.8.3 1.5.3 2.8-.2 4.1-.4 1.3-.3 2.7-.5 4-.6 1.6 0 3.2-.1 4.7.2.5 0 .9.1 1.4.2 1 .1 1.9.4 2.9.5.2.1.3.1.5.1 1.6.2 3.3.7 4.8 0 0 .5-.2 1.1-.3 1.7zM56 45c0 .3-.2.2-.4.3h-.4c-.1-.1-.1-.4-.1-.5.3.1.6.1.9.2zm-.2-.5c.2-.2-.1-1.3.5-.6 0 .1 0 .4-.1.5-.1.1-.2.2-.4.1zm1.4-.1c-.2.3-.4.5-.8.6 0-.4.4-.7.3-1.2-.2-.3-.7-.4-1.1-.4-.2.1-.1.3-.1.4l-.1.6c-.4 0-.4-.3-.5-.6 0-.4.2-.7.5-.9.3-.1.7-.1 1 0 .2.1.5.2.6.4.3.3.3.8.2 1.1z"/><path class="st1" d="M78.7 37.8h136.7"/><path class="st0" d="M78.7 49.9v-.2h.3c.2 0 .4 0 .5-.1.1-.1.2-.2.2-.3v-5.2c0-.4 0-.6-.1-.7 0-.1-.1-.2-.2-.2-.1-.1-.3-.1-.5-.1h-.2v-.2h3.1c.8 0 1.5.1 2 .3.6.3 1.1.7 1.4 1.3.3.6.5 1.2.5 1.9 0 .5-.1.9-.2 1.4-.2.4-.4.8-.6 1-.3.3-.5.5-.9.6-.3.2-.7.3-1.2.4-.2 0-.5.1-1 .1h-3.1zm2.7-6.6v6c0 .1.1.1.1.1.1.1.2.1.4.1.6 0 1-.2 1.3-.6.4-.5.6-1.4.6-2.5 0-.9-.1-1.6-.4-2.2-.2-.4-.5-.7-.9-.9-.1.1-.5 0-1.1 0zm9 4h-2.6c0 .6.2 1.1.5 1.5.2.3.5.4.9.4.2 0 .4-.1.6-.2.2-.1.3-.3.5-.6l.2.1c-.3.5-.6.9-.9 1.1-.3.2-.7.3-1.1.3-.7 0-1.3-.3-1.6-.8-.3-.4-.4-1-.4-1.7 0-.8.2-1.4.7-1.9.4-.5.9-.7 1.5-.7.5 0 .9.2 1.3.6.2.5.4 1.1.4 1.9zm-1.3-.3c0-.6 0-.9-.1-1.1-.1-.2-.2-.4-.3-.5-.1-.1-.2-.1-.3-.1-.2 0-.3.1-.4.3-.2.3-.3.7-.3 1.3v.1h1.4zm3.6 2.4v1.8c0 .2 0 .4.1.5 0 .1.1.2.2.2s.2.1.5.1v.2h-2.7V52c.2 0 .4-.1.5-.2.1-.1.1-.3.1-.6v-5.1c0-.3 0-.6-.1-.6-.1-.1-.2-.2-.5-.2v-.2h2v.6c.2-.2.3-.4.5-.5.3-.2.5-.2.8-.2.4 0 .7.1 1 .3.3.2.5.5.7.9.2.4.2.8.2 1.3s-.1.9-.2 1.3c-.2.4-.4.7-.7.9-.3.2-.6.3-1 .3-.3 0-.5-.1-.7-.2-.4 0-.6-.2-.7-.4zm0-.5c.3.4.6.6.9.6.2 0 .3-.1.5-.3.2-.3.3-.8.3-1.7 0-.8-.1-1.4-.3-1.7-.1-.2-.3-.3-.5-.3-.3 0-.6.3-.9.8v2.6zm6.4.3c-.6.5-1.1.8-1.6.8-.3 0-.5-.1-.7-.3-.2-.2-.3-.4-.3-.7 0-.4.2-.7.5-1 .3-.3 1-.7 2.1-1.2v-.5c0-.4 0-.6-.1-.7 0-.1-.1-.2-.2-.2-.1-.1-.2-.1-.4-.1s-.4 0-.6.1c-.1.1-.1.1-.1.2s0 .2.1.3c.1.1.2.3.2.4 0 .2-.1.3-.2.4 0 .3-.2.3-.4.3s-.4-.1-.5-.2c-.1-.1-.2-.3-.2-.5s.1-.5.3-.7c.2-.2.5-.4.8-.5.4-.1.7-.2 1.1-.2.5 0 .8.1 1.1.3.3.2.4.4.5.6 0 .1.1.5.1 1v2.3c0 .1 0 .1.1.1h.1c.1 0 .2-.1.3-.2l.2.1c-.2.3-.4.4-.5.6-.2.1-.4.2-.6.2-.3 0-.5-.1-.6-.2-.4 0-.4-.2-.5-.5zm0-.4v-1.6c-.4.2-.7.5-.9.8-.1.2-.2.4-.2.6 0 .2.1.3.2.4.1.1.2.1.4.1.1 0 .3-.1.5-.3z"/><path d="M103.4 45.1v1.1c.3-.5.6-.8.8-1 .2-.2.5-.2.7-.2.2 0 .3.1.5.2.1.1.2.3.2.5s-.1.4-.2.5c-.1.1-.2.2-.4.2s-.3-.1-.5-.2l-.2-.2h-.1c-.1 0-.2 0-.3.1-.1.1-.2.3-.3.5-.1.3-.2.7-.2 1.1v1.8c0 .1.1.2.2.2s.2.1.4.1v.2h-2.6v-.2c.2 0 .4-.1.4-.2.1-.1.1-.4.1-.8v-3.2c0-.1-.1-.2-.1-.2-.1 0-.2-.1-.3-.1v-.2h1.9zm4.6-1.8v1.8h1.1v.5H108v3.5c0 .1.1.1.1.2.1 0 .1.1.2.1.2 0 .4-.2.6-.5l.2.1c-.3.7-.7 1-1.4 1-.3 0-.6-.1-.8-.3-.2-.2-.3-.4-.4-.6 0-.1-.1-.4-.1-.9v-2.6h-.6v-.2c.4-.3.8-.6 1.1-1 .3-.3.6-.7.8-1.1h.3zm3.6 1.8v.6c.3-.3.5-.5.7-.6.2-.1.5-.2.7-.2.3 0 .6.1.8.2.2.1.4.4.5.7.3-.3.5-.5.8-.7.3-.1.5-.2.8-.2.3 0 .6.1.8.2.2.2.3.3.4.6.1.2.1.6.1 1.1v2c0 .4 0 .6.1.7.1.1.2.1.4.2v.2h-2.5v-.2c.2 0 .3-.1.4-.2.1-.1.1-.3.1-.6v-2.1c0-.4 0-.7-.1-.8 0-.1-.1-.2-.2-.3-.1-.1-.2-.1-.3-.1-.1 0-.3.1-.4.2-.2.1-.3.3-.5.5v2.6c0 .3 0 .6.1.7.1.1.2.2.5.2v.2h-2.5v-.2c.1 0 .2 0 .3-.1l.2-.2v-2.7c0-.4 0-.7-.1-.8 0-.1-.1-.2-.2-.3-.1-.1-.2-.1-.3-.1-.1 0-.3 0-.4.1-.2.1-.3.3-.5.5v2.6c0 .3 0 .6.1.7.1.1.2.2.4.2v.2h-2.5v-.2c.2 0 .3-.1.4-.2.1-.1.1-.3.1-.7v-2.7c0-.4 0-.6-.1-.7-.1-.1-.2-.1-.4-.2V45h2.3v.1z"/><path class="st0" d="M122.2 47.3h-2.6c0 .6.2 1.1.5 1.5.2.3.5.4.9.4.2 0 .4-.1.6-.2.2-.1.3-.3.5-.6l.2.1c-.3.5-.6.9-.9 1.1-.3.2-.7.3-1.1.3-.7 0-1.3-.3-1.6-.8-.3-.4-.4-1-.4-1.7 0-.8.2-1.4.7-1.9.4-.5.9-.7 1.5-.7.5 0 .9.2 1.3.6.2.5.4 1.1.4 1.9zm-1.3-.3c0-.6 0-.9-.1-1.1-.1-.2-.2-.4-.3-.5-.1-.1-.2-.1-.3-.1-.2 0-.3.1-.4.3-.2.3-.3.7-.3 1.3v.1h1.4z"/><path d="M124.7 45.1v.6c.2-.3.5-.5.7-.6.2-.1.5-.2.7-.2.3 0 .6.1.8.3.2.2.3.4.4.6.1.2.1.6.1 1.1v1.9c0 .4 0 .6.1.7.1.1.2.1.4.2v.2h-2.4v-.2c.2 0 .3-.1.4-.2.1-.1.1-.3.1-.6v-2.8c0-.1-.1-.2-.2-.2-.1-.1-.2-.1-.2-.1-.3 0-.6.2-.8.6V49c0 .4 0 .6.1.7.1.1.2.2.4.2v.2h-2.4v-.2c.2 0 .3-.1.4-.2.1-.1.1-.3.1-.7v-2.7c0-.4 0-.6-.1-.7-.1-.1-.2-.1-.4-.2v-.2h1.8v-.1zm5.4-1.8v1.8h1.1v.5h-1.1v3.5c0 .1.1.1.1.2.1 0 .1.1.2.1.2 0 .4-.2.6-.5l.2.1c-.3.7-.7 1-1.4 1-.3 0-.6-.1-.8-.3-.2-.2-.3-.4-.4-.6 0-.1-.1-.4-.1-.9v-2.6h-.5v-.2c.4-.3.8-.6 1.1-1 .3-.3.6-.7.8-1.1h.2z"/><path class="st0" d="M136.3 44.9c.4 0 .8.1 1.2.3.4.2.6.5.8.9.2.4.3.8.3 1.3 0 .7-.2 1.3-.5 1.7-.4.6-1 .8-1.7.8s-1.3-.3-1.7-.8c-.4-.5-.6-1.1-.6-1.8s.2-1.3.6-1.8c.4-.3.9-.6 1.6-.6zm0 .4c-.2 0-.3.1-.5.2-.1.1-.2.4-.2.8s-.1.9-.1 1.6c0 .4 0 .7.1 1 0 .2.1.4.2.6.1.1.3.2.4.2.2 0 .3 0 .4-.1.1-.1.2-.3.3-.5.1-.3.1-1 .1-2 0-.6 0-1-.1-1.2-.1-.2-.2-.4-.3-.5 0-.1-.1-.1-.3-.1z"/><path d="M141.2 45.6v3.3c0 .3 0 .5.1.6.1.1.3.2.6.2v.2H139v-.2c.2 0 .4 0 .5-.1.1 0 .2-.1.2-.2s.1-.3.1-.5v-3.3h-.8v-.5h.7v-.6c0-.5.2-.9.5-1.2.4-.3.9-.5 1.5-.5.4 0 .7.1.9.2.2.2.3.3.3.5s-.1.3-.2.4c-.1.1-.3.2-.5.2s-.3 0-.4-.1c-.1-.1-.2-.2-.2-.3v-.4c0-.1 0-.1-.1-.2s-.1-.1-.2-.1-.2 0-.3.1c-.1.1-.1.2-.1.4V45h.7v.5h-.4v.1zm10.7-2.7v.2c-.3 0-.5.2-.7.4-.1.2-.4.6-.6 1.2l-2.4 5.3h-.2l-2.4-5.6c-.3-.7-.5-1.1-.6-1.2-.1-.1-.3-.2-.6-.2v-.2h3.4v.2h-.1c-.3 0-.5 0-.6.1-.1.1-.1.1-.1.2v.2c0 .1.1.3.3.7l1.5 3.5 1.4-3.1c.2-.4.3-.6.3-.8 0-.1.1-.2.1-.3 0-.1 0-.2-.1-.3l-.2-.2c-.1-.1-.3-.1-.6-.1v-.2h2.2v.2z"/><path class="st0" d="M154.7 47.3h-2.6c0 .6.2 1.1.5 1.5.2.3.5.4.9.4.2 0 .4-.1.6-.2.2-.1.3-.3.5-.6l.2.1c-.3.5-.5.9-.9 1.1-.3.2-.7.3-1.1.3-.7 0-1.3-.3-1.6-.8-.3-.4-.4-1-.4-1.7 0-.8.2-1.4.6-1.9.4-.5.9-.7 1.5-.7.5 0 .9.2 1.3.6.3.5.5 1.1.5 1.9zm-1.3-.3c0-.6 0-.9-.1-1.1-.1-.2-.2-.4-.3-.5-.1-.1-.2-.1-.3-.1-.2 0-.3.1-.4.3-.2.3-.3.7-.3 1.3v.1h1.4z"/><path d="M157 43.3v1.8h1.1v.5H157v3.5c0 .1.1.1.1.2.1 0 .1.1.2.1.2 0 .4-.2.6-.5l.2.1c-.3.7-.7 1-1.4 1-.3 0-.6-.1-.8-.3-.2-.2-.3-.4-.4-.6 0-.1-.1-.4-.1-.9v-2.6h-.6v-.2c.4-.3.8-.6 1.1-1 .3-.3.6-.7.8-1.1h.3z"/><path class="st0" d="M162.7 47.3h-2.6c0 .6.2 1.1.5 1.5.2.3.5.4.9.4.2 0 .4-.1.6-.2.2-.1.3-.3.5-.6l.2.1c-.3.5-.5.9-.9 1.1-.3.2-.7.3-1.1.3-.7 0-1.3-.3-1.6-.8-.3-.4-.4-1-.4-1.7 0-.8.2-1.4.6-1.9.4-.5.9-.7 1.5-.7.5 0 .9.2 1.3.6.3.5.5 1.1.5 1.9zm-1.3-.3c0-.6 0-.9-.1-1.1-.1-.2-.2-.4-.3-.5-.1-.1-.2-.1-.3-.1-.2 0-.3.1-.4.3-.2.3-.3.7-.3 1.3v.1h1.4z"/><path d="M165 45.1v1.1c.3-.5.6-.8.8-1 .2-.2.5-.2.7-.2.2 0 .3.1.5.2.1.1.2.3.2.5s-.1.4-.2.5c-.1.1-.2.2-.4.2s-.3-.1-.5-.2l-.2-.2h-.1c-.1 0-.2 0-.3.1-.1.1-.2.3-.3.5-.1.3-.2.7-.2 1.1v1.8c0 .1.1.2.2.2s.2.1.4.1v.2H163v-.2c.2 0 .4-.1.4-.2.1-.1.1-.4.1-.8v-3.2c0-.1-.1-.2-.1-.2-.1 0-.2-.1-.3-.1v-.2h1.9z"/><path class="st0" d="M170 49.2c-.6.5-1.1.8-1.6.8-.3 0-.5-.1-.7-.3-.2-.2-.3-.4-.3-.7 0-.4.2-.7.5-1 .3-.3 1-.7 2.1-1.2v-.5c0-.4 0-.6-.1-.7 0-.1-.1-.2-.2-.2-.1-.1-.2-.1-.4-.1s-.4 0-.6.1c-.1.1-.1.1-.1.2s0 .2.1.3c.1.1.2.3.2.4 0 .2-.1.3-.2.4-.1.1-.3.2-.5.2s-.4-.1-.5-.2c-.1-.1-.2-.3-.2-.5s.1-.5.3-.7c.2-.2.5-.4.8-.5.4-.1.7-.2 1.1-.2.5 0 .8.1 1.1.3.3.2.4.4.5.6 0 .1.1.5.1 1V49c0 .1 0 .1.1.1h.1c.1 0 .2-.1.3-.2l.2.1c-.2.3-.4.4-.5.6-.2.1-.4.2-.6.2-.3 0-.5-.1-.6-.2-.2.1-.3-.1-.4-.4zm0-.4v-1.6c-.4.2-.7.5-.9.8-.1.2-.2.4-.2.6 0 .2.1.3.2.4.1.1.2.1.4.1.1 0 .3-.1.5-.3z"/><path d="M174.4 45.1v.6c.2-.3.5-.5.7-.6.2-.1.5-.2.7-.2.3 0 .6.1.8.3.2.2.3.4.4.6.1.2.1.6.1 1.1v1.9c0 .4 0 .6.1.7.1.1.2.1.4.2v.2h-2.4v-.2c.2 0 .3-.1.4-.2.1-.1.1-.3.1-.6v-2.8c0-.1-.1-.2-.2-.2-.1-.1-.2-.1-.2-.1-.3 0-.6.2-.8.6V49c0 .4 0 .6.1.7.1.1.2.2.4.2v.2h-2.4v-.2c.2 0 .3-.1.4-.2.1-.1.1-.3.1-.7v-2.7c0-.4 0-.6-.1-.7-.1-.1-.2-.1-.4-.2v-.2h1.8v-.1zm6.8-.1l.1 1.6h-.2c-.2-.5-.4-.8-.7-1-.2-.2-.4-.3-.7-.3-.1 0-.3 0-.4.1-.1.1-.2.2-.2.3 0 .1 0 .2.1.3.1.1.4.4.9.7.5.3.8.6 1 .9.2.2.2.5.2.8 0 .3-.1.5-.2.8-.1.3-.3.5-.6.6-.2.1-.5.2-.8.2-.2 0-.5-.1-.9-.2-.1 0-.2-.1-.2-.1-.1 0-.2.1-.3.3h-.2l-.1-1.7h.2c.2.5.4.8.6 1 .3.2.5.3.8.3.2 0 .3 0 .4-.1.1-.1.2-.2.2-.4s-.1-.3-.2-.4c-.1-.1-.3-.3-.7-.5-.5-.4-.9-.6-1-.8-.2-.3-.3-.6-.3-.9 0-.4.1-.7.4-1 .3-.3.6-.5 1.1-.5.3 0 .5.1.8.2.1.1.2.1.2.1h.1l.2-.2h.4V45z"/><path class="st0" d="M182.4 46.2V46c.4-.2.7-.4.9-.7.2-.3.3-.6.3-.8v-.1h-.2c-.1.1-.2.1-.4.1s-.4-.1-.5-.2c-.1-.2-.2-.3-.2-.6 0-.2.1-.4.3-.6.2-.2.4-.3.6-.3.3 0 .5.1.8.3.2.2.3.5.3.9 0 .5-.1.9-.4 1.3-.5.4-.9.7-1.5.9zm7.2 1.7h-2.5l-.3.7c-.1.2-.1.4-.1.6 0 .2.1.3.2.4.1.1.3.1.7.1v.2h-2.3v-.2c.2 0 .5-.1.6-.3.2-.2.4-.5.6-1.1l2.5-5.6h.1l2.5 5.7c.2.5.4.9.6 1 .1.1.3.2.5.2v.2h-3.4v-.2h.1c.3 0 .5 0 .6-.1.1-.1.1-.1.1-.2v-.2l-.2-.4-.3-.8zm-.2-.4l-1-2.4-1.1 2.4h2.1z"/><path d="M194.7 45.6v3.3c0 .3 0 .5.1.6.1.1.3.2.6.2v.2h-2.8v-.2c.2 0 .4 0 .5-.1.1 0 .2-.1.2-.2s.1-.3.1-.5v-3.3h-.7v-.5h.7v-.6c0-.5.2-.9.5-1.2.4-.3.9-.5 1.5-.5.4 0 .7.1.9.2.2.2.3.3.3.5s-.1.3-.2.4c-.1.1-.3.2-.5.2s-.3 0-.4-.1c-.1-.1-.2-.2-.2-.3v-.4c0-.1 0-.1-.1-.2s-.1-.1-.2-.1-.2 0-.3.1c-.1.1-.1.2-.1.4V45h.7v.5h-.6v.1zm3.6 0v3.3c0 .3 0 .5.1.6.1.1.3.2.6.2v.2h-2.8v-.2c.2 0 .4 0 .5-.1.1 0 .2-.1.2-.2s.1-.3.1-.5v-3.3h-.7v-.5h.7v-.6c0-.5.2-.9.5-1.2.4-.3.9-.5 1.5-.5.4 0 .7.1.9.2.2.2.3.3.3.5s-.1.3-.2.4c-.1.1-.3.2-.5.2s-.3 0-.4-.1c-.1-.1-.2-.2-.2-.3v-.4c0-.1 0-.1-.1-.2s-.1-.1-.2-.1-.2 0-.3.1c-.1.1-.1.2-.1.4V45h.7v.5h-.6v.1z"/><path class="st0" d="M202.2 49.2c-.6.5-1.1.8-1.6.8-.3 0-.5-.1-.7-.3-.2-.2-.3-.4-.3-.7 0-.4.2-.7.5-1 .3-.3 1-.7 2.1-1.2v-.5c0-.4 0-.6-.1-.7 0-.1-.1-.2-.2-.2-.1-.1-.2-.1-.4-.1s-.4 0-.6.1c-.1.1-.1.1-.1.2s0 .2.1.3c.1.1.2.3.2.4 0 .2-.1.3-.2.4-.1.1-.3.2-.5.2s-.4-.1-.5-.2c-.1-.1-.2-.3-.2-.5s.1-.5.3-.7c.2-.2.5-.4.8-.5.4-.1.7-.2 1.1-.2.5 0 .8.1 1.1.3.3.2.4.4.5.6 0 .1.1.5.1 1V49c0 .1 0 .1.1.1h.1c.1 0 .2-.1.3-.2l.2.1c-.2.3-.4.4-.5.6-.2.1-.4.2-.6.2-.3 0-.5-.1-.6-.2-.3.1-.4-.1-.4-.4zm0-.4v-1.6c-.4.2-.7.5-.9.8-.1.2-.2.4-.2.6 0 .2.1.3.2.4.1.1.2.1.4.1.1 0 .3-.1.5-.3zm3.7-6c.2 0 .4.1.6.2.2.2.2.3.2.6 0 .2-.1.4-.2.6-.2.2-.3.2-.6.2-.2 0-.4-.1-.6-.2-.2-.2-.2-.3-.2-.6 0-.2.1-.4.2-.6.2-.2.4-.2.6-.2zm.7 2.3v3.8c0 .3 0 .6.1.7.1.1.2.1.5.2v.2h-2.6v-.2c.2 0 .4-.1.5-.2.1-.1.1-.3.1-.6v-2.8c0-.3 0-.6-.1-.6-.1-.1-.2-.2-.5-.2v-.2h2v-.1z"/><path d="M209.6 45.1v1.1c.3-.5.6-.8.8-1 .2-.2.5-.2.7-.2.2 0 .3.1.5.2.1.1.2.3.2.5s-.1.4-.2.5c-.1.1-.2.2-.4.2s-.3-.1-.5-.2l-.2-.2h-.1c-.1 0-.2 0-.3.1-.1.1-.2.3-.3.5-.1.3-.2.7-.2 1.1v1.8c0 .1.1.2.2.2s.2.1.4.1v.2h-2.6v-.2c.2 0 .3-.1.4-.2.1-.1.1-.4.1-.8v-3.2c0-.1-.1-.2-.1-.2-.1 0-.2-.1-.3-.1v-.2h1.9zm5.5-.1l.1 1.6h-.2c-.2-.5-.4-.8-.7-1-.2-.2-.4-.3-.7-.3-.1 0-.3 0-.4.1-.1.1-.2.2-.2.3 0 .1 0 .2.1.3.1.1.4.4.9.7.5.3.8.6 1 .9.2.2.2.5.2.8 0 .3-.1.5-.2.8-.1.3-.3.5-.6.6-.2.1-.5.2-.8.2-.2 0-.5-.1-.9-.2-.1 0-.2-.1-.2-.1-.1 0-.2.1-.3.3h-.2l-.1-1.7h.2c.2.5.4.8.6 1 .3.2.5.3.8.3.2 0 .3 0 .4-.1.1-.1.2-.2.2-.4s-.1-.3-.2-.4c-.1-.1-.3-.3-.7-.5-.5-.4-.9-.6-1-.8-.2-.3-.3-.6-.3-.9 0-.4.1-.7.4-1 .3-.3.6-.5 1.1-.5.3 0 .5.1.8.2.1.1.2.1.2.1h.1l.2-.2h.4V45z"/></svg>