<svg id="Layer_1" xmlns="http://www.w3.org/2000/svg" viewBox="0 0 566.9 566.9"><style>.st0{fill:#c9a600}.st1{fill:#e6d089}.st2{fill:#907642}</style><path class="st0" d="M62.9 138.5zm-4 58.3h.1l-.1-.2s-.1 0-.1.1v.1h.1z"/><path class="st1" d="M59.8 87.4c.1-.1.3-.2.5-.3-.1.1-.3.2-.5.3zm.7-.3zm-.7.4zm0 0l-.2.2.2-.2zm.6-.4zm32.2 23.8l-.2.5s0 .1-.1.1c-.3.4-.6 1-1.1 1.1-.5.1-1.5 1.6-1.9 2-.5.4-2.3 1.2-1.9 1.1.4-.1 1.2.2 1.6.3.4.1 1.7-.4 2.5-.5.8-.1 1.7.3 2.2.7.5.3.8.1 1.1 0 .3-.1.4-.1.3-.2-.1-.1-.3-1.3-.3-1.7 0-.4-.4-2.5-.4-2.8-.2 0-.3-.1-.4-.1-.6-.1-1.1-.4-1.4-.5zm1.8.6c0-.1 0-.1 0 0M70.6 40.6c0 .2.1.4.2.6-.1-.2-.2-.4-.2-.6zm.2.6c.1.2.3.4.4.6-.1-.2-.3-.4-.4-.6zm7.2-6.4c.1-.1.2-.1.2-.2l-.2.2zm-.4.3c.1-.1.3-.2.3-.3l-.3.3zM61.5 87s.1 0 0 0c.1 0 .1 0 0 0zm.3-.4zm-.2.4c0-.1.1-.2.2-.3-.1 0-.2.2-.2.3zm.9-1c-.2.1-.5.3-.6.6.1-.3.3-.6.6-.6zm12.6-49c-.4.3-.7.5-.9.7.2-.2.6-.4.9-.7zm.4-.3c.6-.5 1.3-1 1.8-1.4-.5.4-1.2.9-1.8 1.4zm28.7 9.9c.8-.5 1.3-1.3 1.6-2.1-.3.8-.9 1.6-1.6 2.1zM61.5 87.1zm11.2 8s.1 0 0 0c0-.5-.4-2.5-.9-3.8-.5-1.3-.7-2.7-1.3-2.7-.6 0-.1-.1.3-1.2.3-1.1 1.2-1.2 2.1-2.2.4-.4.7-.9 1-1.4-.6.4-1.2.8-1.2.7 0-.1-.5-.3-.9-.4-.2.1-.3.2-.4.4 0 0-.3.9-.6 1.3s-.6 2.5-.6 2.5-.5.1-.9-.3l-.1-.1s0-.1.1-.2c-.1.2-.1.3-.1.3s-.2.1-.2 0-.5-.6-1-.8c-.5-.2-.9-.3-1.1-.3-.2 0-.2-.2-.5-.4s-.6 0-.8-.3c-.2-.3-.6-.4-1.2-.5h.1c0 .1 0 .1.1.2.3.1.7.5.8.7.1.2.6.6.9.7.3.1.5.1.7.3.2.2 0 .2-.4.1-.4-.2-1.2-.7-1.6-.8-.4-.1-.6-.5-.9-.5-.2 0-.4-.2-.6-.4-.2-.1-.7-.2-1-.2h-.1v.1c0 .2-.4.4-.3.5.2.2.5.3.6.4.1.1.2 0 .4.1s.2.6.4.7c.2.1.3.3.6.3s.1.2-.2.2c-.4 0-1.3 0-1.5-.2-.2-.1-.6-.8-1.1-1s-.4-.1-.9 0h-.1v.1c-.3.5.6.7.8 1.2.2.5.8.7 1.6.7.7 0 .5.8.4 1.5 0 .1 0 .3-.1.4-.1.8.6.9 1.1 1.4.5.5.2 1 1.3 1.7 1.2.7 1 1.3 1.6 1.5.6.1.9-.4 1.8-.1.9.3.3 1.1.6 1.6.1.1.2.2.3.2.3.1.6-.2.8-.5.5-.2 2.1-1.3 2.2-1.5zm-11.2-8zm2.1-1s0 .1 0 0c0 .1 0 0 0 0zm7.2-46l-.2.2.2-.2zm2.9-2zm.1-.1l.1-.1-.1.1zm-9 20.4s-.1 0 0 0c-.1-.1.1-.9 1.5-1.6.9-.4 2.1-.6 2.7-.8.7-.2 7-3.6 8.9-4.4 1.9-.9 10.5-5.5 12.2-6.2 1.7-.7 6.5-3.1 7.9-3.6 1.4-.4 3.3-.2 6.1.6 1.3.3 1.7.9 1.9 1.5.1-.4.1-.8 0-1.1-.5-2-5.2-4.8-8.8-5.5-4.5-.8-6.4.1-7.2 0-.7-.1-.2-1.1-.6-2.2-.4-1.1-2.6-1.2-3.5-1.3h.1c-1 .2-1.2.4-2.5.7-1.4.3-9.1 4.1-8.6 4.9.9 1.5 9.1-1.9 11.5-2.1 2.4-.2 4.2.1 3.1.1-.8 0-9.4 1.3-13.7 4-1.9 1.2-3.6 2.4-3.6 2.4s-2.3 1.6-4.3 4.5c-1.6 2.4-.6 3.3-1.9 6.3-.8 1.8-2.4 2.6-2.3 4-.1.4.5.1 1.1-.2zm13.4-14.2l.5.1.1-.1.6.1v-.1l.1-.1-.2-.1v-.1l-.4-.1-.1-.2.2-.1.3.1h.1l.2.1v-.1h.1l-.7-.2v-.1l-.3-.3-.1-.2h.3l.4.3h.1l.5.4v-.1h.1l-.2-.2v-.1h.1l-.2-.3v-.2h.2l.3.3v-.1h.1l.1.2v-.1h.1l-.5-.5v-.1h.1l-.2-.4.1-.2.2.1.2.5v-.1l.1.1.2.6v-.1h.1l-.1-.2v-.1h.1l-.1-.4.1-.2.2.1.1.4.1-.1.1.1v.2l.1-.1h.1v-.7l.1-.1h.1v-.5l.2-.2.2.2v.4h.1l.1.1-.1.7.1.1.1-.3h.1l.1-.4.1-.1.1.2-.1.4h.1v.1l-.1.2h.1v.1l.3-.6h.1l.2-.4.2-.1.1.2-.3.4h.1v.1l-.7.7h.1v.1l.1-.2h.1v.1l.2-.3h.2v.2l-.3.2h.1v.1l-.1.1h.1v.1l.5-.4h.1v.1l.4-.3h.2v.2h.1s.1 0 .1.1.3.5.3.6v.2l-.1.1c-.1.1-.2.1-.2.2 0 0-.1 0-.1.1h-.1c-.1.1-.3.1-.4.2H84c.1.1.1.2.2.3v.1c0 .1-.1.1-.1.1-.4.4-.8.6-1.3.9-.1 0-.1.1-.2.1l-.1.1c-.3.2-.7.3-1.1.5-.2.1-.3.1-.5.2h-.3s-.1 0-.1-.1v-.2c0-.1-.1-.2-.1-.2-.2.1-.3.2-.5.3-.1 0-.1 0-.2.1 0 0-.1 0-.1.1-.1 0-.1 0-.2.1h-.2c0-.1-.1-.2-.1-.3 0-.1-.1-.1-.1-.2s0-.1-.1-.1v-.2l.1-.1-.2-.1.1-.2.4-.1.1-.1.6-.2h-.1v-.1h-.2l-.7.1v-.1l-.4.1-.1-.1.1-.2h.4l.1-.1h.2l.1-.1h-.7l-.1-.1.1-.1h-.5l-.2-.2.2-.2zm-14.5 42zm0 0zm0 0zm0 0zM74 37.9l.1-.1s-.1 0-.1.1zm2.9 43.5c-.8.5-1.2 2-2 2.1.3 1 .5 1.3.9.5s.7-1.9 1.6-2.2c.9-.3 3-1.6 3.3-2.2.2-.4-.2-.7-.4-1-.1.2-.4.4-.8.5-.7.2-.8.4-1.1.8-.1.2-.4.3-.8.5-.1.4-.3.8-.7 1zm3.3-3zm12.9-5.9c.7-.3 2.1-.6 2.8-1.6.7-1 1.3-2 2.4-3.2 1.2-1.2 1.4-1.2 2.3-1.3.7-.1 1.3-.5 1.5-.9-.1-.1-.3-.4-.7-1-.8-1.1-1.3-.3-1.3-.3s-.7-1.2-1.3-2.3c-.6-1.1-1-1.9-.8-2.3.2-.4.3-.8-.1-1.3-.3-.5-.3 0-.1-.8.2-.8.2-1.6-.6-2.6-.3-.4-.5-.7-.6-.9-.6 0-1.2-.1-1.3-.9 0-.8-.8-2.3-1.2-2.7-.4-.3-.9.3-.4.5s.7 1.5.9 3.1c.3 1.6-1.4 1.9-1.7 1.5-.3-.4-.3-1.4-.5-1.7-.2-.3 0-.5.2-.5.1 0-1-.3-1.5-.3s-1.3.2-1.4.4c-.2.3-.3 5-.3 6.3 0 1.3-.3 6.1-.5 6.8-.2.7 0 .4.5.4.5-.1 5.8-1.6 6.9-2.2 1.1-.6 1.4 0 .9.1-.6.2-6.3 2.7-6.9 3-.7.3-2.1.8-3.5 1.5-1.1.5-.5 2.7-.2 4.3.4-.3.9-.7 1.2-.8.2-.1.5-.3.9-.6h-.1v-.1c0-.1 0-.1-.1-.2-.1.1-.2.1-.3.2h-.5c0-.1 0-.1-.1-.2v-.3h-.1l.1-.1.3-.1v-.1l.4-.1h-.4l-.1-.1.1-.1h.4-.7l-.1-.1.1-.1h.4l.4.1h-.1l-.2-.1-.1-.1h.1l.2.1h.1l.1.1h.1l-.4-.2v-.1l-.6-.6v-.1h.2l.2.1.3.3v-.1h.1l-.1-.2v-.1l-.2-.2v-.1h.1l.2.2h.1l.1.1h.1l-.2-.3v-.1l-.1-.3v-.1l.1.1.1.3h.1l.2.4v-.1l-.1-.2v-.1l.1.1.1.3v.1-1l.1-.1.1.1v.8-.2l.1-.2.1-.1.1.1-.1.2v.3l.2-.4h.1l.1-.3.1-.1v.1l-.2.3v.1l-.2.3.1-.1h.1l.2-.2h.1v.1l.5.3v.1l-.1.1.3-.3.2-.2h.1v.1h.1s.1 0 .1.1c0 0 .2.3.2.4 0 0-.1 0-.1.1l-.1.1h-.1c-.1 0-.2.1-.3.1h-.1c0 .1.1.1.1.2.8-.2 2.2-.4 2.2-.4s-1.9 1.2-3 1.9c-.8.5-2.6 1.9-3.5 2.6-.1.1-.3.3-.5.4l-.1.1c-.6.4-1.4.7-1.8.7-.6 0-.6.1-.8.3-.2.2-.9.5-1.9.9-.6.2-.9.6-1.1.9h.1c.6-.1 2 .1 2.7-.2.7-.3 1.3-.6 1.3-.6s-.5.5-.8 1.7c-.3 1.2-.3 2 .3 1.1.5-.9 2.5-3.9 2.3-2.9 0 0-1.3 2.9-1.3 4.2 0 1.3-.2 2.2-.2 2.2s-1.4-.4-1.5 0c-.2.6-.2 1-.2 1s-1.7-.4-1.9.1c-.3.5-.5 1.8-.6 2.4-.1.6-.3 2.5-.3 2.5h.8s-.2-3 .5-3.5 1.5-.9 1.5-.9.3 1.3 0 2.4c-.3 1.2-.3 1.4.3 1.9.4.3.9.6 1.3.8l.6.3c.2 0 .3.1.2.1.3.2 1.5-.3 2.1-.9.3-.3.7-.1 1.1.1.4-.3 1.2-.7 1.4-1.1.4-1.1 1.4-2.6 1.6-4 .2-1.3 1.5-1.6 2.3-3.3.8-1.7.8-5.7.9-7.2.2-1.4-.3-1-1.4-1.1-1.1-.1-1-.5-.3-.8zM86 89.2c-.6 0-1-.4-1-1 0-.5.5-1 1-1 .6 0 1 .4 1 1 .1.5-.4 1-1 1zm5.4-12c-.8.1-1 0-2 .2-.7.1-1.2.3-1.4.4-.4 1.3-1.2 5.1-.9 5.5.3.4 3.6.1 2.7 1.3 0 0-2.6.2-3.1-.1-.5-.3-.3-3.7.5-5.9s1.7-2.6 2.4-3.5c.5-.7-.3.4-.9 1.5.3-.1.7-.2 1.1-.4.7-.3 1.2-.9 1.4-.3.2.5 1 1.2.2 1.3zm12.5 34.2c-.1.4-.2 1.2-.2 1.6-.6-.7-3.3-3.6-4.8-4-1.6-.4-3.8-.5-4.2-.5-.4.6-.7 1.3-.3 1.4.5.2.8.6.8.9v.4c.1 0 .1.1 0 .3 0 .1 0 .2.1.3.7.3 1.7.8 2 1.1.5.3 1.7 1.7 2.7 2.2 1 .5 2 1.7 2.4 2.5.2.5.5.8.7 1.1 0-1.7.4-5 .8-7.3zM89.3 90.5zm13.3-25.6s-.1 0 0 0c-.1 0 0 0 0 0zm8.2 2.7s.6-.6.8-1.1c.2-.5-2.4-1.1-4-1.5-1.6-.4-3.9-.8-4.3-.8-.4 0-.1.4-.4.5.3.4 1 1.2.9 1.4-.2.3-1.6 1-2.4.9-.8-.1-2.4.8-3.2 1.8-.8 1 .7 1.9.2 3.3-.5 1.4.9 1.3 3 1.6 2.1.3-.5 2.7-2.4 3.3-1.9.6-3.9 4.4-4.3 5.4-.4 1-1.8 3.8-1.6 4.2.2.4 1 .8.1 1.1-.9.3-1.1 1.2-.7 1.1.4-.1 2 .5 3.2 1.1 1.2.6 1.3 1.1.3 1.1s-3.5-2.1-4.9-1.3c-.8.5-1.4.7-1.8.7s-.9.4-1.6.7c-.7.3-1.6.9-1.6.9s0-.4-.2-.8-1.7-.1-1.7-.1V91l-1 .2s-.6-.5-1.1-.3c-.5.2-1.2.9-1.2.9h-1.1c-.6 0-1.1.1-1.2.6-.1.5.4.7 1 .5.6-.2 1.4.4 1.7 0 .3-.4.7-1.2.7-1.2v1.9s-2.2 1.2-2.9 1.2-1.6-.3-2.3.2c-.7.4-1.7.6-2.3.6-.4 0-1 0-1.4-.1 0 .1 0 .1-.2.1-.5 0-1.3 1-1.8 1.3-.4.3-.5 2.5-.4 2.9.1.4.5-.9 1-1.3.4-.4.1.8.6.6.5-.2 1-1.1 1.4-1.6.3-.5.6-1 1.8-.9.6 0 0 2.5.3 2.4 1.1-.3 1.1-2.4 2-2.6.6-.1.8 1.7 1 1.7.3 0 .5-2 .6-2.7.1-.7 2.3.2 3.1.2.8 0 1.1.4 1.5 0l.1-.1c-.2-.2-.4-.4-.4-.7-.1-.3-.1-.4-.3-.6-.2-.2.1-.4.4-.6.3-.2 1.4.1 1.5.5.1.3.2.5.7.6.4.1 1.7 1.9 1.7 1.9-.4.4-1.3-.3-1.8-.7-.3-.4-.9-.2-1.3-.2.5.3 1.2 1 2.4 1.5 1.7.8 2 .8 2.2 1.5.1.2-.1.5-.2.8-.2.4-.3.8 1.1.9.2 0 .4 0 .5-.2.2-.3.2-.8.7-1.2.4-.2-.4-1.6-.1-2.6.3-1 .6-.8.5-1.2-.2-.4-.4-1-.2-1.5.3-.5 0-.8-.3-.9-.4-.2-.3-1-.2-1.5.1-.5.8 0 .9.5.1.5 1 1.4 1.5 2 .5.6 1.2.7 1.7.7s1.3-.4.8.5c-.5.8 1.4 1.7 1.9 2.6.5.9-1.2.7-2.6.8-1.3.1-.3.8.7 1.1 1 .4 2.9-.3 3 .4.1.4.2.7.4.8 1.1 1 4.1-2.7 6.3-4.3.6-.4 2.3-2.4 2.7-2.7.4-.3 1-1.7 1.2-2.5.2-.8 1.6-2.3 1.6-2.3.1-.2 1-.7 1.1-.6.1.1-.9 1-1 1.5-.1.3.1.3.5.3.3 0-.1.6-.2.7-.2.1-.9.6-1.1.8-.2.2-.8 1.8-.9 2.1-.2.9-1 1.4-1.4 1.8-.4.4-1.4 1.1-1.6 1.3-1.8 1.3-5.7 5.6-6.4 6.5l-.1.1v.2s0 .1-.1.1l-.3.3-2.6 2.6.2.1c.6 0 1.3.1 1.8.4 1 .5 2.9 1.5 3.5 2.5.5.7 1.3 1.3 1.7 1.6.2-1.3.4-2.3.4-2.6.3-1.1.9-1.5 1.7-2.7.8-1.2 1.3-2.7 7.1-14.2 5.5-11.5-2.6-24.1-2.6-24.1zm-3.2 69.6c-.6-3.1.2-4.3 0-6.4-.2-2.1-2.9-4.6-3.9-6.7-.9-2-.6-3.1-.8-4.5v.5c-.1-.2-.4-.6-.8-1.4-.7-1.2-1.1-.7-2.5-1.6-1.4-.9-1.6-2-2.2-2.9-.5-.8-1.8-.5-2.3-.4.3 1.2.6 2.5.6 2.8-.1.3.2 1-1.7.6-.3-.1-1.4-.3-2.3-.6-.9-.3-1.2.2-1.8.5-.6.3-1-.2-1.5-.4s-1.1.2-2.3.6c-3.5 1-1.1 2.9-2 3.5-.3.2-1.3-.4-1.9-.4-.6 0-.5-.3-1 .1-.6.3.2.9.6 1.1.4.2.8 1.2.9 1.8.1.6.4 1.2.7 2.1.4.9 0 .8-.5.6-.5-.2-1.3-.8-1.5-1.6-.2-.8-1-.7-1.6-1-.5-.3-.5 1.2-.5 2s.4 1.2 1.1 1.5c.7.2 1 .2 1.8.6.8.5 0 1.2-.6 2s.1 1.6.7 2.1c.6.4.5 1.5.5 2 0 .4.6.1 1.7-.4 1-.4 4-.2 4.5 0 .5.1 1.5.4 2.5.1s.9-.4 1.6 0c.7.3 1.5.1 2.2-.1.6-.2 1.2-.2 1.5-.3.3-.2-.5-4-.6-4.9-.1-.9-.4-2.2-.5-3.3-.1-1.1-1.7-5.4-1.9-5.8-.2-.4.7-.1 1.1.5.4.6 2 5 2.1 6.3.1 1.3 1.1 6.9 1.3 7.6.3.8-.1 1.4-.4 2.1-.4.6-1.1.5-2.3.3-1.2-.2-3.2-.1-4.1 0-.9 0-2.3-.7-3.1-1.2-.8-.5-1.2-.2-3.6.1-2.4.2-2 1.6-2 1.9 0 .3.6 1.9 2 2.2.8.2 1.7.7 2.6.4.9-.3 4.4-.1 6.5-.1 2.1-.1 3.8 1.4 5.1 1.9 1.3.5 3.4.3 4.6.6 1.1.2 4.3 2.5 4.3 2.5 1.2 1 .9 3.5.9 4.3 0 .7.2 1.4.4 2.2.1.2-.1.5-.3.7-.5.3-1.2.6-1.9.9l-1.5.5c-.4.1-.6.2-.7.2h-.1c-.1-.1 1-4.1 1.2-5.1.2-1 .2-1-.2-1.2-.4-.2-1-.2-1.6-.4-.6-.2-.4-.7-.7-1.6-.3-.9-1.1-1.7-2.1-2.3-1-.6-2.8-.5-3.5-.7-.6-.2-.9-.1-1.6-.7-.7-.6-1.3-.5-2.6-.5-1.2 0-2.8.5-3.8.7-1 .2-1.3.1-2.1-.2-.8-.3-1.8-.3-2.1-.1-.3.2-1.1 0-1.3-.1-.2-.1 0 1.6.3 2.6s-.6 1.6-1.1 2.3c-.5.6.4 1.4 1.1 2.6.7 1.3 1 2.5 1.4 4 .4 1.4.2 2.8.6 3.5 1.1 1.9 3.5 2.6 3.4 4.2 0 .3-1.7.3-2.6-.5-.9-.8-1.8-1.4-2.3-.6-.6.8 1.1 2.4 1.9 2.7.8.3 2.3 1.7 2.9 2.5.7.9 2 1.6 2.9 1.6.9 0 1.3.5 1.8 1s.7.4 1.4.2 2.5.6 3.2 1.4c.7.8 1.5 2.3 1.2 2.6-.4.5-1.2-1.2-3.2-.5-.9.3-2-.5-2.5-1.1-.6-.6-.6-.4-1.8-.9-1.2-.5-1.9-.8-2.5-1.8-.6-.9-2.7-2-3.2-1.6-.5.4.3 1.1.9 1.7.6.7.7 2.3.8 3.3.2 1 1.7 2.5 2 3.1.4.6 2.5 2.5 3.5 2.6 1.1.1 1.2 2.4 1.5 2.7.3.3.4.4 1.7.8 1.3.4.7 1.6.4 1.7-.4.1-1.5.1-1.9-.3-.4-.4-1.3-.4-1.8-.3-.5.1.2.8.1 1.1-.1.3-.7 0-1.9-1.1s-1.7-.1-2.1.4c-.3.6.9 2.9 2.2 4.5 1.3 1.6 1.2 3.2 1.2 3.5 0 .3.4.7.7.8.4 0 1.3.1 1.8-.1.5-.1 1.2.1 1.8 0 .6-.1 1.7-.8 2-.7.3.1.9 0 1.6 0 .7 0 .9.7.6.4-.3-.3-.6.3-1.6.3-1 .1-.9 1-1.8.8-.9-.3-1.6.8-2.3.8-.7 0-2-.1-2 0-.1.1-1.1.3-1.3.5-.2.2.4.5.8.3s1.7.2 2 .2c.3 0 2.2.1 3 .5.8.5.3.5.3.5s-.7.3-1.5-.3c-.1-.1-.2-.1-.4-.1H97c-.7.1-1.4.4-1.8.3-.3-.1-.9.1-1.4.3-.4.2-.8.4-.9.5l-.1.1-.1.1c0 .3.4.5.9.3s1.2 0 1.5 0c.3.1 1.2-.2 1.5-.4.3-.1 1.5.7 1.8.7.3 0 1.3.6.9.6h-.7c-.6-.1-1.4-.2-1.7-.4-.5-.3-.7.2-1.4.3-.7.1-1.6.1-2.4.2-.8.1-.7.5-.7.8v.1c.1.2.5.3 1.2.2.8-.1 2.4.4 3.6.7 1.2.2 1.7 0 2.2-.1.5-.1 1.4.9 2.1 1 .6.1.5.2.1.2s-.9 0-1.4-.1c-.5-.1-1-.2-1.4-.1-.5.1-2.2.1-2.7-.1s-1.6-.2-2.1-.5-1.7 0-1.8.8c-.1.6.5.4 1.1.2.6-.2 3 1.1 3.5 1.4.5.3 1 .2 2.7.3 1.4.1 2.4.8 2 .9h-.2c-.8 0-2.3-.2-3.4 0s-3-.5-4.2-1.1c-1.2-.6-1.3.2-1.6.6 0 0 0 .1-.1.1-.1.3.1.8.1 1.1 0 .1.1.2.3.2h1.2c.5-.1 3 .2 3.3.3.3 0 1.8.6 1.7.8-.2.3-1.5.1-2.4-.1-.8-.1-3.3-.1-3.8.1-.4.2-.7 1.2-.4 1.5.2.3 1.1 0 1.7-.2.6-.3.9.2 1.6.3.7.2 1-.1 1.6-.3.6-.2 1.7.1 2.2.3.2.1.4.3.5.4.1.2 0 .3-.2.2-.4-.2-.7-.1-1.4-.3-.7-.1-1.8.3-2.5.5-.8.2-2.1-.1-2.7 0-.1 0-.2.1-.3.1-.5.2-.9.5-.9.8 0 .1 0 .2.1.3.4.4 2.2.2 2.8.1.7-.2 2.7.8 2 1.1-.7.3-3.1-.3-4.1.2-.3.1-.3.3-.2.5.1.3.6.7.8.6.3-.1 1.4 0 1.9.3s1.7.3 2.2.2c.5-.1 1.5.4 1.7.5.2.1 1.2.9 1.6 1.2.4.2.3.5.3.5s-1.4-.3-2-.8c-.5-.4-1.7-.7-2.2-.6-.5 0-1.4 0-1.9-.2-.4-.2-1-.1-1.5 0h-.2c-.5.2.3 1-.2 1.2l-.1.1c-.1.2.5.3.8.3.4-.1 2.3.3 3 .3.7.1 2.3 1.1 2.7 1.4.4.3.2.5-.1.4 0 0-.1 0-.1-.1-.3-.2-1.4-.5-2-.8-.5-.2-2.7-.5-3.5-.6h-.2c-.7 0-1 .4-1.3.7-.2.3.3.4.9.3.6-.1 1.5.3 2.1.5.6.2 1.6.2 2 .2.4.1.9.8 1.2.7.3 0 .1.3 0 .3-.2 0-.6 0-1.1-.2-.4-.2-.6-.1-1-.2s-.9 0-1.3 0c-.4.1-.6-.3-1.4-.6-.9-.3-2.4.8-2.7 1.2v.1c-.2.3.4.2.7.3.3.1.7 0 1 .2.3.2 1 .1 1.6.2.6 0 2.6 1.3 2.4 1.5-.1.1-.2 0-1.4-.5-1.4-.6-2.3-.4-2.8-.4-.5.1-1.4.9-1.9 1.3-.2.2-.3.2-.3.3l.2.2c.2.2.7 0 1.5-.1s2.1.5 2.5.6c.5.2 1.7 1.3 1.5 1.5-.2.2-1.3-.6-2-.8-.7-.3-1.7-.2-2.8-.3-1.2-.1-2.2 1.5-2.3 1.7-.1.2.3.2.5.1s.4.1.6-.1c.2-.2.5.2.9.4s.6.1.9.1c.3 0 .8.1 1.1.1.3.1 1.3 1.1 2.1 1.2.7.1 1.7.9 2 1.1.3.3.8.5 1.2.6.4.1.6.6 1 .8.3.2.4.5.8.7.1 0 .2.1.2.2.1-.1.1-.1.1-.2v-.1s0-.1-.1-.1c-.1-.3-.1-.8-.2-1.3s.2-1.2.4-1.5c.2-.3.2-.7.1-1.1-.1-.4.3-.8.4-1.1.1-.3.3-.6.3-1.1 0-.5.5-.8.9-1.3.4-.6.3-.6.2-1.1 0-.5.3-.7.5-1.5.3-.8.5-1.6.3-1.8-.2-.2.6-.6.8-.9.2-.3.3-.5.2-.8 0-.2 0-.5.2-1s.5-1.3.4-1.9c-.1-.6.3-1.1.5-1.9.2-.8-.1-2-.1-2.6 0-.6.4-1.3.5-1.7.1-.4-.3-1.6-.4-2.1-.1-.4.3-1.1.4-1.3.1-.3-.3-1-.5-1.3-.2-.3 0-1.5.1-1.9 0-.4-.3-1.1-.5-1.4-.3-.3-.2-1.4-.2-1.8 0-.4-.3-.5-.4-1.1l-.6-2.1c-.4-.9-1.1-1-1.1-1s-.4-5.3-.6-9.3c-.2-4 1.1-6.8 2.6-14s.3-12.8.3-12.8 4.3.5 5-2.4c.3-1.2-.4-5.7-.8-6.4.1-1.1-.3-3.8-.9-7zm-9 88.3c-.5-.1-.9-.5-1.3-.8-.4-.2-.6-.1-.9-.1-.3 0-.4-.3-.6-.7-.2-.3-.8-.4-1.5-.7-.7-.2-1.9-.8-2.9-1-1-.1-1.7.1-1.9.1-.3 0-.6-.2-1-.2s-.8.4-1 .7c-.2.3.5 0 .7-.1.2-.1.4.1.7.3.3.1.9.2.9.2l-.5.6s-.4-.1-.7-.1c-.3 0-.4-.2-.8-.5-.3-.3-.9.2-1.3.9-.2.3-.3.5-.4.6h.5c.7 0 2.1-.2 2 0-.1.2-.3.6-.4.6-.1 0-.3 0-.5.1-.3.1-.6.2-.7 0-.1-.2 0-.4-.4-.4s-.6.2-.9.3c0 .1-.1.2-.1.4 0 .1-.1.2-.2.4.6.1 1.3.2 1.3.2s.7.1.4.3c-.3.3-.9.4-.7.5.2.1-.1.1-.4-.1-.3-.2-.7-.4-.6-.5.1-.1-.2-.1-.4-.1-.2.1-.3.2-.5.3h-.1c-.2.5 1.6.8 1.7 1.1.1.3.2.7.5.8.3.1 1.1 1.1 1.2 1.4.1.3 2.4.9 3.5 1.2 1.1.3.9.8 2.1 1.4 1.2.7.9 2.7.9 2.9-.1.3-.2-.1-.3-1 0-.8-1.3-1.3-2.1-2.1s-3.4-1-4.6-1.5c-1.2-.5-.8-1-1.5-1.1-.8-.1-.7-.4-.6-.8.1-.4-.1-.4-.6-.5-.6-.1-.7.2-.9 0-.2-.1-.2-.4-.3-.6-.2.2-.6.5-.8.7-.3.2-.3.7-.3.9 0 .2-4 1.6-4.8 1.6-.8.1-1.9 1-1.9 1s-.5.8-.5 1.4c0 .8 1.2.6 1.6.5.3-.2.5-.1.8 0 .2 0 .8-.2 2.2-.4 1.3-.2 3 .3 4.1.5 1.1.2 4.8 1.4 4.8 1.4s-2.3-.3-2.9-.4c-.7 0-3.4-.7-4.7-.8-1.3-.1-2 .5-3.7.7-1.7.3-1.3.5-.5.7.8.2 2-.3 4-.4 1.6-.1 4.2.7 4.9 1.1l11.3.6 4.1.2c0-.3 0-.7-.1-1.1v-1.7c0-.1 0-.3-.1-.4v-.1c0-.1 0-.3-.1-.4 0-.1 0-.3-.1-.4-.5-2.4-1.4-3.4-1.4-3.4v-.5c.1-.8.4-2.3.5-2.9l-.4-.4c-.1-.2-.4-.3-.8-.4zm-12.1-167c.8-.3 1.6 1.8 1.6 1.8s.1-1.3.2-2c.1-.8.1-4.4.1-4.4s-2 .5-3.2 1.4c-1.3.9-2.5 2.5-2.5 2.5s.8.4 1.3.6c.5.3 1.7.5 2.5.1z"/><path class="st2" d="M70.6 40.6c.1.4.4.8.6 1.2l.1.1.1.1v.4c.2.4.4 1 .4 1.3 0 0 1.7-1.1 3.6-2.4 4.3-2.7 12.9-4 13.7-4 1 0-.7-.4-3.1-.1-2.4.2-10.6 3.6-11.5 2.1-.5-.8 7.2-4.6 8.6-4.9 1.3-.3 1.5-.5 2.5-.7h-.1c-1-.1-3.2-.7-4.8-.4-1.6.3-2.8 1.4-2.8 1.4l-.2.2s-.1 0-.1.1l-.3.3-.1.1c-.9.7-2.5 1.9-3.3 2.6l-.1.1-.1.1-.1.1-.1.1c-.4.3-2.1 1.5-2.8 1.9 0 0-.1 0-.1.1l-.1.1v.2c.1-.2.1-.1.1-.1zm-8 47.5c.3.2 1.2.2 1.5.2.4 0 .6-.2.2-.2-.3 0-.4-.2-.6-.3-.2-.1-.2-.6-.4-.7-.3-.1-.3.1-.4-.1-.1-.1-.4-.3-.6-.4-.2-.2.3-.3.3-.5V86c-.2.1-.5.3-.6.6 0 0 0 .1-.1.1-.1.1-.1.2-.2.3.3.3.6 1 .9 1.1zM65 87c.4.1 1.2.7 1.6.8.3.2.6.1.4-.1-.2-.2-.4-.2-.7-.3-.3-.1-.8-.6-.9-.7-.1-.2-.6-.6-.8-.7-.1 0-.1-.1-.1-.2h-.1c-.6 0-.6.3-.6.3h-.1c.1.2.4.3.6.4.1 0 .3.4.7.5zm46.5 3.3c-.3 0-.6 0-.5-.3.1-.5 1.1-1.4 1-1.5-.1-.1-.9.5-1.1.6 0 0-1.4 1.4-1.6 2.3-.2.8-.8 2.2-1.2 2.5-.4.3-2.1 2.2-2.7 2.7-2.2 1.6-5.2 5.3-6.3 4.3-.2-.2-.3-.4-.4-.8-.1-.7-2.1 0-3-.4-1-.4-2-1.1-.7-1.1 1.3-.1 3.1.1 2.6-.8s-2.4-1.8-1.9-2.6-.2-.5-.8-.5-1.2-.1-1.7-.7-1.4-1.5-1.5-2c-.1-.5-.8-1-.9-.5-.1.5-.2 1.3.2 1.5.4.2.6.4.3.9s0 1.1.2 1.5c.2.4-.2.2-.5 1.2s.5 2.4.1 2.6c-.6.4-.5.9-.7 1.2-.1.1-.2.2-.5.2-1.4-.1-1.3-.5-1.1-.9.1-.3.3-.5.2-.8 0-.9-.2-1-2-1.7-1.2-.5-1.9-1.2-2.4-1.5.4 0 .9-.1 1.3.2.4.4 1.3 1.1 1.8.7 0 0-1.2-1.8-1.7-1.9-.4-.1-.6-.3-.7-.6-.1-.3-1.2-.7-1.5-.5-.3.2-.6.4-.4.6.2.2.3.3.3.6s.2.5.4.7c0 0-.1 0-.1.1-.3.4-.7-.1-1.5 0-.8 0-3-.8-3.1-.2-.1.7-.4 2.7-.6 2.7-.3 0-.4-1.8-1-1.7-.9.2-.9 2.3-2 2.6-.3.1.2-2.4-.3-2.4-1.2 0-1.5.4-1.8.9-.3.5-.9 1.4-1.4 1.6-.5.2-.2-1.1-.6-.6-.4.4-.9 1.7-1 1.3-.1-.4 0-2.6.4-2.9.4-.3 1.3-1.3 1.8-1.3.1 0 .2-.1.2-.1.4.1 1 .1 1.4.1.6 0 1.6-.2 2.3-.6.7-.4 1.5-.2 2.3-.2s2.9-1.2 2.9-1.2v-1.9s-.4.8-.7 1.2c-.3.4-1.1-.2-1.7 0-.6.2-1.1 0-1-.5.1-.5.6-.6 1.2-.6h1.1s.7-.8 1.2-.9c.5-.2 1.1.3 1.1.3s.5 0 1-.2v.1s1.5-.3 1.7.1c.2.4.2.8.2.8s.9-.7 1.6-.9c.7-.3 1.6-.7 1.6-.7.4 0 .9-.2 1.8-.7C92.5 88.9 95 91 96 91c1 0 .9-.5-.3-1.1-1.2-.6-2.8-1.2-3.2-1.1-.4.1-.3-.8.7-1.1.9-.3.1-.7-.1-1.1-.2-.4 1.2-3.2 1.6-4.2.4-1 2.4-4.8 4.3-5.4 1.9-.6 4.5-2.9 2.4-3.3-2.1-.3-3.5-.2-3-1.6.5-1.4-1-2.3-.2-3.3s2.4-1.9 3.2-1.8c.8.1 2.3-.7 2.4-.9.1-.2-.6-1.1-.9-1.4h-.4c-.1.1-.3.3-.3.5 0 0 0 .1-.1.2-.2.3-.8.8-1.5.9-.8.1-1.1.1-2.3 1.3-1.2 1.2-1.8 2.2-2.4 3.2-.7 1-2.1 1.3-2.8 1.6-.7.3-.8.8.3.8 1.1.1 1.6-.3 1.4 1.1-.2 1.4-.2 5.5-.9 7.2-.8 1.7-2.1 1.9-2.3 3.3-.2 1.3-1.2 2.9-1.6 4-.2.4-.9.8-1.4 1.1-.4-.3-.8-.4-1.1-.1-.6.6-1.8 1.1-2.1.9.2 0 0-.1-.2-.1l-.6-.3c-.4-.2-.9-.6-1.3-.8-.7-.5-.7-.8-.3-1.9.3-1.2 0-2.4 0-2.4s-.8.4-1.5.9-.5 3.5-.5 3.5h-.8s.2-1.9.3-2.5c.1-.6.3-1.9.6-2.4s1.9-.1 1.9-.1 0-.4.1-.8 1.5 0 1.5 0 .2-.8.2-2.2c0-1.3 1.3-4.2 1.3-4.2.3-.9-1.8 2-2.3 2.9-.5.9-.6.1-.3-1.1.3-1.2.8-1.7.8-1.7s-.6.3-1.3.6c-.7.3-2.1.1-2.7.2h-.1c.2-.3.5-.6 1.1-.9 1.1-.4 1.8-.7 1.9-.9.2-.2.2-.2.8-.3.4 0 1.2-.4 1.8-.7l.1-.1c.2-.1.4-.3.5-.4.9-.7 2.6-2.1 3.5-2.6 1.2-.7 3-1.9 3-1.9s-1.4.2-2.2.4c0-.1-.1-.1-.1-.2h.1c.1 0 .2-.1.3-.1h.1l.1-.1s.1 0 .1-.1c0 0-.2-.3-.2-.4l-.1-.1h-.1v-.1h-.1v.2l-.3.3.1-.1v-.1l.2-.2v-.1h-.1l-.2.2h-.3l.2-.3v-.1l.2-.3v-.1l-.1.1-.1.3h-.1l-.2.4v-.3l.1-.2-.1-.1-.1.1-.1.2v.2-.8l-.1-.1h-.5v.7-.1l-.3-.2-.1-.1v.1l.1.2v.1l-.2-.4h-.1l-.1-.3-.1-.1v.1l.1.3v.1l.2.3h-.1l-.1-.1h-.1l-.2-.2h-.1v.1l.2.2v.1l.1.1h-.1v.1l-.4-.1-.2-.2h-.2v.1l.2.2v.1l.4.2h-.1l-.1.1h-.1l-.2-.1h-.1l.1.1.2.1h.1l-.4-.1h-.4l-.1.1.1.1h.7-.4l-.1.1.1.1h.4l-.4.1v.1l-.3.1-.1.1h.1v.3c0 .1 0 .1.1.2h.5c.1-.1.2-.1.3-.2 0 0 0 .1.1.2v.1h.1c-.4.2-.7.5-.9.6-.3.1-.7.5-1.2.8-.2-1.6-.8-3.8.2-4.3 1.4-.7 2.9-1.2 3.5-1.5.7-.3 6.4-2.8 6.9-3 .6-.2.3-.7-.9-.1-1.1.6-6.4 2.1-6.9 2.2-.5.1-.7.3-.5-.4.2-.7.5-5.5.5-6.8 0-1.3.1-6 .3-6.3.2-.3.9-.4 1.4-.4.5 0 1.6.3 1.5.3-.1 0-.4.2-.2.5s.2 1.4.5 1.7c.3.4 2 0 1.7-1.5-.3-1.6-.5-2.8-.9-3.1-.5-.2 0-.8.4-.5.4.3 1.1 1.8 1.2 2.7 0 .8.7.9 1.3.9 0 0 0-.1-.1-.1v-.1c0-.2-.1-.4-.1-.6v-.4c0-.1 0-.2-.1-.2.1-.8.5-.2 1.1-.6.6-.4 2.5-1.9 3-2.6.5-.8 1.8-1.3 3.7-2.1.1 0 .2-.1.3-.1 0 0 .1 0 .1-.1 0 0 .1 0 .1-.1.8-.5 1.3-1.3 1.6-2.1.1-.2.1-.5.2-.7-.2-.6-.6-1.2-1.9-1.5-2.7-.7-4.6-1-6.1-.6-1.4.4-6.2 2.8-7.9 3.6-1.7.7-10.3 5.3-12.2 6.2-1.9.9-8.3 4.2-8.9 4.4-.6.2-1.8.4-2.7.8-1.5.8-1.6 1.5-1.6 1.6h.1c.2 0 .7-.4.9-.4.6-.2 5.1-2.3 5.5-2.3.8 0 1.5-.4 2.1-.5.6 0 .3.5.2 1.1-.1.5.3.7.4 1.3.1.6.3.2.6.3.3.1.9 1.1 1.2 1.2.3.1.5.5.8 1 .2.5.1 2.1.4 2.6.3.5 1.4 1 1.9 1.2.5.3 1.2 1.9 1.3 2.3.1.4.6.7.6.7s.1.3.2.8.3.5.6.6c.3.1.6.8.5 1.4-.1.6 1 1.6 1.6 1.9.5.3 0 1 .1 1.7s-2.1 3.2-2.9 3.7c-.1.1-.2.1-.2.2l-.1.1c-.1.1-.1.1-.1.2v.8s0 .1.1.1c-.1.1 0 .1.1.2.2.2.6.6.4 1-.3.6-2.4 1.9-3.3 2.2-.9.3-1.2 1.3-1.6 2.2-.4.8-.7.5-.9-.5.8-.1 1.2-1.6 2-2.1.4-.2.6-.6.7-.9-.2.1-.3.1-.5.2-.1 0-.2.1-.2.1-.2.1-.3.1-.5.2-.1 0-.1 0-.2.1h-.4c-.7.2-1.6 1.3-2.1 1.8s-1.6 1.1-1.9 1.3c.5.1.9.2.9.4.1.2.6-.3 1.2-.7-.3.4-.7.9-1 1.4-.9 1-1.8 1.1-2.1 2.2-.3 1.1-.8 1.2-.3 1.2.6 0 .8 1.4 1.3 2.7.5 1.2.9 3.3 1 3.8H73c-.2.2-1.8 1.3-2 1.7-.2.3-.5.6-.8.5-.1 0-.2-.1-.3-.2-.3-.5.3-1.2-.6-1.6-.9-.3-1.2.2-1.8.1-.6-.1-.4-.8-1.6-1.5-1.2-.7-.8-1.2-1.3-1.7s-1.3-.6-1.1-1.4c0-.1 0-.2.1-.4.1-.7.3-1.5-.4-1.5-.8 0-1.4-.3-1.6-.7-.2-.5-1.1-.6-.8-1.2v-.1c-.5.1-.9.6-.9.6h-.4c-.3-.1-.6.4-.7 1 0 .1-.1.7-.1.8l-.1.2s0 .1-.1.2c-.4-.1-.8-.2-1.2.1-.3.2-.4.7-.5 1-.3 1-.3 2.4-.3 3.8 0 3.2-.1 6.5-.2 9.7l-.4.4c-.8.9-.4 2.1-.5 2.4-.1.3-.5 1.1-1.3 2.4-.8 1.4-1.2 4.8-1.2 5.8s.5 1.4.7 1.8c.2.3.3.9.4 1.9.2.9 1.2 1.9 1.8 2.4-.4 2.2-1.1 4.2-1.8 6l-.4 1c0 .1 0 .1-.1.2l-.3.6v-.1c0-.3-.1-.6-.1-.9 0-.7-.1-1.4-.2-1.9-.3.1-.6-.1-.9-.1-.2 0-.3.1-.5.2-.3.1-.8 0-1.1.2-.1.7.1 1.4.1 2.1.1.2.4 0 .5.2.1.8.1 1.3.1 2.3-.1.1-.3.1-.4.2h-.1v.1h-.1l.1.6v.3c-.2 0 0-.3-.2-.3h-.1c-.2.1-.2.3-.3.4-.5 0-.9.3-1.3.3-.1.3 0 .7 0 1.1v.1c-.1.1-.4 0-.5.1v.1c-.2.6-.7 1.2-1.2 1.6-.1.1-.1.2-.1.5.5 0 1.2-.2 1.7 0-.3.1-1.1 0-1.4.2 0 .2.3 0 .3.1-.1.1-.2.1-.2.1.3.3 1.1 0 1.6 0 .1.9.3 2.2.2 2.9v.2c0 .1-.1.2-.1.2-.1.6.2 1.3.2 2h.1c.1.1.1.2.1.2.6 0 1.1.3 1.5.6-.1 1 .4 2.5.2 3.3 0 .2-.2.2-.2.4.1 1.1.1 2.1.1 3.1v.3c0 .6 0 1.3.1 1.9-.1.1-.4.2-.5.3 0 .6-.2 1.9 0 2.5v.1c.1.1.2.1.3.2 0 .1-.1.2-.1.3-.5 1.9-.3 4.4-.1 6.9.1 1.5.1 3.1.2 4.7.1 3.1.3 6.3.5 9.3.3 4.7.4 9.3.7 14 .1.8.1 1.6.1 2.4 0 1.1 0 2.4.4 3.1 0 .1.1.1.1.2v.4c0 .3 0 .5.1.8 0 .1-.1.1-.1.2-.1.2-.1.3-.1.5-.1.7.1 1.7.1 2.5.3 6 .7 11.9 1 17.8 0 .5.1.9.1 1.3v.2c-.1.2-.1.4-.2.6v.3c0 .3.2.6.3.9 0 .1 0 .1.1.2 0 .1.1.3.1.5.1.9 0 2 .1 2.9.1 1.2 0 2.4.2 3.3 0 .2.1.5.2.7.1.2.3.4.4.6.1.3 0 .7.1 1.1 0 .1 0 .3.1.4H55v.3l.1 1.5-1.3.1c-.5 0-.8.4-.8.9v.7c0 .5.4.8.9.8l1.8-.1c.4.9 1.6.8 2.9.8-.2.1-.2.4-.1.7-.4 0-.8.1-1.2.2-1.6.4-2.6 3.2-2.8 3.4 0 0 0 .1-.1.1v.3c.1 0 .1.1.2.1.2 0 .4 0 .7.1h46.3l-.1-3.1-4.5-1-11.2-.5c-.7-.4-3.3-1.2-4.9-1.1-2 .2-3.2.6-4 .4-.8-.2-1.3-.4.5-.7 1.7-.3 2.4-.8 3.7-.7 1.3.1 4 .8 4.7.8.7 0 2.9.4 2.9.4s-3.7-1.1-4.8-1.4c-1.1-.2-2.7-.8-4.1-.5-1.3.2-1.9.4-2.2.4-.2 0-.4-.2-.8 0-.3.2-1.5.3-1.6-.5 0-.7.5-1.4.5-1.4s1.1-.9 1.9-1c.8-.1 4.7-1.4 4.8-1.6 0-.2 0-.7.3-.9.2-.2.6-.5.8-.7.1.2.1.5.3.6.2.1.3-.2.9 0 .6.1.7.2.6.5-.1.4-.2.7.6.8.8.1.3.6 1.5 1.1 1.2.5 3.8.8 4.6 1.5.8.8 2.1 1.2 2.1 2.1 0 .9.2 1.2.3 1 .1-.3.4-2.2-.9-2.9-1.2-.7-1-1.1-2.1-1.4-1.1-.3-3.4-.9-3.5-1.2-.1-.3-.9-1.4-1.2-1.4-.3-.1-.4-.4-.5-.8-.1-.3-1.9-.6-1.7-1.1h.1c.1-.1.3-.2.5-.3.2 0 .5.1.4.1-.1.1.3.3.6.5s.6.2.4.1c-.2-.1.4-.2.7-.5.3-.3-.4-.3-.4-.3s-.7-.1-1.3-.2c.1-.1.2-.2.2-.4 0-.1.1-.3.1-.4.3-.1.6-.3.9-.3.4 0 .3.2.4.4.1.2.4.1.7 0 .3-.1.4-.1.5-.1.1 0 .3-.4.4-.6.1-.2-1.4 0-2 0h-.5c.1-.1.1-.3.4-.6.4-.6.9-1.1 1.3-.9.3.3.5.4.8.5.3 0 .7.1.7.1l.5-.6s-.6-.1-.9-.2c-.3-.1-.5-.3-.7-.3-.2.1-.9.4-.7.1.2-.3.6-.7 1-.7s.7.3 1 .2c.3-.1.9-.2 1.9-.1 1 .1 2.2.7 2.9 1 .7.2 1.3.3 1.5.7.2.3.3.7.6.7s.5-.1.9.1.8.7 1.3.8c.5.1.8.2.9.3.1.1.3.2.4.4v-.3c0-.1-.1-.1-.2-.2-.4-.2-.4-.5-.8-.7-.3-.2-.6-.7-1-.8-.4 0-.9-.3-1.2-.6-.3-.3-1.2-1-2-1.1-.7-.1-1.8-1.1-2.1-1.2-.3-.1-.8-.1-1.1-.1-.3 0-.6.1-.9-.1-.4-.2-.7-.6-.9-.4-.2.2-.4 0-.6.1-.2.1-.6 0-.5-.1.1-.2 1.1-1.8 2.3-1.7 1.2.1 2.2.1 2.8.3.7.3 1.8 1 2 .8.2-.2-1-1.3-1.5-1.5-.5-.2-1.8-.7-2.5-.6-.8.1-1.3.4-1.5.1l-.2-.2.3-.3c.5-.3 1.3-1.2 1.9-1.3.5-.1 1.5-.2 2.8.4 1.3.5 1.3.6 1.4.5.2-.2-1.8-1.5-2.4-1.5-.6 0-1.3 0-1.6-.2-.3-.2-.7-.1-1-.2-.3-.1-.7-.1-.7-.3v-.2c.3-.3 1.9-1.5 2.7-1.2.9.3 1 .6 1.4.6.4-.1.9-.1 1.3 0s.5 0 1 .2c.4.2.9.2 1.1.2.2 0 .3-.3 0-.3s-.8-.7-1.2-.7c-.4-.1-1.4 0-2-.2-.6-.2-1.4-.6-2.1-.5-.6.1-1.1-.1-.9-.3.3-.3.6-.7 1.3-.7h.2c.8.1 3 .3 3.5.6.5.2 1.6.5 2 .8 0 0 .1 0 .1.1.3.1.4-.1.1-.4-.4-.3-2-1.3-2.7-1.4-.7-.1-2.7-.4-3-.3-.3 0-.8-.1-.8-.3l.1-.1c.5-.3-.3-1.1.2-1.2h.2c.5-.1 1.1-.2 1.5 0 .5.3 1.4.3 1.9.2.5 0 1.7.2 2.2.6.5.4 2 .8 2 .8s.1-.2-.3-.5c-.4-.2-1.5-1.1-1.6-1.2-.1-.1-1.2-.6-1.7-.5-.5.1-1.7.1-2.2-.2-.5-.3-1.6-.4-1.9-.3-.2.1-.7-.3-.8-.6-.1-.2 0-.4.2-.5 1-.5 3.5.1 4.1-.2.7-.3-1.3-1.2-2-1.1-.6.1-2.4.3-2.8-.1-.1-.1-.1-.1-.1-.3 0-.2.4-.6.9-.8.1 0 .2-.1.3-.1.6-.1 1.9.2 2.7 0 .8-.2 1.9-.7 2.5-.5.7.2.9 0 1.4.3.2.1.3 0 .2-.2-.1-.2-.2-.4-.5-.4-.5-.1-1.6-.5-2.2-.3-.6.2-.9.5-1.6.3-.7-.1-1-.6-1.6-.3-.6.3-1.4.5-1.7.2-.2-.3 0-1.4.4-1.5.4-.2 2.9-.2 3.8-.1.8.1 2.2.4 2.4.1.1-.2-1.4-.8-1.7-.8-.3 0-2.8-.4-3.3-.3-.3.1-.8.1-1.2 0-.2 0-.3-.1-.3-.2 0-.3-.2-.8-.1-1.1 0 0 0-.1.1-.1.3-.3.4-1.2 1.6-.6 1.2.6 3 1.2 4.2 1.1 1.1-.2 2.5 0 3.4 0h.2c.4-.1-.5-.8-2-.9-1.6-.1-2.1-.1-2.7-.3-.5-.3-2.9-1.6-3.5-1.4-.6.2-1.2.4-1.1-.2.1-.7 1.3-1 1.8-.8.5.2 1.6.3 2.1.5s2.2.1 2.7.1c.5-.1.9 0 1.4.1.5.1 1 .2 1.4.1.4 0 .5-.2-.1-.2-.6-.1-1.6-1.1-2.1-1-.5.1-1 .4-2.2.1-1.2-.2-2.8-.7-3.6-.7-.7.1-1.2 0-1.2-.2v-.1c0-.3-.1-.7.7-.8.8-.1 1.7-.1 2.4-.2s.9-.6 1.4-.3c.3.2 1.1.3 1.7.4h.7c.5 0-.5-.6-.9-.6-.3-.1-1.5-.9-1.8-.7-.3.1-1.2.5-1.5.4-.3-.1-1-.2-1.5 0-.4.1-.9-.1-.9-.3 0 0 0-.1.1-.1l.1-.1c.2-.1.5-.4.9-.5.5-.2 1.2-.4 1.4-.3.3.1 1.1-.2 1.8-.3h.5c.1 0 .3.1.4.1.9.5 1.5.3 1.5.3s.4 0-.3-.5c-.8-.5-2.7-.5-3-.5-.3 0-1.6-.4-2-.2-.4.2-1-.1-.8-.3.2-.2 1.2-.4 1.3-.5.1 0 1.3.1 2 0 .7 0 1.3-1.1 2.3-.8.9.2.8-.7 1.8-.8 1-.1 1.3-.6 1.6-.3.3.3.1-.5-.6-.4-.7 0-1.3.1-1.6 0-.3-.1-1.4.6-2 .7-.6 0-1.3-.1-1.8 0s-1.4.1-1.8.1c-.4-.1-.7-.5-.7-.8 0-.3.1-1.9-1.2-3.5s-2.5-4-2.2-4.5c.3-.6.9-1.5 2.1-.4 1.2 1.1 1.8 1.4 1.9 1.1.1-.3-.6-1-.1-1.1.5-.1 1.4-.1 1.8.3.4.4 1.5.4 1.9.3.4-.1.9-1.3-.4-1.7-1.3-.4-1.5-.5-1.7-.8-.3-.3-.4-2.5-1.5-2.7-1.1-.1-3.2-2-3.5-2.6-.4-.6-1.9-2.1-2-3.1-.2-1-.3-2.6-.8-3.3-.6-.7-1.4-1.3-.9-1.7.5-.4 2.6.6 3.2 1.6.6.9 1.3 1.2 2.5 1.8 1.2.5 1.2.3 1.8.9.6.6 1.6 1.4 2.5 1.1 2-.7 2.8 1 3.2.5.3-.3-.4-1.9-1.2-2.6-.7-.8-2.5-1.6-3.2-1.4-.7.2-.9.3-1.4-.2-.5-.5-.9-1.1-1.8-1-.9.1-2.2-.7-2.9-1.6-.7-.9-2.2-2.3-2.9-2.5-.8-.3-2.5-1.9-1.9-2.7.6-.8 1.5-.2 2.3.6.9.8 2.6.8 2.6.5 0-1.6-2.3-2.3-3.4-4.2-.4-.7-.2-2.1-.6-3.5-.4-1.4-.7-2.7-1.4-4-.7-1.3-1.6-2-1.1-2.6.5-.6 1.5-1.2 1.1-2.3-.3-1-.5-2.7-.3-2.6.2.1 1 .3 1.3.1.3-.2 1.3-.2 2.1.1.8.3 1.1.4 2.1.2s2.5-.7 3.8-.7c1.2.1 1.9 0 2.6.5.7.6.9.5 1.6.7.6.2 2.4.1 3.5.7 1 .6 1.8 1.4 2.1 2.3.3.9.1 1.4.7 1.6.6.2 1.2.2 1.6.4.4.2.4.3.2 1.2-.2 1-1.2 5-1.2 5.1h.1c.1 0 .4-.1.7-.2.5-.2 1.2-.5 1.5-.5.7-.3 1.4-.6 1.9-.9.2-.2.3-.4.3-.7-.2-.8-.4-1.5-.4-2.2 0-.7.3-3.2-.9-4.3 0 0-3.1-2.3-4.3-2.5-1.1-.2-3.2-.1-4.6-.6-1.3-.5-3.1-2-5.1-1.9-2.1 0-5.6-.2-6.5.1-.9.3-1.8-.2-2.6-.4-1.4-.3-1.9-1.8-2-2.2-.1-.3-.5-1.7 2-1.9 2.5-.2 2.8-.5 3.6-.1.8.5 2.2 1.2 3.1 1.2.9-.1 2.9-.2 4.1 0 1.2.2 1.9.3 2.3-.3.4-.6.7-1.3.4-2.1-.3-.8-1.2-6.3-1.3-7.6-.1-1.3-1.7-5.8-2.1-6.3-.4-.6-1.3-.9-1.1-.5.2.4 1.8 4.7 1.9 5.8.1 1.1.4 2.4.5 3.3.1.9.9 4.8.6 4.9-.3.2-.9.2-1.5.3-.6.2-1.5.4-2.2.1-.7-.3-.5-.3-1.6 0s-2 .1-2.5-.1-3.4-.4-4.5 0c-1 .4-1.7.8-1.7.4s0-1.5-.5-2c-.6-.4-1.3-1.2-.7-2.1.6-.8 1.4-1.5.6-2-.8-.5-1.1-.4-1.8-.6-.7-.2-1.2-.6-1.1-1.5 0-.8 0-2.3.5-2 .5.3 1.4.2 1.6 1 .2.8 1 1.4 1.5 1.6.5.2.8.2.5-.6-.4-.9-.6-1.5-.7-2.1-.1-.6-.5-1.6-.9-1.8-.4-.2-1.2-.7-.6-1.1.6-.3.4-.1 1-.1s1.6.6 1.9.4c.9-.5-1.5-2.5 2-3.5 1.3-.4 1.9-.8 2.3-.6.5.2.9.6 1.5.4.6-.3.9-.8 1.8-.5.9.3 2 .5 2.3.6 1.9.4 1.7-.2 1.7-.6 0-.2-.3-1.6-.6-2.8.5-.1 1.8-.4 2.3.4.6 1 .7 2 2.2 2.9 1.4.9 1.8.3 2.5 1.6.5.8.7 1.2.8 1.4v-1.4c-.2-.4-.5-.7-.7-1.1-.4-.8-1.4-2-2.4-2.5s-2.1-1.9-2.7-2.2c-.3-.2-1.3-.7-2-1.1-.1-.1-.1-.2-.1-.3.1-.2.1-.3 0-.3v-.4c0-.3-.3-.7-.8-.9-.4-.1-.1-.8.3-1.4.3 0 2.6.1 4.2.5 1.5.4 4.2 3.3 4.8 4 .1-.4.2-1.2.2-1.6-.4-.3-1.3-1-1.7-1.6-.7-1-2.5-1.9-3.5-2.5-.5-.3-1.2-.3-1.8-.4l-.2-.1 2.6-2.6.3-.3.1-.1v-.2c0-.1.1-.1.1-.1.7-.9 4.6-5.2 6.4-6.5.2-.2 1.3-.9 1.6-1.3.4-.4 1.2-1 1.4-1.8.1-.3.7-1.8.9-2.1.2-.2.9-.7 1.1-.8.2.1.6-.5.3-.5zM82.6 57.9s1.3-1.6 2.5-2.5c1.3-.9 3.2-1.4 3.2-1.4s0 3.6-.1 4.4c-.1.8-.2 2-.2 2s-.8-2.1-1.6-1.8c-.8.3-2 .2-2.5-.1-.4-.3-1.3-.6-1.3-.6zm-23.9 72.2c.3-1.3.7-2.6 1.1-4 .2-.8.4-1.7.7-2.5 1.7-.7 3.9-2 3.9-2s.3 1.3.4 2c.1.7.3 1.9.2 2.4 0 .6-.3 1.2-.4 2.3-.1.8-.6 2.7-1 4.6-.1-.5-.4-1-.7-1.4-.8-1-2.1-1.1-3.7-1h-.6v-.2c0-.1.1-.2.1-.2zm4.4 8.4zm-.5-.3c-.2 0-.5.1-.5.1.2-.3.4-.4.7-.6.1-.1.2-.3.3-.4v1c-.3-.1-.5-.1-.5-.1zm.5-3.1c0 .3-.1.8 0 1.5-.4.8-1.2 1.4-2.1 1.5-.6.1-1.4 0-1.8-.3-.3-.2-.3-.4-.3-.7v-1.2c0-.2.2-.5 0-.6l-.3.3c-.1-.1 0-.4 0-.5 1.1-.3 1.3-1.6 2.5-1.8h.5c.5.1.7.4 1.1.6-.2-.7-.7-1.1-1.4-1.1-1.2 0-1.7 1.1-2.6 1.4-.1-.1-.1-.2 0-.3 0-.2 0-.4-.1-.5v-.1c.1-.4.2-.9.5-1.2l.3-.3c.1-.1.1-.2.2-.3.2-.2.9-.4 1.3-.4 1.5.1 2.2 1.2 2.5 2.5l-.3 1.5zm-4.6 25.3c0-2.7.2-5.4.1-8v-.7h.3c.5-.2.6-.8.2-1.1 0 0-.1-.1-.2-.1s-.2-.1-.3-.1v-.2c.1-.1.2-.1.3-.1.1 0 .3-.1.4-.1.7-.2 1.4-.3 1.7-.7.4-.6.6-1.6.9-2.4.1-.2.1-.4.2-.6 0-.1.1-.2.1-.3 0-.1.1-.2.1-.4 0-.1.1-.2.1-.3.4-1.1.7-2.1 1.1-3.2.1 1.2.2 2.4.3 3.5-.1.5-.2 1-.3 1.4-.1.4-.3.7-.4 1-.6 1.9-.6 4.4-1.1 6.5-.2 1-.4 2.1-.6 3.2-.3 1.1-.4 2.2-.5 3.3-.1 1.2-.1 2.4-.2 3.6-.1 1.2-.1 2.4-.2 3.6-.1 2.4-.1 4.8-.2 7.1 0 .9-.1 1.6-.1 2.3v1.8c-.1 2.6-.7 5.1-1 7.5 0 .3-.1.8-.2.8.1-1.5.1-3.1 0-4.7-.4-7.6-.6-15.5-.5-22.6zm0-9.5v-.1h.3v.6c-.1 0-.2.1-.3.1v-.6zm.3 43.8c.1 0 .1 0 0 0l.2.2h-.1s-.1 0-.1-.1v-.1zm18.1 29.1c-.4.9-.5.8-.9 1.3s0 .7 0 .7-.4.7-.8.9c-.3.3-.7.9-.7.9s-.5.3-.8.4c-.2.1-.1.5-.1.5s-1 .4-1.6.8c-.7.4-.3.6-.3.8-.1.2-.6 0-1 .1-.3 0-1.8 1.3-2.7 2-.9.7-1.3 1.8-1.3 1.8s-3.4 1.7-4.6 2c-.5.1-1.2.2-1.9.2v-1.6c0-.1 0-.2.1-.3 0-.2-.1-.3-.1-.5-.2-.8-.2-1.6-.2-2.3-.1-1.7-.1-3.5-.3-5.2 0-.2.1-.3.1-.3v-.1c0-.1.1-.2.1-.3v-.1c0-.3 0-.6.1-1l-.1-.1c0-.1-.1-.1-.1-.2 0-.6-.3-1.5 0-2-.1-.1 0-.2-.2-.2v-.8c.1 0 .1-.1.2-.1.4-.2.7-.4.6-.9.4.7 1.8-.1 1.9-.8 0-.2-.1-.5-.1-.7 0-.4 0-.8-.2-.9-.9-.1-1.6.4-1.6 1.3-.3-.2-.5-.5-1-.5-.4-7.2-.4-14.2-.6-21.4v-.4c.2-.1.5-.2.7-.4.1-.1.2-.3.1-.6.2-.2.3-.5.3-.9 1.3-.4 1.4-2.3 1.6-3.8.1-1.5.2-2.8.3-4.1.1-1.4.2-2.8.3-4.1.1-1.4.3-2.8.3-4.1 0-.2.2-.1.2-.3 0-.3-.1-.4-.2-.5.2-1.6.3-3.1.4-4.7.1-.5 0-1 .1-1.5.1-.4.2-.8.2-1.1v-1.3c.2-2.6.4-5.3.7-7.9.1-1.3.4-2.6.5-4 .1-1.3.4-2.6.5-3.9 0-.8.1-1.5.1-2.3.1 1.1.3 4.5.3 5.5 0 1.1.7 4.7.9 8.2.3 3.5 2 11.1 2.1 11.7.1.6.2 2.1.2 3.2s1.2 2.7 1.9 3.3c.7.6 1.4 1.9 1.6 2.3.3.3.2.9.2 1.6 0 .7 1.3 3.2 1.7 4.1.4.9.9 1.7 1.5 2.8.6 1.1.3 1.2 0 1.7s.2.6.2.6v3.4c0 .8.2.9.3 1.4.2.5-.1 5.2-.2 5.5-.1.3 0 .8.2 1.1.2.3.2 1.9.2 3.1 0 1.2.2 1.3.3 1.5.1.1 0 .4 0 1-.1.6.1 1 .2 1.3.1.3.1.7 0 1.1-.1.4.3 1 .4 1.5.1.5 0 1.2-.1 1.8 0 .6.3 1.5.4 2.1 0 .6-.4.6-.5 1.1.1.3.6.7.2 1.6zm-15.1-5.5c.3.7 0 1.5-.7 1.6-.3-.9 0-1.6.7-1.6zm32.4-106.9c0 .3.4 2.5.4 2.8 0 .4.3 1.5.3 1.7 0 .1 0 .1-.3.2s-.6.3-1.1 0c-.5-.3-1.4-.8-2.2-.7-.8.1-2 .6-2.5.5-.4-.1-1.2-.5-1.6-.3-.4.2 1.5-.6 1.9-1.1.5-.4 1.4-1.9 1.9-2 .4-.1.8-.6 1.1-1.1l.1-.1.2-.5c.3.1.9.5 1.2.5.3 0 .5.1.6.1zm-24-22.9s.3-2.1.6-2.5c.3-.4.6-1.3.6-1.3l-.1.1-.1.1-.1.1c-.1 0-.1.1-.2.2l-.1.1-.1.1-.1.1c0 .1-.1.1-.1.2s-.1.1-.1.2-.1.1-.1.2-.1.1-.1.2-.1.1-.1.2-.1.1-.1.2-.1.1-.1.2 0 .1-.1.2c0 .1 0 .1-.1.2 0 .1 0 .1-.1.2v.2c0 .1-.1.2-.1.2l.1.1c.1.6.6.5.6.5zm19.2-11.1c1-.2 1.3-.1 2-.2.8-.1 0-.8-.3-1.4-.3-.6-.8 0-1.4.3-.4.2-.8.3-1.1.4.6-1 1.4-2.1.9-1.5-.7.9-1.5 1.3-2.4 3.5-.8 2.2-1 5.6-.5 5.9.5.3 3.1.1 3.1.1.9-1.2-2.4-.8-2.7-1.3-.3-.4.5-4.1.9-5.5.3 0 .8-.2 1.5-.3zM85 88.2c0 .5.5 1 1 1 .6 0 1-.4 1-1 0-.5-.5-1-1-1s-1 .5-1 1zm-.2-45.1c0-.1-.1-.1-.1-.1h-.1v-.2h-.2l-.4.3V43h-.1l-.5.4v-.1h-.1l.1-.1v-.1h-.1l.3-.2v-.2h-.2l-.2.3v-.1h-.1l-.1.2V43h-.1l.4-.5v-.1h-.1l.3-.4-.1-.2-.2.1-.2.4h-.1l-.3.6v-.1h-.1l.1-.2v-.1h-.1l.1-.4-.3-.1-.1.1-.1.4H82l-.1.3-.1-.1.1-.7-.1-.1h-.1v-.4l-.2-.2-.2.2v.5h-.1.2v.7h-.1l-.1.1v-.2l-.1-.1-.1.1V42l-.2-.1-.1.2.1.4h-.1v.1l.1.2h-.1v.1l-.2-.6-.1-.1v.1l-.2-.5-.2-.1-.1.2.2.4H80v.1l.3.5h-.1v.1l-.1-.2H80v.1l-.3-.3h-.2v.2l.2.3h-.1v.1l.2.2h-.1v.1l-.3-.5h-.1l-.4-.3h-.3l.1.2.4.2v.1l.6.3h-.1v.1l-.2-.1h-.1l-.3-.1-.2.1.1.2.4.1v.1l.2.1-.1.1v.1l-.6-.1-.1.1-.5-.1-.2.3.2.2h.5l-.1.1.1.1h.7l-.1.1h-.2l-.1.1h-.4l-.1.2.1.1.4-.1v.1l.1.1h.2v.1h.1l-.6.2-.1.1-.4.1-.1.2.2.1-.1.1v.2s0 .1.1.1c0 .1.1.1.1.2s.1.2.1.3h.2c.1 0 .1 0 .2-.1.1 0 .1 0 .1-.1.1 0 .1 0 .2-.1.2-.1.4-.2.5-.3 0 .1.1.2.1.2v.2l.1.1h.3c.2 0 .3-.1.5-.2.4-.1.7-.3 1.1-.5l.1-.1c.1 0 .1-.1.2-.1.5-.3.9-.5 1.3-.9l.1-.1V45c-.1-.1-.1-.2-.2-.3h.1c.2-.1.3-.1.4-.2h.1s.1 0 .1-.1c.1-.1.2-.1.2-.2l.1-.1v-.2c.7-.3.4-.7.4-.8zm-28.2 409h14.8L84 422.4h43.4l12.3 29.7h15l-48.5-112.9-49.6 112.9zm49.4-80.9l16.1 38.5H89.6l16.4-38.5zm139.2 52.1l-81.5-85.5v115h15.1v-78l81.5 85.3V344.8h-15.1zm32.1-78.5v14.3h48.5l-57.1 93.7h79.7v-14.2h-54.3l57.2-93.8zm78 108h16.5l12.6-29.7h42.4l12.3 29.7h16.6l-49.6-115.6-50.8 115.6zm50.6-79.7l14.9 35.8h-30.2l15.3-35.8zm100.6-15.8c11.3 0 22.5 4.9 30.7 13.4l2.9 3v-19.5l-.7-.5c-9.6-7.1-20.1-10.6-32.2-10.6-31 0-56.2 25.2-56.2 56.2 0 30.5 25.2 55.4 56.2 55.4 11.3 0 22.8-3.8 32.2-10.6l.7-.5v-19.4l-2.9 2.9c-8.5 8.5-19.6 13.4-30.4 13.4-22.1 0-40.7-19-40.7-41.6-.1-22.6 18.5-41.6 40.4-41.6zM68.6 511.1h-5v-35.5h-9.5V471h24v4.6h-9.5v35.5zm44.8-23.9v-16.1h5v40h-5v-19.2H94.3v19.2h-5v-40h5v16.1h19.1zm19.9-16.1h21.5v4.6h-16.5v11.2h16v4.6h-16v15.1h16.5v4.6h-21.5v-40.1zm76.2 7.6c-1.5-2.5-3.4-3.8-6.4-3.8-3.2 0-6.7 2.2-6.7 5.7 0 3.1 3.1 4.8 5.6 5.7l2.9 1.1c5.7 2.2 9.9 5.4 9.9 12.1 0 7.3-5.6 12.5-12.8 12.5-6.5 0-11.5-4.8-12.4-11.2l5-1.1c-.1 4.4 3.5 7.6 7.8 7.6s7.4-3.6 7.4-7.8c0-4.3-3.5-6.2-6.9-7.6l-2.8-1.2c-4.6-2-8.7-4.6-8.7-10.1 0-6.5 5.7-10.4 11.8-10.4 4.5 0 8.1 2.2 10.3 6.1l-4 2.4zm23.4 32.4h-5v-40h5.7c12.3 0 16.1 4.3 16.1 11.6 0 8.4-6.4 11.7-14 11.7h-2.9v16.7zm0-21.2h1.6c5.1 0 10.6-1 10.6-7.3s-5.9-7-10.9-7h-1.3v14.3zm33.8 21.2h-5v-40h5v40zm40.1 0h-6.1L289 494.2h-2.1v16.9h-5v-40h6.1c3.6 0 7.4.1 10.6 1.9 3.3 2 5.3 5.7 5.3 9.6 0 5.7-3.8 10.5-9.6 11.2l12.5 17.3zm-19.9-21h1.6c5.1 0 10.6-1 10.6-7.3s-5.9-7.2-10.9-7.2h-1.3v14.5zm36.4 21h-5v-40h5v40zm25.9 0h-5v-35.5h-9.5V471h24v4.6h-9.5v35.5zm49.2-4.5h12.2v4.6h-17.2v-40h5v35.4zm28 4.5h-5v-40h5v40zm28.4-10.4l11.9-29.6h5.5l-17.4 42.2-17.4-42.2h5.5l11.9 29.6zm28.4-29.6h21.5v4.6h-16.5v11.2h16v4.6h-16v15.1h16.5v4.6h-21.5v-40.1zm53.2 7.6c-1.5-2.5-3.4-3.8-6.4-3.8-3.2 0-6.7 2.2-6.7 5.7 0 3.1 3.1 4.8 5.6 5.7l2.9 1.1c5.7 2.2 9.9 5.4 9.9 12.1 0 7.3-5.6 12.5-12.8 12.5-6.5 0-11.5-4.8-12.4-11.2l5-1.1c-.1 4.4 3.5 7.6 7.8 7.6s7.4-3.6 7.4-7.8c0-4.3-3.5-6.2-6.9-7.6l-2.8-1.2c-4.6-2-8.7-4.6-8.7-10.1 0-6.5 5.7-10.4 11.8-10.4 4.5 0 8.1 2.2 10.3 6.1l-4 2.4zM57.6 259.3h9.9l16.9 29.5 16.9-29.5h9.9l-22.5 39v30h-8.6v-30l-22.5-39zm71.9 0h37.1v7.9h-28.5v19.3h27.6v7.9h-27.6v26.1h28.5v7.9h-37.1v-69.1zm69.7 51.7l-7.9 17.3h-9.2l32.9-71.9 32.9 71.9h-9.2l-7.9-17.3h-31.6zm15.8-35.8l-12.3 27.9h24.5L215 275.2zm93.9 53.1h-10.4l-20.3-29.2h-3.6v29.2H266v-69h10.4c6.1 0 12.7.1 18.2 3.2 5.8 3.4 9.1 9.9 9.1 16.5 0 9.9-6.6 18.1-16.6 19.3l21.8 30zM274.6 292h2.7c8.8 0 18.3-1.6 18.3-12.6 0-10.8-10.2-12.4-18.8-12.4h-2.3v25zm84-19.6c-2.6-4.3-5.9-6.5-11.1-6.5-5.5 0-11.5 3.8-11.5 9.8 0 5.4 5.3 8.2 9.6 9.9l4.9 1.9c9.8 3.8 17.1 9.2 17.1 20.8 0 12.5-9.7 21.5-22 21.5-11.2 0-19.9-8.2-21.3-19.3l8.7-1.8c-.1 7.6 5.9 13.1 13.4 13.1 7.4 0 12.7-6.2 12.7-13.5 0-7.4-5.9-10.6-11.9-13.1l-4.8-2c-7.9-3.4-15-7.9-15-17.5 0-11.2 9.9-17.8 20.3-17.8 7.7 0 14 3.8 17.7 10.4l-6.8 4.1zm127.7 21.4c0 20.5-16.2 36-36.1 36-19.9 0-36.1-15.5-36.1-36 0-19.8 16.4-36 36.1-36 19.7.1 36.1 16.3 36.1 36zm-8.6 0c0-15.2-11.3-27.9-27.5-27.9s-27.5 12.7-27.5 27.9c0 15.7 12.6 27.9 27.5 27.9s27.5-12.1 27.5-27.9zm37.7-26.6v19.4h24v7.9h-24v33.9h-8.6v-69h33.4v7.9h-24.8zM520.5 74c-19.4-19.2-43.4-28.9-71.3-28.9-27.8 0-51.7 9.7-71.1 28.9-19.4 19.2-29.2 42.9-29.2 70.5 0 27.5 9.8 51.2 29.2 70.3 19.3 19.2 43.3 28.9 71.1 28.9 27.9 0 51.9-9.7 71.3-28.9s29.3-42.8 29.3-70.3c0-27.6-9.8-51.3-29.3-70.5zm-70.8 145.2c-21 0-38.3-7.1-52.8-21.6-14.5-14.6-21.6-31.9-21.6-53.1 0-21.3 7.1-38.7 21.6-53.2 14.5-14.6 31.8-21.6 52.8-21.6 20.9 0 38 7.1 52.4 21.6 14.4 14.6 21.3 32 21.3 53.3 0 21.2-7 38.6-21.3 53.1-14.4 14.4-31.5 21.5-52.4 21.5zM301.2 74c-19.4-19.2-43.4-28.9-71.3-28.9-27.8 0-51.7 9.7-71.1 28.9-19.4 19.2-29.2 42.9-29.2 70.5 0 27.5 9.8 51.2 29.2 70.3 19.3 19.2 43.3 28.9 71.1 28.9 27.9 0 51.9-9.7 71.3-28.9s29.3-42.8 29.3-70.3c0-27.6-9.9-51.3-29.3-70.5zm-70.8 145.2c-21 0-38.3-7.1-52.8-21.6-14.5-14.6-21.6-32-21.6-53.1 0-21.3 7.1-38.7 21.6-53.2 14.5-14.6 31.8-21.6 52.8-21.6 20.9 0 38 7.1 52.4 21.6 14.4 14.6 21.4 32 21.4 53.3 0 21.2-7 38.6-21.4 53.1-14.4 14.4-31.5 21.5-52.4 21.5zM205.5 552v3.3h-18.8l12.7-15.6c1.2-1.5 2.6-3.3 2.6-5.2 0-3-2.7-5.6-5.7-5.6s-5.4 2.4-5.6 5.3h-3.6c.6-5.2 3.9-8.6 9.2-8.6 4.9 0 9.2 3.7 9.2 8.7 0 2.2-.8 4.3-2.2 6l-9.6 11.7h11.8zm34.5-11.2c0 8.6-6.8 15.2-15.2 15.2-8.4 0-15.2-6.5-15.2-15.2 0-8.3 6.9-15.2 15.2-15.2 8.3 0 15.2 6.8 15.2 15.2zm-3.6 0c0-6.4-4.8-11.8-11.6-11.8s-11.6 5.4-11.6 11.8c0 6.6 5.3 11.8 11.6 11.8 6.3-.1 11.6-5.2 11.6-11.8zm7.6-11.3l2-3.3h6.5v29.1H249v-25.8h-5zm35.8 18.4v3.2h-3.3v4.2H273v-4.2h-14.3l17.8-26.1v22.9h3.3zm-6.7-12l-8.3 12h8.3v-12zm29.4 5.6v2.9h-8.4v-2.9h8.4zm33.9 10.5v3.3h-18.8l12.7-15.6c1.2-1.5 2.6-3.3 2.6-5.2 0-3-2.7-5.6-5.7-5.6s-5.4 2.4-5.6 5.3H318c.6-5.2 3.9-8.6 9.2-8.6 4.9 0 9.2 3.7 9.2 8.7 0 2.2-.8 4.3-2.2 6l-9.6 11.7h11.8zm34.5-11.2c0 8.6-6.8 15.2-15.2 15.2-8.4 0-15.2-6.5-15.2-15.2 0-8.3 6.9-15.2 15.2-15.2 8.3 0 15.2 6.8 15.2 15.2zm-3.6 0c0-6.4-4.8-11.8-11.6-11.8s-11.6 5.4-11.6 11.8c0 6.6 5.3 11.8 11.6 11.8 6.2-.1 11.6-5.2 11.6-11.8zm7.5-11.3l2-3.3h6.5v29.1h-3.5v-25.8h-5zm21.1 10.7c-2.4-1.3-3.8-3.7-3.8-6.5 0-4.7 3.7-8.1 8.3-8.1 4.6 0 8.3 3.4 8.3 8.1 0 2.9-1.4 5.2-3.8 6.5 3 1 4.6 3.9 4.6 7 0 5.4-4.2 8.7-9.1 8.7-4.9 0-9.1-3.3-9.1-8.7 0-3.1 1.6-5.9 4.6-7zm-1.1 7c0 2.9 2.8 5.5 5.6 5.5 2.9 0 5.6-2.5 5.6-5.5 0-3.1-2.7-5.5-5.6-5.5-2.9 0-5.6 2.4-5.6 5.5zm.7-13.5c0 2.3 2.5 4.9 4.9 4.9 2.4 0 4.9-2.6 4.9-4.9 0-2.8-2.3-5-4.9-5-2.6 0-4.9 2.2-4.9 5z"/></svg>